<?xml version="1.0" encoding="utf-8"?>
<!-- Generator: Adobe Illustrator 19.2.1, SVG Export Plug-In . SVG Version: 6.00 Build 0)  -->
<svg version="1.1" xmlns="http://www.w3.org/2000/svg" xmlns:xlink="http://www.w3.org/1999/xlink" x="0px" y="0px"
	 viewBox="0 0 110 125" style="enable-background:new 0 0 110 125;" xml:space="preserve">
<style type="text/css">
	.st0{opacity:0.81;}
	.st1{fill:#FFFFFF;stroke:#000000;stroke-width:0.25;stroke-miterlimit:10;}
</style>
<g id="Layer_1">
	<polygon class="st0" points="54.7,3.1 106.1,32.7 106.1,92 54.7,121.7 3.4,92 3.4,32.7 	"/>
</g>
<g id="Layer_3_copy">
	<path class="st1" d="M7.5,55.8h3.7c0.8,0,1.5,0.1,1.9,0.2c0.6,0.2,1.1,0.5,1.5,0.9c0.4,0.4,0.7,1,1,1.6C15.8,59.2,16,60,16,61
		c0,0.8-0.1,1.5-0.3,2.1c-0.3,0.7-0.6,1.3-1.1,1.8c-0.4,0.3-0.8,0.6-1.4,0.8c-0.4,0.1-1,0.2-1.8,0.2H7.5V55.8z M9.6,57.5v6.6h1.5
		c0.6,0,1,0,1.2-0.1c0.3-0.1,0.6-0.2,0.8-0.4c0.2-0.2,0.4-0.5,0.5-1c0.1-0.4,0.2-1.1,0.2-1.8c0-0.8-0.1-1.4-0.2-1.8
		c-0.1-0.4-0.3-0.7-0.6-1s-0.6-0.4-0.9-0.5c-0.3-0.1-0.8-0.1-1.7-0.1H9.6z"/>
	<path class="st1" d="M18.7,65.9v-10h7.4v1.7h-5.4v2.2h5v1.7h-5v2.7h5.6v1.7H18.7z"/>
	<path class="st1" d="M28.6,62.6l2-0.2c0.1,0.7,0.4,1.1,0.7,1.5c0.4,0.3,0.9,0.5,1.5,0.5c0.7,0,1.1-0.1,1.5-0.4
		c0.3-0.3,0.5-0.6,0.5-1c0-0.2-0.1-0.4-0.2-0.6c-0.1-0.2-0.4-0.3-0.7-0.4c-0.2-0.1-0.8-0.2-1.6-0.4c-1.1-0.3-1.8-0.6-2.3-1
		c-0.6-0.6-0.9-1.2-0.9-2c0-0.5,0.1-1,0.4-1.4s0.7-0.8,1.3-1s1.2-0.3,2-0.3c1.3,0,2.2,0.3,2.8,0.8c0.6,0.6,1,1.3,1,2.2l-2,0.1
		c-0.1-0.5-0.3-0.9-0.6-1.1s-0.7-0.3-1.3-0.3c-0.6,0-1,0.1-1.4,0.4c-0.2,0.2-0.3,0.4-0.3,0.6c0,0.2,0.1,0.4,0.3,0.6
		c0.3,0.2,0.9,0.4,1.9,0.7s1.7,0.5,2.2,0.7c0.5,0.2,0.8,0.6,1.1,1s0.4,1,0.4,1.6c0,0.6-0.2,1.1-0.5,1.6c-0.3,0.5-0.8,0.9-1.4,1.1
		c-0.6,0.2-1.3,0.4-2.2,0.4c-1.3,0-2.2-0.3-2.9-0.9C29.1,64.6,28.7,63.7,28.6,62.6z"/>
	<path class="st1" d="M41.7,65.9v-8.3h-3v-1.7h8v1.7h-3v8.3H41.7z"/>
	<path class="st1" d="M49.1,65.9v-10h4.3c1.1,0,1.8,0.1,2.3,0.3c0.5,0.2,0.9,0.5,1.2,1c0.3,0.5,0.4,1,0.4,1.6c0,0.8-0.2,1.4-0.7,1.9
		c-0.4,0.5-1.1,0.8-2,0.9c0.4,0.3,0.8,0.5,1.1,0.8c0.3,0.3,0.7,0.8,1.2,1.6l1.2,2h-2.4l-1.5-2.2c-0.5-0.8-0.9-1.3-1.1-1.5
		c-0.2-0.2-0.4-0.3-0.6-0.4s-0.6-0.1-1-0.1h-0.4v4.2H49.1z M51.1,60.1h1.5c1,0,1.6,0,1.8-0.1s0.4-0.2,0.6-0.4
		c0.1-0.2,0.2-0.5,0.2-0.8c0-0.3-0.1-0.6-0.3-0.8c-0.2-0.2-0.4-0.3-0.8-0.4c-0.2,0-0.7,0-1.5,0h-1.6V60.1z"/>
	<path class="st1" d="M59.8,60.9c0-1,0.2-1.9,0.5-2.6c0.2-0.5,0.5-1,0.9-1.4c0.4-0.4,0.8-0.7,1.3-0.9c0.6-0.3,1.3-0.4,2.2-0.4
		c1.5,0,2.7,0.5,3.5,1.4c0.9,0.9,1.3,2.2,1.3,3.8c0,1.6-0.4,2.9-1.3,3.8c-0.9,0.9-2.1,1.4-3.5,1.4c-1.5,0-2.7-0.5-3.6-1.4
		S59.8,62.5,59.8,60.9z M61.9,60.9c0,1.1,0.3,2,0.8,2.6c0.5,0.6,1.2,0.9,2,0.9s1.5-0.3,2-0.9c0.5-0.6,0.8-1.5,0.8-2.6
		c0-1.1-0.3-2-0.8-2.6c-0.5-0.6-1.2-0.8-2-0.8s-1.5,0.3-2,0.9C62.2,58.8,61.9,59.7,61.9,60.9z"/>
	<path class="st1" d="M74.8,65.9v-4.2l-3.7-5.8h2.4l2.4,4l2.3-4h2.3l-3.7,5.8v4.2H74.8z"/>
	<path class="st1" d="M82.6,65.9v-10H90v1.7h-5.4v2.2h5v1.7h-5v2.7h5.6v1.7H82.6z"/>
	<path class="st1" d="M93,55.8h3.7c0.8,0,1.5,0.1,1.9,0.2c0.6,0.2,1.1,0.5,1.5,0.9c0.4,0.4,0.7,1,1,1.6c0.2,0.6,0.3,1.4,0.3,2.4
		c0,0.8-0.1,1.5-0.3,2.1c-0.3,0.7-0.6,1.3-1.1,1.8c-0.4,0.3-0.8,0.6-1.4,0.8c-0.4,0.1-1,0.2-1.8,0.2H93V55.8z M95,57.5v6.6h1.5
		c0.6,0,1,0,1.2-0.1c0.3-0.1,0.6-0.2,0.8-0.4c0.2-0.2,0.4-0.5,0.5-1c0.1-0.4,0.2-1.1,0.2-1.8c0-0.8-0.1-1.4-0.2-1.8
		c-0.1-0.4-0.3-0.7-0.6-1s-0.6-0.4-0.9-0.5c-0.3-0.1-0.8-0.1-1.7-0.1H95z"/>
</g>
</svg>
