<?xml version="1.0" encoding="utf-8"?>
<!-- Generator: Adobe Illustrator 19.2.1, SVG Export Plug-In . SVG Version: 6.00 Build 0)  -->
<svg version="1.1" xmlns="http://www.w3.org/2000/svg" xmlns:xlink="http://www.w3.org/1999/xlink" x="0px" y="0px"
	 viewBox="0 0 110 125" style="enable-background:new 0 0 110 125;" xml:space="preserve">
<style type="text/css">
	.st0{opacity:0.66;fill:#8A0707;}
	.st1{fill:#FFFFFF;stroke:#000000;stroke-width:0.5;}
</style>
<g id="Layer_1">
	<polygon class="st0" points="54.7,3.1 106.1,32.7 106.1,92 54.7,121.7 3.4,92 3.4,32.7 	"/>
</g>
<g id="Layer_2">
	<path class="st1" d="M20,44.9h2.6v7c0,1.1,0,1.8,0.1,2.2c0.1,0.5,0.4,1,0.8,1.3s1,0.5,1.7,0.5c0.7,0,1.3-0.2,1.7-0.5
		s0.6-0.7,0.7-1.1s0.1-1.2,0.1-2.2v-7.1h2.6v6.8c0,1.5-0.1,2.6-0.2,3.3s-0.4,1.2-0.8,1.6s-0.9,0.8-1.5,1.1S26.4,58,25.3,58
		c-1.2,0-2.2-0.1-2.8-0.4S21.4,57,21,56.5s-0.6-0.9-0.7-1.4c-0.2-0.7-0.3-1.8-0.3-3.3V44.9z"/>
	<path class="st1" d="M34.9,57.8V44.9h2.5l5.3,8.6v-8.6h2.4v12.9h-2.6l-5.2-8.4v8.4H34.9z"/>
	<path class="st1" d="M49.6,44.9h4.8c1.1,0,1.9,0.1,2.5,0.2c0.8,0.2,1.4,0.6,1.9,1.2s0.9,1.3,1.2,2.1s0.4,1.8,0.4,3
		c0,1.1-0.1,2-0.4,2.7c-0.3,0.9-0.8,1.7-1.4,2.3c-0.5,0.4-1.1,0.8-1.8,1c-0.6,0.2-1.3,0.3-2.3,0.3h-4.9V44.9z M52.2,47.1v8.5h1.9
		c0.7,0,1.3,0,1.6-0.1c0.4-0.1,0.8-0.3,1.1-0.5s0.5-0.7,0.7-1.2s0.3-1.4,0.3-2.4s-0.1-1.8-0.3-2.3s-0.4-0.9-0.7-1.2
		s-0.7-0.5-1.2-0.6c-0.4-0.1-1.1-0.1-2.1-0.1H52.2z"/>
	<path class="st1" d="M64.5,57.8V44.9H74v2.2h-7V50h6.5v2.2h-6.5v3.5h7.2v2.2H64.5z"/>
	<path class="st1" d="M78.3,57.8V44.9h5.5c1.4,0,2.4,0.1,3,0.3c0.6,0.2,1.1,0.6,1.5,1.2s0.6,1.3,0.6,2c0,1-0.3,1.8-0.9,2.4
		s-1.4,1-2.5,1.2c0.6,0.3,1,0.7,1.4,1.1s0.9,1.1,1.5,2.1l1.6,2.5h-3.1L84.9,55c-0.7-1-1.1-1.6-1.4-1.9s-0.5-0.4-0.8-0.5
		s-0.7-0.1-1.3-0.1h-0.5v5.4H78.3z M80.9,50.4h1.9c1.2,0,2-0.1,2.3-0.2s0.6-0.3,0.7-0.5s0.3-0.6,0.3-1c0-0.4-0.1-0.8-0.3-1.1
		s-0.6-0.4-1-0.5c-0.2,0-0.8,0-1.9,0h-2V50.4z"/>
	<path class="st1" d="M23.2,79.4h-2.8l-1.1-2.9h-5.2l-1.1,2.9h-2.8l5-12.9h2.8L23.2,79.4z M18.4,74.3l-1.8-4.8l-1.7,4.8H18.4z"/>
	<path class="st1" d="M28,79.4V68.7h-3.8v-2.2h10.2v2.2h-3.8v10.7H28z"/>
	<path class="st1" d="M40.8,79.4V68.7h-3.8v-2.2h10.2v2.2h-3.8v10.7H40.8z"/>
	<path class="st1" d="M60.9,79.4h-2.8L57,76.5h-5.2l-1.1,2.9H48l5-12.9h2.8L60.9,79.4z M56.2,74.3l-1.8-4.8l-1.7,4.8H56.2z"/>
	<path class="st1" d="M72.4,74.7l2.5,0.8c-0.4,1.4-1,2.5-1.9,3.1c-0.9,0.7-2,1-3.4,1c-1.7,0-3.1-0.6-4.2-1.8
		c-1.1-1.2-1.7-2.8-1.7-4.8c0-2.1,0.6-3.8,1.7-5c1.1-1.2,2.6-1.8,4.4-1.8c1.6,0,2.9,0.5,3.8,1.4c0.6,0.6,1,1.3,1.3,2.4l-2.6,0.6
		c-0.2-0.7-0.5-1.2-1-1.6c-0.5-0.4-1.1-0.6-1.8-0.6c-1,0-1.7,0.3-2.3,1s-0.9,1.8-0.9,3.3c0,1.6,0.3,2.8,0.9,3.5s1.3,1,2.3,1
		c0.7,0,1.3-0.2,1.8-0.7S72.1,75.6,72.4,74.7z"/>
	<path class="st1" d="M79,79.4V66.5h2.6v5.7l5.3-5.7h3.5l-4.9,5l5.1,7.9h-3.4l-3.5-6l-2.1,2.2v3.9H79z"/>
	<path class="st1" d="M94.7,76.1L94,69.6v-3h2.7v3l-0.6,6.5H94.7z M94.1,79.4V77h2.5v2.5H94.1z"/>
</g>
</svg>
