<?xml version="1.0" encoding="utf-8"?>
<!-- Generator: Adobe Illustrator 19.2.1, SVG Export Plug-In . SVG Version: 6.00 Build 0)  -->
<svg version="1.1" id="Layer_1" xmlns="http://www.w3.org/2000/svg" xmlns:xlink="http://www.w3.org/1999/xlink" x="0px" y="0px"
	 viewBox="0 0 110 125" style="enable-background:new 0 0 110 125;" xml:space="preserve">
<style type="text/css">
	.st0{fill:#009245;}
	.st1{fill:#FFFFFF;}
</style>
<g id="Island_2_3_">
	<g>
		<path class="st0" d="M56.7,18.3c-0.2,0.8-0.3,1.3-0.4,1.9c-0.2,0.7-0.4,1.5-0.4,2.2c-0.2,1.8-0.2,3.5,1.5,4.6
			c0.5,0.4,0.4,0.8,0.3,1.4c-0.7,2.3-2.3,3.9-3.8,5.6c-1.1,1.2-2.1,2.4-2.2,4.1c0,0.7-0.1,1.5,0.1,2.2c0.5,1.8,1.1,3.6,1.6,5.4
			c0.4,1.4,2.6,2.1,3.6,1.2c1.3-1.2,2.7-1.1,4.2-0.5c1.8,0.7,3.6,1.5,5.3,2.5c-0.6,0.1-1.2,0.3-2.1,0.5c1.3,1.7,2.5,3.3,3.7,4.8
			c-1.9,0.7-4.5-0.2-5.5-1.9c-0.2-0.4-0.5-0.7-0.6-1.2c-0.6-1.6-2-2.1-3.6-2.7c0.2,1.4,0.5,2.8,0.7,4.1c-0.1,0-0.1,0.1-0.2,0.1
			c-0.3-0.3-0.6-0.6-0.9-0.9c-1.3-1.3-2.4-2.9-4.3-3.5c-0.4-0.1-0.9,0-1.4,0c-0.1,0-0.1,0.1-0.2,0.1c-1.6,1.5-3.4,1.2-5.2,0.6
			c-0.2-0.1-0.5-0.2-0.5-0.3c0.1-1,0-2.1,0.3-3.1c0.2-0.6,0.8-1.1,1.3-1.7c-0.5-0.5-1-0.8-1.5-1.3c-0.3,0.8-0.6,1.5-0.9,2.3
			c-1.1-0.9-2.3-1.6-3-2.6c-0.5-0.7-0.4-1.8-0.6-2.7c-0.3-1.9-0.6-3.9-0.9-5.8c0-0.3,0-0.6,0-1c1,0.3,1.9,0.6,2.7,0.8
			c0.1-0.1,0.2-0.2,0.2-0.2c0-2.1,0.4-4.2,0.9-6.2c0.2-0.6-0.4-1.4-0.5-2.1c-0.1-0.6-0.2-1.3,0-1.9c0.5-1.4,1.1-2.8,1.6-4.2
			c0.5-1.1,2.4-1.7,3.4-1c1,0.7,1.9,1.4,3.1,1.5c1,0.1,1.9,0.2,2.8-0.6C55.8,18.8,56.2,18.7,56.7,18.3z M58.1,48.2
			c2,0.7,3.7,1.4,4.4,3.4c0.1,0.3,0.3,0.6,0.5,0.9c0.8,1.4,3,2.2,4.6,1.7c-1.2-1.5-2.3-3.1-3.6-4.8c0.7-0.2,1.1-0.3,1.6-0.5
			c-1.7-1-3.5-1.8-5.3-2.4c-0.9-0.3-2.1-0.3-2.8,0.6c-0.8,1-1.7,0.9-2.8,0.3c-0.9-0.4-1.4-0.9-1.7-1.9c-0.4-1.8-1.1-3.6-1.6-5.4
			c-0.1-0.4-0.2-0.8-0.1-1.2c0.3-1.7,0.9-3.3,2.2-4.7c1.5-1.6,3.1-3.2,3.8-5.4c0.3-0.8,0.3-1.3-0.4-1.9c-1-0.8-1.4-1.9-1.2-3.2
			c0.2-1.5,0.3-3.1,0.5-4.7c-0.6,0.3-1.1,0.8-1.7,0.9c-0.6,0.1-1.4,0.1-2-0.2c-1-0.4-2-0.9-3-1.4c-1-0.6-2.7-0.2-3.1,1
			c-0.5,1.3-1,2.6-1.5,3.9c-0.3,0.7-0.3,1.4,0,2.1c0.5,0.9,0.7,1.8,0.3,2.8c-0.6,1.7-0.9,3.4-0.8,5.2c0,0.2-0.1,0.5-0.1,0.8
			c-0.9-0.3-1.8-0.6-2.8-0.8c0,0.4,0,0.7,0,0.9c0.3,2,0.6,4,0.9,5.9c0.1,0.8,0.1,1.7,0.5,2.2c0.7,0.8,1.7,1.4,2.6,2.2
			c0.3-0.9,0.6-1.6,0.9-2.4c0.7,0.7,1.4,1.2,2,1.8c-0.4,0.5-0.6,0.9-1,1.2c-0.9,0.8-1.1,1.8-0.9,2.9c0.1,0.3,0.4,0.8,0.7,0.9
			c1.6,0.6,3.2,0.7,4.6-0.6c0.1-0.1,0.3-0.2,0.4-0.3c0.4,0,0.9-0.2,1.3,0c1.4,0.6,2.6,1.4,3.5,2.6c0.4,0.5,0.7,0.9,1.1,1.4
			c0.1-0.1,0.2-0.2,0.3-0.2C58.5,50.7,58.3,49.5,58.1,48.2z"/>
		<g>
			<path class="st1" d="M56.7,18.3c-0.2,0.9-0.3,1.9-0.5,2.8c-0.2,0.9-0.3,1.8-0.3,2.8c0,0.9,0.3,1.9,0.9,2.5
				c0.2,0.2,0.3,0.3,0.5,0.5c0.2,0.1,0.4,0.3,0.5,0.6c0.2,0.6,0,1-0.2,1.5c-0.6,1.9-1.9,3.4-3.1,4.8c-0.6,0.7-1.3,1.4-1.8,2.2
				c-0.5,0.8-0.8,1.6-0.9,2.5c0,0.5-0.1,0.9,0,1.4c0,0.2,0,0.4,0.1,0.6l0.2,0.7l0.8,2.7l0.4,1.3c0.1,0.4,0.2,0.9,0.5,1.2
				c0.5,0.6,1.4,1,2.2,0.8c0.4-0.1,0.6-0.3,1-0.6c0.4-0.3,0.9-0.5,1.4-0.6c1.1-0.2,2.1,0.1,3,0.4c1.8,0.7,3.5,1.5,5.1,2.4l1,0.5
				l-1.1,0.3l-2.1,0.5l0.2-0.7l3.8,4.8l0.4,0.5l-0.6,0.2c-1.1,0.4-2.2,0.3-3.3,0c-0.5-0.2-1-0.4-1.5-0.7c-0.5-0.3-0.9-0.7-1.2-1.2
				l-0.4-0.6c-0.1-0.2-0.3-0.5-0.4-0.7c-0.1-0.3-0.2-0.4-0.3-0.6c-0.1-0.2-0.3-0.3-0.4-0.5c-0.7-0.6-1.6-0.9-2.6-1.3l0.7-0.5
				l0.7,4.1l0.1,0.3l-0.2,0.2l-0.2,0.1l-0.3,0.3l-0.3-0.3c-0.6-0.6-1.2-1.2-1.7-1.8c-0.6-0.6-1.1-1.2-1.7-1.7
				c-0.3-0.2-0.6-0.4-1-0.6C54,49,53.8,49,53.6,48.9c-0.1,0-0.3,0-0.4,0l-0.6,0.1c0,0-0.2,0-0.1,0c0.2,0,0.1-0.1,0.1,0l-0.2,0.2
				c-0.3,0.3-0.8,0.6-1.2,0.7c-0.9,0.4-1.8,0.3-2.7,0.2c-0.4-0.1-0.8-0.2-1.3-0.3c-0.2-0.1-0.4-0.1-0.7-0.2c-0.1,0-0.1-0.1-0.2-0.1
				c0,0-0.1-0.1-0.2-0.2c-0.1-0.3,0-0.2,0-0.3l0-0.3c0-0.8,0.1-1.7,0.2-2.5c0.1-0.5,0.4-1,0.7-1.3c0.3-0.3,0.6-0.6,0.8-0.9l0.1,0.6
				L46.4,43l0.7-0.2l-0.9,2.3L46,45.7l-0.5-0.4c-0.8-0.7-1.8-1.3-2.7-2.2c-0.2-0.2-0.4-0.4-0.6-0.8c-0.2-0.3-0.2-0.6-0.3-0.9
				c-0.1-0.6-0.1-1.2-0.2-1.7l-0.5-3.4L41,34.7c0-0.3-0.1-0.5-0.1-0.9c0-0.3,0-0.6,0-0.9l0-0.5l0.5,0.1l2.7,0.9l-0.3,0.1
				c0.1-0.1,0.1-0.1,0.1-0.2c0,0,0,0,0,0.1c0,0.2,0,0,0,0l0-0.1l0-0.4c0-0.3,0-0.6,0-0.9c0-0.6,0.1-1.1,0.2-1.7
				c0.1-0.6,0.2-1.1,0.3-1.7c0.1-0.5,0.3-1.1,0.4-1.6c0-0.4-0.2-1-0.4-1.5c-0.1-0.6-0.2-1.1-0.1-1.8c0-0.3,0.1-0.6,0.2-0.9l0.3-0.8
				l0.6-1.6L46,19c0.2-0.6,0.8-0.9,1.3-1.2c0.6-0.2,1.2-0.3,1.7-0.1c0.6,0.2,1,0.6,1.5,0.9c0.5,0.3,0.9,0.6,1.5,0.8
				c0.5,0.2,1.1,0.2,1.6,0.2c0.6,0,1.1-0.1,1.6-0.4C55.7,18.8,56.2,18.6,56.7,18.3z M56.7,18.3c-0.5,0.3-1,0.5-1.4,0.9
				c-0.5,0.4-1,0.5-1.6,0.5c-0.6,0-1.1,0-1.7-0.2c-0.6-0.2-1.1-0.4-1.5-0.8C50,18.5,49.5,18.1,49,18c-0.5-0.1-1.1,0-1.6,0.2
				c-0.5,0.2-0.9,0.5-1.1,1l-0.6,1.6l-0.6,1.6c-0.2,0.5-0.5,1-0.5,1.5c0,0.5,0,1.1,0.2,1.6c0.1,0.5,0.5,1,0.4,1.7
				c-0.1,0.6-0.3,1.1-0.4,1.7c-0.1,0.5-0.2,1.1-0.3,1.6c-0.1,0.5-0.1,1.1-0.2,1.7c0,0.3,0,0.6,0,0.8l0,0.4l0,0.1c0,0,0,0,0,0.1
				c0,0.1-0.1,0.1-0.1,0.2L44.2,34l-0.1,0.2l-0.2-0.1l-2.7-0.8l0.5-0.3c0,0.3,0,0.6,0,0.8l0.1,0.8l0.3,1.7l0.6,3.4
				c0.1,0.6,0.1,1.2,0.2,1.7c0,0.3,0.1,0.5,0.2,0.7c0.1,0.2,0.3,0.4,0.4,0.6c0.7,0.8,1.7,1.4,2.6,2.1l-0.7,0.2l0.9-2.3l0.2-0.6
				l0.5,0.4l1.5,1.3l0.3,0.3l-0.3,0.3c-0.3,0.4-0.6,0.6-0.8,0.9c-0.3,0.3-0.4,0.5-0.5,0.9c-0.2,0.7-0.2,1.6-0.2,2.4l0,0.3
				c0,0,0,0.1,0-0.1c-0.1-0.1-0.1-0.1-0.1-0.1l0.1,0c0.1,0.1,0.3,0.1,0.5,0.2c0.4,0.1,0.8,0.2,1.2,0.3c0.8,0.1,1.5,0.1,2.2-0.1
				c0.3-0.1,0.6-0.3,0.9-0.6l0.2-0.2c0.1-0.1,0.1-0.1,0.4-0.2l0.2,0l0.6-0.1c0.2,0,0.5,0,0.8,0.1c0.2,0.1,0.4,0.2,0.6,0.3
				c0.4,0.2,0.8,0.4,1.1,0.7c0.7,0.5,1.3,1.2,1.9,1.8c0.6,0.6,1.1,1.2,1.7,1.8l-0.7,0l0.2-0.1l-0.2,0.5l-0.7-4.1l-0.1-0.9l0.8,0.3
				c0.9,0.4,2,0.7,2.9,1.5c0.2,0.2,0.4,0.4,0.6,0.7c0.2,0.2,0.3,0.5,0.4,0.8c0.1,0.3,0.2,0.4,0.3,0.6l0.4,0.6
				c0.5,0.7,1.3,1.3,2.2,1.6c0.9,0.3,1.9,0.3,2.7,0l-0.2,0.7L64,49.8l-0.4-0.5l0.7-0.2l2.1-0.5l-0.1,0.8c-1.6-0.9-3.3-1.7-5-2.4
				c-0.8-0.3-1.7-0.6-2.5-0.4c-0.4,0.1-0.8,0.2-1.1,0.5c-0.1,0.1-0.2,0.1-0.3,0.2l-0.1,0.1l-0.2,0.1c-0.2,0.2-0.5,0.3-0.8,0.3
				c-0.6,0.1-1.1,0-1.6-0.2c-0.5-0.2-0.9-0.5-1.3-0.9c-0.1-0.1-0.2-0.2-0.2-0.4c-0.1-0.1-0.1-0.2-0.1-0.4l-0.2-0.7l-0.4-1.4
				l-0.8-2.7l-0.2-0.7c-0.1-0.3-0.1-0.5-0.1-0.8c0-0.5,0-1,0.1-1.4c0.1-1,0.5-2,1-2.7c0.6-0.8,1.2-1.5,1.8-2.2
				c1.3-1.4,2.5-2.8,3.1-4.5c0.1-0.4,0.3-0.9,0.2-1.3c-0.1-0.2-0.2-0.3-0.4-0.5c-0.2-0.1-0.4-0.3-0.5-0.5c-0.7-0.7-0.9-1.7-0.9-2.7
				c0-0.9,0.1-1.9,0.4-2.8C56.3,20.2,56.5,19.3,56.7,18.3z"/>
			<path class="st1" d="M58.1,48.2c0.9,0.3,1.9,0.6,2.8,1.2c0.4,0.3,0.8,0.6,1.1,1c0.2,0.2,0.3,0.4,0.4,0.7c0.1,0.2,0.2,0.5,0.3,0.7
				c0.1,0.2,0.3,0.4,0.4,0.6c0.1,0.2,0.3,0.4,0.4,0.6c0.3,0.3,0.8,0.6,1.2,0.8c0.9,0.4,1.9,0.5,2.8,0.2l-0.1,0.3l-3.6-4.7l-0.2-0.3
				l0.4-0.1l1.6-0.5l-0.1,0.5c-1.6-0.9-3.2-1.7-4.9-2.2c-0.8-0.3-1.7-0.4-2.4,0c-0.2,0.1-0.3,0.2-0.4,0.4c-0.1,0.2-0.3,0.4-0.5,0.5
				c-0.4,0.3-1.1,0.5-1.6,0.3c-0.5-0.1-1-0.3-1.4-0.5c-0.4-0.2-0.9-0.6-1.2-1c-0.3-0.4-0.4-1-0.6-1.4l-0.4-1.3l-0.8-2.6
				c-0.1-0.4-0.3-0.9-0.4-1.3c-0.1-0.2-0.1-0.5-0.1-0.8c0-0.3,0.1-0.5,0.1-0.8c0.2-0.9,0.5-1.8,0.9-2.7c0.4-0.9,1.1-1.6,1.7-2.3
				c1.2-1.3,2.5-2.7,3.1-4.3c0.2-0.4,0.3-0.8,0.3-1.2c0-0.3-0.1-0.5-0.5-0.8c-0.8-0.6-1.4-1.7-1.4-2.7c0-0.3,0-0.5,0-0.8l0.1-0.7
				l0.1-1.4l0.3-2.7l0.7,0.5c-0.4,0.2-0.8,0.6-1.5,0.9c-0.7,0.2-1.3,0.2-1.9,0.1c-0.6-0.1-1.2-0.4-1.7-0.6c-0.5-0.2-1-0.5-1.5-0.8
				c-0.2-0.1-0.5-0.3-0.7-0.4c-0.2-0.1-0.4-0.1-0.6-0.2c-0.4,0-0.9,0.1-1.2,0.3c-0.2,0.1-0.3,0.3-0.4,0.4l-0.1,0.1l-0.1,0.2
				l-0.2,0.4L46,21.6l-0.6,1.5l-0.2,0.4c0,0.1-0.1,0.2-0.1,0.3c-0.1,0.2-0.1,0.4,0,0.6c0,0.2,0.1,0.4,0.2,0.6
				c0.1,0.2,0.3,0.5,0.3,0.8c0.2,0.6,0.3,1.2,0.1,1.9c-0.2,0.7-0.4,1.1-0.5,1.6c-0.1,0.5-0.2,1-0.3,1.5c-0.1,0.5-0.1,1-0.1,1.6
				c0,0.3,0,0.5,0,0.8c0,0.4-0.1,0.7-0.1,0.9l0,0.5l-0.5-0.2l-2.8-0.8l0.6-0.4c0,0.3,0,0.6,0,0.8c0,0.2,0.1,0.5,0.1,0.7l0.2,1.6
				l0.5,3.1c0.1,0.5,0.2,1.1,0.2,1.6c0,0.3,0.1,0.5,0.1,0.7c0.1,0.2,0.1,0.3,0.3,0.5c0.6,0.7,1.6,1.3,2.4,2l-0.5,0.1l0.9-2.4
				l0.2-0.4l0.3,0.3l2,1.8L49,44l-0.2,0.2c-0.2,0.3-0.5,0.6-0.7,0.9c-0.3,0.3-0.6,0.5-0.8,0.8c-0.4,0.6-0.4,1.4-0.3,2.1
				c0.1,0.3,0.3,0.6,0.6,0.7c0.4,0.1,0.7,0.3,1.1,0.3c0.7,0.2,1.5,0.1,2.2-0.1c0.3-0.1,0.7-0.3,1-0.6c0.1-0.1,0.3-0.3,0.5-0.4
				c0.3-0.1,0.4-0.1,0.6-0.1c0.2,0,0.4,0,0.6,0c0.2,0,0.4,0.1,0.6,0.2c0.4,0.2,0.7,0.4,1.1,0.6c0.7,0.4,1.3,0.9,1.8,1.6
				c0.5,0.6,1,1.2,1.4,1.9l-0.1,0l0.3-0.2l0,0.1L58.1,48.2z M58.1,48.2l0.7,3.7l0,0l0,0l-0.3,0.3l-0.1,0l-0.1-0.1
				c-0.5-0.6-1-1.2-1.5-1.8c-0.5-0.6-1.1-1.1-1.8-1.5c-0.3-0.2-0.7-0.4-1-0.5c-0.2-0.1-0.4-0.2-0.5-0.2c-0.2,0-0.4,0-0.5,0
				c-0.2,0-0.4,0.1-0.5,0.1c-0.1,0-0.3,0.2-0.4,0.3c-0.3,0.3-0.7,0.5-1,0.7c-0.8,0.3-1.6,0.4-2.4,0.2c-0.4-0.1-0.8-0.2-1.2-0.3
				c-0.5-0.2-0.8-0.6-0.9-1c-0.1-0.4-0.1-0.8-0.1-1.3c0-0.4,0.2-0.8,0.4-1.2c0.2-0.4,0.6-0.7,0.8-0.9c0.2-0.3,0.4-0.6,0.7-0.9l0,0.4
				l-2-1.8l0.5-0.1L46,44.7l-0.2,0.4l-0.4-0.3c-0.8-0.6-1.7-1.2-2.5-2c-0.2-0.2-0.4-0.5-0.5-0.8c-0.1-0.3-0.1-0.6-0.2-0.8
				c-0.1-0.5-0.1-1-0.2-1.6l-0.5-3.1l-0.3-1.6c0-0.3-0.1-0.5-0.1-0.8c0-0.3,0-0.6,0-0.8l0-0.6l0.6,0.2l2.8,0.8l-0.6,0.4
				c0-0.3,0.1-0.6,0.1-0.7c0-0.3,0-0.6,0-0.8c0-0.6,0-1.1,0.1-1.7c0.1-0.6,0.2-1.1,0.3-1.7c0.1-0.5,0.4-1.1,0.5-1.5
				c0.1-0.5,0-0.9-0.1-1.4c-0.1-0.2-0.2-0.4-0.3-0.7c-0.1-0.3-0.2-0.6-0.3-0.9c-0.1-0.7,0.2-1.4,0.4-1.8l0.6-1.5l0.6-1.5l0.2-0.4
				l0.1-0.2l0.1-0.2c0.2-0.3,0.4-0.6,0.7-0.8c0.5-0.4,1.2-0.6,1.9-0.5c0.3,0,0.7,0.1,1,0.3c0.3,0.2,0.5,0.3,0.7,0.4
				c0.5,0.3,0.9,0.5,1.4,0.7c0.5,0.2,1,0.4,1.4,0.5c0.5,0.1,1,0.1,1.4-0.1c0.4-0.2,0.8-0.5,1.3-0.8l0.8-0.5l-0.1,1l-0.3,2.7
				l-0.2,1.4c0,0.5-0.1,0.9-0.1,1.3c0,0.8,0.4,1.5,1,2c0.2,0.1,0.4,0.3,0.6,0.6c0.2,0.3,0.2,0.6,0.2,0.9c0,0.6-0.2,1-0.4,1.5
				c-0.7,1.8-2,3.2-3.3,4.5c-0.7,0.7-1.2,1.3-1.6,2.1c-0.4,0.8-0.7,1.6-0.9,2.5c0,0.2-0.1,0.5-0.1,0.6c0,0.2,0,0.4,0.1,0.6
				c0.1,0.4,0.3,0.9,0.4,1.3l0.8,2.6l0.4,1.3c0.1,0.5,0.2,0.8,0.4,1.2c0.2,0.3,0.5,0.6,0.9,0.8c0.4,0.2,0.8,0.4,1.1,0.5
				c0.4,0.1,0.7,0,1-0.2c0.2-0.1,0.3-0.2,0.4-0.4c0.2-0.2,0.4-0.4,0.6-0.5c0.9-0.6,2.1-0.4,2.9,0c1.8,0.6,3.4,1.5,5,2.4l0.6,0.3
				l-0.6,0.2l-1.6,0.5l0.1-0.4l3.5,4.8l0.2,0.2l-0.2,0.1c-1,0.3-2.1,0.2-3-0.3c-0.5-0.2-0.9-0.5-1.3-0.9c-0.2-0.2-0.3-0.4-0.5-0.6
				c-0.1-0.2-0.3-0.4-0.4-0.7c-0.1-0.2-0.2-0.5-0.3-0.7c-0.1-0.2-0.2-0.4-0.4-0.6c-0.3-0.4-0.6-0.7-1.1-1C60,48.9,59,48.5,58.1,48.2
				z"/>
		</g>
	</g>
	<g>
		<path class="st0" d="M80.6,96.3c-0.8-2.3-0.8-4.6-2.9-6.2c-0.4,0.5-0.9,0.9-1.2,1.5c-0.5,0.8-0.8,1.6-0.1,2.5
			c0.2,0.2,0.3,0.5,0.4,0.8c0.4,0.8,1.3,1.8,1.1,2.5c-0.3,1.2-1.2,2.2-2,3.4c-0.6-0.8-1-1.4-1.5-2c-0.3-0.3-0.7-0.6-1.1-0.6
			c-1.2,0.1-2.2-0.3-3.2-1.1c-0.2-0.2-0.5-0.3-0.7-0.4c-2.7-1.7-2.7-1.8-2.4-4.9c0.1-0.7,0.8-1.4,1.4-2.3c-0.6-0.6-1.2-1.4-2.1-1.9
			c-1.2-0.7-2.3-0.4-3.3,0.8c-0.6,0.7-1.6,1.1-2.6,1.8c-0.3-0.8-0.4-1.4-0.6-1.9c-0.2-0.4-0.5-1-0.7-1c-0.6,0-1.4,0-1.7,0.8
			c-0.6,1.5-1.4,2.9-2.1,4.3c-0.1,0.2-0.2,0.3-0.6,0.5c-0.1-0.9-0.3-1.7-0.3-2.6c0-0.9,0.1-1.8,0.3-2.7c0.3-1.2,1.2-1.9,2.2-2.4
			c0.4-0.2,0.9-0.3,1.3-0.4c0.9-0.2,1.5-0.7,1.9-1.5c0.7-1.4,2.2-1.6,3.4-2.3c0.8,0.6,1.6,1.2,2.3,1.9c0.3,0.3,0.4,0.9,0.6,1.4
			c0.3-0.2,0.5-0.3,0.6-0.5c0.8-1.1,1.9-1.5,3.3-1.5c0.3,0,0.7-0.3,0.9-0.6c0.4-0.8,0.7-1.6,1-2.4c0.3,0.1,0.4,0.1,0.6,0.2
			c1.4,0.6,1.7,0.5,2.7-0.7c0.2-0.2,0.2-0.6,0.2-0.9c-0.1-1.1-0.2-2.2-0.3-3.5c2.6,1.4,4.6,3.2,6,5.6c0.2,0.3,0.2,0.9,0.1,1.3
			c-0.2,1.8,0.2,3.5,1.1,5.2c0.9,1.6,0.8,3.3,0,5C82.3,92.8,81.5,94.4,80.6,96.3z M60.8,89.8c0.8-0.6,1.7-0.9,2.2-1.6
			c1-1.1,1.9-1.4,3.4-1c1,0.3,1.4,1.1,2,1.8c0.6,0.6,0.6,1.1-0.1,1.6c-0.8,0.6-1.1,1.4-1,2.4c0.1,0.4-0.1,0.8,0,1.2
			c0.1,0.5,0.3,1,0.7,1.3c1.1,0.8,2.2,1.5,3.3,2.2c0.3,0.2,0.7,0.4,1,0.4c1.6-0.3,2.5,0.6,3.2,1.8c0.1,0.2,0.2,0.3,0.3,0.5
			c2.1-2.5,2.2-2.7,0.8-5.3c-0.2-0.3-0.3-0.6-0.5-0.9c-0.8-1-0.3-1.9,0.3-2.8c0.4-0.6,1-1.1,1.4-1.7c1.9,1.5,2.3,3.6,2.9,5.5
			c0.8-1.5,1.6-2.9,2.2-4.4c0.7-1.4,0.7-2.9,0-4.2c-1-1.8-1.4-3.6-1.2-5.6c0-0.5-0.3-1.2-0.5-1.7c-0.4-0.6-0.8-1.3-1.3-1.8
			c-1.1-1-2.3-1.9-3.5-2.8c-0.2,0.7-0.2,1.2-0.1,1.6c0,0.5,0.1,0.9,0.1,1.4c0,0.3,0,0.6-0.2,0.9c-0.9,1.2-1.7,1.5-3.1,0.9
			c-0.1,0-0.2,0-0.4-0.1c-0.3,0.7-0.5,1.5-0.9,2.1c-0.2,0.3-0.7,0.8-1,0.8c-1.6-0.1-2.7,0.7-3.6,1.8c-0.1,0.1-0.3,0.2-0.5,0.4
			c-0.2-0.7-0.3-1.3-0.7-1.8c-0.6-0.7-1.4-1.7-2-1.6c-1,0.2-2.3,0.8-2.9,1.6c-0.9,1.2-1.9,1.9-3.3,2.3c-1.5,0.5-2.6,1.4-2.7,3.1
			c0,0.6-0.2,1.3-0.2,1.9c0,0.6,0.1,1.2,0.2,1.8c0.8-1.2,1.5-2.3,1.9-3.5c0.4-1,1-1.4,2-1.6c0.6-0.1,1,0,1.1,0.7
			C60.3,88.3,60.5,89,60.8,89.8z"/>
		<g>
			<path class="st1" d="M80.6,96.3c-0.4-1.1-0.6-2.3-1-3.3c-0.2-0.5-0.5-1.1-0.8-1.5c-0.3-0.5-0.7-0.9-1.2-1.2l0.2,0
				c-0.3,0.4-0.7,0.8-1,1.2c-0.3,0.4-0.5,0.9-0.6,1.3c-0.1,0.5,0,0.9,0.3,1.3c0.2,0.2,0.3,0.5,0.4,0.7c0.1,0.2,0.2,0.4,0.4,0.7
				c0.3,0.4,0.6,0.9,0.8,1.4c0.1,0.3,0.2,0.6,0.1,0.9c-0.1,0.3-0.2,0.5-0.3,0.8c-0.5,1-1.1,1.8-1.6,2.6l-0.2,0.4l-0.3-0.3
				c-0.4-0.6-0.8-1.1-1.3-1.7c-0.2-0.3-0.4-0.5-0.7-0.6c-0.1-0.1-0.3-0.1-0.3-0.1c-0.1,0-0.3,0-0.5,0c-0.8,0-1.5-0.2-2.2-0.6
				c-0.3-0.2-0.6-0.4-0.9-0.6l-0.9-0.6c-0.6-0.4-1.2-0.7-1.8-1.3c-0.3-0.3-0.5-0.7-0.5-1.1c-0.1-0.4-0.1-0.8,0-1.1
				c0-0.4,0.1-0.7,0.1-1.1l0-0.3l0-0.2l0-0.1c0.1-0.3,0.1-0.4,0.2-0.6c0.4-0.7,0.9-1.2,1.2-1.7l0.1,0.5c-0.6-0.6-1.1-1.2-1.7-1.6
				c-0.2-0.1-0.3-0.2-0.5-0.3c-0.2-0.1-0.3-0.1-0.5-0.2c-0.3-0.1-0.6-0.1-0.9,0c-0.3,0.1-0.6,0.3-0.8,0.6c-0.1,0.1-0.2,0.2-0.4,0.4
				c-0.2,0.2-0.3,0.3-0.5,0.5c-0.7,0.5-1.4,0.9-2.1,1.3l-0.5,0.3l-0.2-0.6L59.8,89c-0.1-0.4-0.3-0.8-0.5-1.1c0-0.1-0.1-0.1-0.1-0.2
				c0,0,0,0,0.1,0c0.1,0-0.1,0-0.1,0c-0.2,0-0.4,0-0.6,0c-0.2,0-0.3,0.1-0.4,0.2c-0.1,0.1-0.1,0.2-0.3,0.4l-1.2,2.4l-0.6,1.2
				c-0.1,0.2-0.2,0.4-0.3,0.7c-0.2,0.3-0.5,0.5-0.7,0.6l-0.6,0.3L54.5,93c-0.1-0.7-0.2-1.4-0.3-2.1c-0.1-0.8,0-1.5,0.1-2.2
				c0-0.4,0.1-0.7,0.2-1.1c0.1-0.4,0.2-0.8,0.4-1.1c0.4-0.7,1.1-1.2,1.8-1.5c0.3-0.2,0.7-0.4,1.1-0.5c0.4-0.1,0.7-0.2,1-0.3
				c0.6-0.2,1-0.6,1.3-1.1c0.2-0.3,0.4-0.7,0.7-1c0.3-0.3,0.6-0.5,1-0.7c0.7-0.4,1.3-0.6,1.9-0.9l0.3-0.2l0.2,0.2
				c0.6,0.5,1.2,0.9,1.8,1.4c0.2,0.1,0.3,0.3,0.4,0.4l0.1,0.1c0,0,0.1,0.1,0.1,0.1c0.1,0.1,0.1,0.2,0.2,0.3c0.2,0.4,0.2,0.8,0.4,1.1
				l-0.7-0.2l0.4-0.3c0.1,0,0.1-0.1,0.1-0.1l0.2-0.2c0.3-0.3,0.5-0.6,0.9-0.8c0.7-0.4,1.4-0.6,2.2-0.7c0.2,0,0.4,0,0.4,0
				c0.1,0,0.2-0.1,0.3-0.2c0.1-0.1,0.2-0.2,0.2-0.3l0.2-0.4c0.3-0.6,0.5-1.3,0.8-1.9l0.1-0.4l0.4,0.1c0.3,0.1,0.7,0.2,1,0.4
				c0.3,0.1,0.6,0.2,0.8,0.2c0.2,0,0.4-0.2,0.6-0.4c0.1-0.1,0.2-0.2,0.3-0.4c0-0.1,0.1-0.1,0.1-0.2c0,0,0-0.1,0.1-0.1
				c0-0.1,0.1-0.3,0.1-0.4c0-0.1,0-0.3,0-0.5l-0.1-1l-0.1-2l0-0.6L76,74c1.9,1.1,3.7,2.4,5,4.2c0.3,0.4,0.6,0.9,0.9,1.4
				c0.1,0.2,0.3,0.6,0.3,0.9c0,0.3,0,0.6,0,0.8c-0.1,1,0,2.1,0.3,3.1c0.1,0.5,0.3,1,0.5,1.5c0.2,0.5,0.5,1,0.6,1.5
				c0.3,1.1,0.2,2.2-0.2,3.2c-0.2,0.5-0.4,1-0.7,1.5l-0.7,1.4L80.6,96.3z M80.6,96.3l1.3-2.9l0.7-1.5c0.2-0.5,0.5-1,0.6-1.5
				c0.3-1,0.4-2.1,0.1-3.1c-0.1-0.5-0.4-0.9-0.7-1.4c-0.2-0.5-0.5-1-0.6-1.5c-0.3-1-0.5-2.2-0.4-3.3c0-0.5,0.1-1-0.2-1.4
				c-0.3-0.4-0.6-0.9-0.9-1.3c-1.3-1.6-3-2.9-4.9-3.9l0.5-0.3l0.2,2l0.1,1c0,0.2,0,0.3,0,0.5c0,0.2,0,0.4-0.1,0.6
				c0,0.1-0.1,0.2-0.2,0.3c-0.1,0.1-0.1,0.1-0.2,0.2c-0.1,0.1-0.2,0.3-0.4,0.4c-0.2,0.3-0.6,0.6-1.1,0.6c-0.5,0-0.8-0.1-1.2-0.2
				c-0.3-0.1-0.6-0.2-1-0.3l0.5-0.2c-0.3,0.6-0.5,1.3-0.8,1.9L72,81.8c-0.1,0.2-0.3,0.4-0.4,0.5c-0.2,0.1-0.3,0.3-0.6,0.3
				c-0.3,0.1-0.4,0-0.6,0c-0.6,0-1.2,0.2-1.7,0.5c-0.2,0.2-0.5,0.4-0.7,0.6L67.8,84c-0.1,0.1-0.2,0.2-0.3,0.3l-0.4,0.3l-0.5,0.3
				l-0.2-0.5c-0.2-0.4-0.2-0.8-0.4-1.1c0-0.1-0.1-0.1-0.1-0.2c0,0,0,0-0.1-0.1L65.8,83c-0.1-0.1-0.3-0.2-0.4-0.4
				c-0.6-0.5-1.2-0.9-1.8-1.4l0.5,0c-0.7,0.4-1.3,0.6-1.9,0.9c-0.3,0.2-0.5,0.3-0.8,0.5c-0.2,0.2-0.4,0.4-0.5,0.7
				c-0.4,0.7-1.1,1.3-1.8,1.6c-0.4,0.1-0.7,0.2-1,0.3c-0.3,0.1-0.6,0.2-0.9,0.4c-0.6,0.3-1.1,0.7-1.4,1.2c-0.2,0.3-0.2,0.5-0.3,0.8
				c-0.1,0.3-0.1,0.7-0.2,1c-0.1,0.7-0.1,1.4-0.1,2c0.1,0.7,0.2,1.4,0.3,2.1l-0.7-0.4c0.2-0.1,0.3-0.2,0.3-0.2l0.3-0.6l0.6-1.2
				l1.2-2.4c0.1-0.2,0.2-0.5,0.5-0.7c0.2-0.2,0.5-0.4,0.8-0.4c0.3-0.1,0.5-0.1,0.8-0.1c0.1,0,0.1,0,0.2,0c0.2,0,0.3,0.1,0.4,0.2
				c0.2,0.1,0.2,0.2,0.3,0.4c0.3,0.4,0.5,0.9,0.6,1.3l0.4,1.3l-0.7-0.2c0.7-0.5,1.4-0.8,2-1.2c0.2-0.1,0.3-0.2,0.4-0.3
				c0.1-0.1,0.3-0.3,0.4-0.5c0.3-0.3,0.7-0.6,1.2-0.8c0.5-0.2,1-0.2,1.4-0.1c0.2,0.1,0.5,0.2,0.7,0.3c0.2,0.1,0.4,0.2,0.6,0.4
				c0.7,0.5,1.2,1.2,1.8,1.7l0.3,0.2l-0.2,0.3c-0.4,0.6-0.9,1.2-1.2,1.7c-0.1,0.1-0.1,0.3-0.2,0.4l0,0.1l0,0.1l0,0.3
				c0,0.3-0.1,0.7-0.1,1c0,0.3,0,0.7,0,1c0,0.3,0.2,0.5,0.4,0.8c0.4,0.4,1,0.8,1.6,1.2l0.9,0.6c0.3,0.2,0.5,0.4,0.8,0.6
				c0.6,0.3,1.2,0.5,1.8,0.6c0.2,0,0.3,0,0.5,0c0.3,0,0.5,0.1,0.7,0.2c0.4,0.2,0.6,0.5,0.9,0.8c0.5,0.6,0.9,1.1,1.3,1.7l-0.5,0
				c0.6-0.9,1.2-1.7,1.7-2.6c0.1-0.2,0.2-0.4,0.3-0.7c0.1-0.2,0-0.4,0-0.6c-0.2-0.4-0.4-0.9-0.7-1.3c-0.1-0.2-0.3-0.5-0.4-0.7
				c-0.1-0.2-0.2-0.5-0.3-0.6c-0.4-0.4-0.5-1.1-0.3-1.6c0.3-1.1,1.1-1.8,1.7-2.6l0.1-0.1l0.1,0.1c0.5,0.4,0.9,0.8,1.2,1.3
				c0.3,0.5,0.6,1,0.7,1.6C80.1,94,80.2,95.2,80.6,96.3z"/>
			<path class="st1" d="M60.8,89.8c0.4-0.3,0.9-0.6,1.4-0.9c0.2-0.2,0.4-0.3,0.6-0.5c0.2-0.2,0.4-0.4,0.6-0.6
				c0.4-0.4,0.9-0.7,1.5-0.8c0.6-0.1,1.1,0,1.7,0.2c0.5,0.2,1,0.6,1.4,1c0.2,0.2,0.3,0.4,0.5,0.6c0.2,0.2,0.4,0.4,0.5,0.7
				c0.1,0.3,0.1,0.7-0.1,0.9c-0.2,0.3-0.5,0.4-0.6,0.6c-0.4,0.3-0.6,0.8-0.6,1.3c0,0.3,0,0.5,0,0.8c0,0.3,0,0.6,0,0.8
				c0,0.4,0.3,1,0.6,1.3c0,0,0.1,0.1,0.1,0.1l0.2,0.1l0.3,0.2l0.7,0.4l1.4,0.9c0.5,0.3,0.9,0.6,1.3,0.8c0.1,0,0.1,0,0.3,0
				c0.1,0,0.3,0,0.4-0.1c0.3,0,0.6,0,0.9,0.1c0.6,0.2,1.1,0.6,1.5,1c0.4,0.4,0.7,0.9,0.9,1.4l-0.6,0c0.3-0.4,0.7-0.8,1-1.2
				c0.3-0.4,0.6-0.8,0.6-1.2c0.1-0.4-0.1-0.8-0.3-1.3c-0.2-0.4-0.4-0.9-0.7-1.4c-0.1-0.3-0.2-0.5-0.3-0.6l-0.2-0.3
				c-0.1-0.1-0.2-0.3-0.2-0.4c-0.3-0.6-0.1-1.3,0.1-1.8c0.1-0.3,0.3-0.5,0.4-0.7c0.1-0.2,0.3-0.5,0.5-0.7c0.4-0.4,0.7-0.8,1-1.1
				l0.3-0.3l0.3,0.3c0.9,0.7,1.6,1.7,2,2.7c0.5,1,0.7,2.1,1.1,3.1L80.3,95l1.3-2.6l0.7-1.3c0.2-0.4,0.4-0.8,0.5-1.3
				c0.2-0.9,0.2-1.8-0.1-2.6c-0.2-0.4-0.5-0.8-0.6-1.3c-0.2-0.5-0.4-1-0.5-1.5c-0.3-1-0.4-2-0.3-3.1c0-0.3,0-0.5,0-0.6
				c0-0.2-0.1-0.4-0.2-0.6c-0.2-0.4-0.4-0.8-0.7-1.2c-0.2-0.4-0.5-0.8-0.8-1L78.3,77l-2.3-1.9l0.8-0.2c-0.1,0.3-0.1,0.6-0.1,0.9
				c0,0.1,0,0.3,0,0.4l0,0.5l0.1,1c0,0.2,0,0.4,0,0.6c0,0.2-0.1,0.4-0.3,0.7c-0.2,0.3-0.4,0.6-0.7,0.8c-0.3,0.2-0.7,0.4-1.1,0.5
				c-0.4,0.1-0.8,0-1.2-0.1c-0.2,0-0.3-0.1-0.5-0.2c-0.1,0-0.3,0-0.4-0.1l0.5-0.3c-0.3,0.6-0.5,1.3-0.8,2c-0.1,0.2-0.2,0.4-0.3,0.5
				c-0.1,0.2-0.3,0.3-0.5,0.4c-0.1,0.1-0.2,0.1-0.4,0.2c-0.1,0-0.2,0-0.3,0l-0.1,0c-0.2,0-0.3,0-0.5,0c-0.6,0-1.2,0.3-1.7,0.7
				c-0.3,0.2-0.5,0.4-0.7,0.7l-0.2,0.2l-0.1,0.1c0,0-0.1,0.1-0.2,0.2c-0.2,0.2-0.3,0.2-0.5,0.3l-0.4,0.3l-0.2-0.5
				c-0.2-0.4-0.2-0.9-0.4-1.2c-0.1-0.2-0.1-0.3-0.2-0.4l-0.4-0.5c-0.3-0.3-0.5-0.6-0.8-0.8c-0.1-0.1-0.3-0.2-0.4-0.2
				c0,0-0.1,0-0.2,0l-0.3,0.1c-0.7,0.2-1.5,0.6-2,1.1c-0.2,0.2-0.5,0.7-0.8,1c-0.3,0.3-0.7,0.6-1,0.8c-0.4,0.2-0.8,0.4-1.2,0.6
				c-0.4,0.2-0.8,0.3-1.2,0.4c-0.7,0.3-1.4,0.8-1.7,1.5c-0.2,0.3-0.3,0.7-0.3,1.1c0,0.4-0.1,0.9-0.2,1.3c-0.1,0.4-0.1,0.8,0,1.2
				c0,0.4,0.1,0.8,0.2,1.2L55,92c0.5-0.7,1-1.4,1.4-2.2c0.2-0.4,0.4-0.8,0.6-1.2c0.2-0.4,0.4-0.8,0.7-1.1c0.3-0.3,0.8-0.5,1.2-0.5
				c0.2,0,0.4-0.1,0.7,0c0.2,0,0.5,0.2,0.6,0.4c0.1,0.2,0.1,0.4,0.2,0.6c0,0.2,0.1,0.4,0.2,0.6L60.8,89.8z M60.8,89.8l-0.4-1.2
				c-0.1-0.2-0.1-0.4-0.2-0.6c-0.1-0.2-0.1-0.4-0.2-0.6c-0.1-0.2-0.3-0.3-0.5-0.3c-0.2,0-0.4,0-0.6,0.1c-0.4,0.1-0.8,0.2-1.1,0.5
				c-0.3,0.3-0.5,0.7-0.6,1.1c-0.2,0.4-0.3,0.8-0.5,1.2c-0.4,0.8-0.8,1.5-1.3,2.3L55,92.5l-0.1-0.5c-0.1-0.4-0.2-0.8-0.2-1.2
				c-0.1-0.4,0-0.9,0-1.3c0.1-0.4,0.1-0.8,0.1-1.2c0-0.4,0.1-0.9,0.3-1.3c0.4-0.9,1.1-1.5,2-1.8c0.4-0.2,0.8-0.3,1.2-0.4
				c0.4-0.2,0.7-0.3,1.1-0.6c0.3-0.2,0.6-0.5,0.9-0.8c0.3-0.3,0.5-0.6,0.8-1c0.6-0.7,1.4-1.1,2.3-1.4c0.1,0,0.2-0.1,0.3-0.1
				c0.1,0,0.2,0,0.4,0c0.3,0,0.6,0.2,0.8,0.3c0.4,0.3,0.7,0.6,1,0.9l0.4,0.5c0.2,0.2,0.3,0.4,0.4,0.7c0.2,0.4,0.3,0.8,0.4,1.2
				l-0.6-0.2c0.2-0.1,0.3-0.2,0.4-0.3c0,0,0,0,0,0l0.1-0.1l0.2-0.2c0.2-0.3,0.5-0.5,0.8-0.8c0.6-0.5,1.4-0.8,2.2-0.9
				c0.2,0,0.4,0,0.6,0l0.1,0c0,0,0,0,0,0c0,0,0.1,0,0.1-0.1c0.1-0.1,0.2-0.2,0.3-0.3c0.1-0.1,0.1-0.2,0.2-0.4
				c0.3-0.6,0.5-1.3,0.8-1.9l0.1-0.3l0.4,0.1c0.2,0,0.3,0,0.5,0.1c0.1,0.1,0.3,0.1,0.4,0.1c0.3,0.1,0.6,0.1,0.8,0.1
				c0.2,0,0.5-0.1,0.7-0.3c0.2-0.2,0.4-0.4,0.6-0.7c0.1-0.1,0.1-0.4,0.1-0.7l-0.1-1l0-0.5c0-0.2,0-0.4,0-0.5c0-0.4,0.1-0.7,0.2-1.1
				l0.2-0.7l0.6,0.5l2.3,1.9l1.1,0.9c0.4,0.4,0.7,0.8,1,1.2c0.3,0.4,0.5,0.9,0.8,1.4c0.1,0.2,0.2,0.5,0.3,0.8c0,0.1,0,0.2,0,0.2
				c0,0.1,0,0.2,0,0.2l0,0.4c0,0.9,0.1,1.9,0.3,2.8c0.1,0.4,0.3,0.9,0.5,1.3c0.2,0.4,0.4,0.8,0.6,1.3c0.4,1,0.5,2.2,0.2,3.2
				c-0.1,0.5-0.4,1-0.6,1.4l-0.7,1.3l-1.4,2.6l-0.5,1l-0.3-1.1c-0.3-1-0.6-2-1-3c-0.4-0.9-1-1.7-1.8-2.4l0.6,0
				c-0.4,0.4-0.7,0.8-1,1.1c-0.3,0.3-0.6,0.8-0.8,1.2c-0.2,0.4-0.3,0.8-0.1,1.2c0,0.1,0.1,0.2,0.1,0.3l0.2,0.3
				c0.2,0.3,0.3,0.5,0.4,0.7c0.2,0.5,0.5,0.9,0.7,1.4c0.2,0.5,0.4,1.1,0.3,1.7c-0.1,0.3-0.2,0.6-0.3,0.8c-0.1,0.2-0.3,0.5-0.5,0.7
				c-0.3,0.4-0.7,0.8-1,1.2l-0.3,0.4l-0.3-0.4c-0.3-0.5-0.5-0.9-0.9-1.3c-0.3-0.4-0.7-0.7-1.2-0.8c-0.2-0.1-0.5-0.1-0.7-0.1
				c-0.1,0-0.2,0-0.4,0c-0.1,0-0.4,0-0.5,0c-0.6-0.2-1-0.6-1.5-0.9L69,96.5l-0.7-0.5L68,95.9l-0.2-0.1c-0.1-0.1-0.1-0.1-0.2-0.2
				c-0.2-0.2-0.3-0.5-0.5-0.8c-0.1-0.3-0.2-0.5-0.2-0.9c0-0.3,0-0.6,0-0.8c0-0.3,0-0.6,0-0.9c0.1-0.6,0.4-1.2,0.8-1.5
				c0.2-0.2,0.5-0.3,0.6-0.5c0.2-0.2,0.2-0.4,0.1-0.6c-0.1-0.2-0.3-0.4-0.4-0.6c-0.2-0.2-0.3-0.4-0.5-0.7c-0.3-0.4-0.7-0.8-1.2-0.9
				c-0.5-0.2-1-0.3-1.6-0.2c-0.5,0.1-1,0.3-1.4,0.7c-0.2,0.2-0.4,0.4-0.6,0.6c-0.2,0.2-0.4,0.3-0.7,0.5
				C61.7,89.3,61.3,89.5,60.8,89.8z"/>
		</g>
	</g>
	<g>
		<path class="st0" d="M54.3,69.8c0-3,1.5-5.8-0.1-8.6c0.1-0.1,0.1-0.2,0.2-0.2c1.1,0.3,2.2,0.5,3.3,0.8c0.1,0,0.2,0.1,0.2,0.2
			c0.2,1.7,1.5,1.2,2.5,1.2c0.5,0,1.1,0,1.8,0c-0.2,1.2-0.5,2.3-0.7,3.4c0.6,0.1,1.2,0.2,1.7,0.3c0.8,0,1.1,0.3,0.8,1.1
			c-0.2,0.4-0.2,0.9-0.3,1.4c2-0.5,2.6-2.1,3.2-3.7c0.1,0,0.2,0.1,0.3,0.1c0,1.2,0,2.4,0,3.6c0,2,0,2,2,2.2c0.8,0.1,1.1,0.3,1.1,1.2
			c0,1.9,0,1.8-1.8,2.3c-1.1,0.3-1.8,0.1-2.4-0.9c-0.1-0.3-0.4-0.4-0.7-0.8c-0.8,1.1-1.4,2.6-3.2,1c0.3,1.9,0.9,3.7-1.4,4.6
			c-1.2-1.5-2.4-3.2-3.7-4.9c0.4-0.3,0.6-0.5,1-0.7c1.4-0.5,1.5-1.7,1.3-2.9C59.4,69.8,58,69,57,69.2C56.2,69.4,55.3,69.6,54.3,69.8
			z M65.5,73c0.2,0.3,0.4,0.4,0.5,0.6c0.8,1.6,2,1.5,3.4,1c0.1,0,0.2,0,0.3-0.1c0.1-0.1,0.3-0.2,0.3-0.3c0.5-1.1-0.1-2.1-1.3-2.3
			c-1.7-0.3-1.7-0.3-1.7-2c0-0.9,0-1.8,0-2.7c-0.1,0-0.2-0.1-0.3-0.1c-0.4,1.8-1.9,2.3-3.3,3.3c0.2-1.1,0.3-2,0.5-2.9
			c-0.7-0.1-1.2-0.2-1.7-0.3c-0.8,0-1.1-0.3-0.8-1.1c0.3-0.8,0.3-1.6,0.5-2.5c-0.9,0-1.7,0-2.5,0c-0.8,0-1.5,0-1.6-1
			c0-0.2-0.2-0.4-0.4-0.4c-0.9-0.2-1.8-0.5-3-0.7c1.6,2.9,0.1,5.5,0.2,8.1c0.1,0,0.2,0,0.2,0c0.8-0.2,1.6-0.4,2.4-0.5
			c0.9-0.2,2.4,0.8,2.5,1.6c0.1,1.4,0.2,2.8-1.5,3.4c-0.2,0.1-0.3,0.2-0.6,0.4c1.1,1.5,2.3,3,3.3,4.5c2.5-1,0.9-3,1.1-4.6
			c0.8,0.3,1.5,0.8,2,0.7C64.7,74.6,65,73.7,65.5,73z"/>
		<g>
			<path class="st1" d="M54.3,69.8c0-1.5,0.3-2.9,0.4-4.4c0.1-0.7,0.1-1.4,0-2.1c-0.1-0.4-0.1-0.7-0.3-1c-0.1-0.3-0.3-0.6-0.4-1
				l-0.1-0.1l0.1-0.1l0.2-0.2l0.1-0.1l0.1,0l2.1,0.5l1.1,0.2l0.1,0c0,0,0.2,0.1,0.2,0.1c0.1,0,0.1,0.1,0.2,0.2c0,0,0.1,0.1,0.1,0.2
				l0,0.1c0,0.2,0.1,0.3,0.1,0.5c0.1,0.3,0.3,0.4,0.6,0.4c0.3,0,0.6,0,1,0c0.4,0,0.7,0,1.1,0l1.1,0l0.4,0l-0.1,0.5l-0.7,3.4
				l-0.3-0.5l1.2,0.2l0.3,0c0.1,0,0.2,0,0.3,0c0.2,0,0.5,0,0.8,0.2c0.1,0.1,0.3,0.3,0.4,0.4c0.1,0.2,0.1,0.4,0.1,0.5
				c0,0.3-0.1,0.5-0.2,0.7c-0.1,0.3-0.1,0.8-0.2,1.2l-0.6-0.5c0.7-0.2,1.4-0.6,1.8-1.2c0.5-0.6,0.7-1.4,1-2.2l0.1-0.4l0.4,0.1
				l0.3,0.1l0.3,0.1l0,0.4l0,4.1c0,0.3,0,0.7,0.1,0.9c0,0.1,0,0.1,0.1,0.1c0,0,0.2,0.1,0.3,0.1c0.3,0.1,0.6,0.1,1,0.1
				c0.3,0,0.8,0,1.3,0.5c0.4,0.5,0.4,1,0.4,1.3c0,0.3,0,0.7-0.1,1.1c0,0.2-0.1,0.4-0.2,0.7c-0.1,0.3-0.4,0.4-0.6,0.5
				c-0.4,0.2-0.7,0.2-1.1,0.3c-0.3,0.1-0.7,0.2-1.1,0.2c-0.4,0-0.9-0.1-1.2-0.3c-0.4-0.2-0.6-0.6-0.8-0.9c-0.1-0.2-0.4-0.4-0.6-0.7
				l0.7,0l-0.6,0.9c-0.2,0.3-0.5,0.6-0.9,0.9c-0.2,0.1-0.5,0.2-0.7,0.2c-0.2,0-0.5-0.1-0.7-0.1c-0.4-0.2-0.7-0.4-1-0.7l0.7-0.4
				c0.1,0.9,0.4,1.8,0.3,2.8c0,0.3-0.1,0.5-0.2,0.8c-0.1,0.2-0.3,0.5-0.5,0.7c-0.2,0.2-0.4,0.3-0.6,0.5c-0.2,0.1-0.4,0.2-0.7,0.3
				l-0.2,0.1l-0.2-0.2l-3.6-5l-0.2-0.2l0.2-0.2c0.2-0.1,0.3-0.3,0.5-0.4c0.2-0.1,0.5-0.3,0.6-0.3c0.2-0.1,0.4-0.2,0.5-0.3
				c0.2-0.1,0.3-0.3,0.4-0.4c0.2-0.3,0.2-0.8,0.3-1.2c0-0.2,0-0.4,0-0.7c0-0.2-0.1-0.3-0.2-0.5c-0.3-0.3-0.6-0.6-1-0.7
				c-0.4-0.2-0.8-0.2-1.2-0.1L54.3,69.8z M54.3,69.8l2.6-0.7c0.2-0.1,0.5-0.1,0.7-0.1c0.2,0,0.5,0.1,0.7,0.1
				c0.4,0.2,0.8,0.4,1.2,0.8c0.2,0.2,0.3,0.4,0.3,0.7c0,0.2,0,0.4,0.1,0.7c0,0.5,0,0.9-0.2,1.4c-0.1,0.2-0.3,0.4-0.5,0.6
				c-0.2,0.2-0.4,0.3-0.6,0.4c-0.2,0.1-0.4,0.2-0.5,0.3c-0.2,0.1-0.3,0.3-0.5,0.4l0.1-0.4l3.8,4.9l-0.4-0.1c0.2-0.1,0.4-0.2,0.5-0.3
				c0.2-0.1,0.3-0.2,0.5-0.4c0.3-0.3,0.4-0.6,0.5-1c0.1-0.8-0.2-1.7-0.3-2.6l-0.2-1.1l0.9,0.7c0.2,0.2,0.5,0.4,0.7,0.5
				c0.3,0.1,0.4,0.1,0.6,0c0.2-0.1,0.4-0.3,0.6-0.6l0.6-0.9l0.3-0.5l0.4,0.5c0.2,0.2,0.5,0.4,0.7,0.8c0.1,0.3,0.3,0.5,0.5,0.6
				c0.2,0.1,0.4,0.2,0.7,0.2c0.3,0,0.5-0.1,0.9-0.2c0.3-0.1,0.7-0.2,0.9-0.3c0.1-0.1,0.1-0.1,0.2-0.1c0,0,0.1-0.2,0.1-0.3
				c0-0.3,0-0.6,0-1c0-0.3,0-0.6-0.1-0.6c-0.1-0.1-0.3-0.1-0.6-0.2c-0.3,0-0.7,0-1.1-0.1c-0.2,0-0.4-0.1-0.6-0.2
				c-0.2-0.1-0.4-0.4-0.5-0.7c-0.1-0.5-0.1-0.8-0.1-1.2l0-4.1l0.4,0.5l-0.3-0.1l0.6-0.3c-0.3,0.8-0.6,1.6-1.2,2.4
				c-0.3,0.4-0.6,0.7-1,1c-0.4,0.3-0.9,0.5-1.3,0.6l-0.7,0.2l0.1-0.7c0.1-0.4,0.1-0.8,0.2-1.3c0.1-0.3,0.1-0.4,0.1-0.5
				c0-0.1,0-0.1,0-0.1c-0.1,0-0.2-0.1-0.4-0.1c-0.1,0-0.2,0-0.3,0l-0.3,0l-1.3-0.2l-0.4-0.1l0.1-0.4l0.8-3.4l0.4,0.4l-1.1,0
				c-0.4,0-0.7,0-1.1,0c-0.4,0-0.7,0-1.2,0c-0.2,0-0.4-0.1-0.6-0.3c-0.2-0.2-0.3-0.3-0.4-0.6c-0.1-0.2-0.1-0.4-0.2-0.6l0-0.1
				c0,0,0,0.1,0,0c0,0,0,0,0,0c0,0,0,0,0,0l-0.1,0l-1.1-0.3l-2.1-0.6l0.2-0.1l-0.2,0.2l0-0.3c0.2,0.3,0.3,0.7,0.4,1
				c0.1,0.4,0.2,0.7,0.2,1.1c0.1,0.7,0,1.5-0.1,2.2C54.7,67,54.3,68.4,54.3,69.8z"/>
			<path class="st1" d="M65.5,73c0.2,0.2,0.5,0.4,0.6,0.7c0.2,0.3,0.3,0.5,0.6,0.7c0.5,0.4,1.1,0.5,1.7,0.4c0.3,0,0.6-0.1,0.9-0.2
				c0.1-0.1,0.4-0.1,0.4-0.1c0.1-0.1,0.2-0.2,0.3-0.2c0.1-0.2,0.2-0.5,0.2-0.8c0-0.3-0.1-0.5-0.3-0.7c-0.2-0.2-0.4-0.4-0.6-0.4
				c-0.2-0.1-0.5-0.1-0.9-0.2c-0.3-0.1-0.6-0.1-1-0.3c-0.2-0.1-0.3-0.3-0.4-0.5c-0.1-0.2-0.1-0.4-0.1-0.5c0-0.6,0-1.2,0-1.8l0-1.8
				l0.2,0.3l-0.3-0.1l0.4-0.2c-0.1,0.4-0.3,0.9-0.5,1.2c-0.2,0.4-0.6,0.7-0.9,1c-0.7,0.5-1.4,0.9-2,1.4l-0.8,0.5l0.2-1l0.5-2.9
				l0.4,0.5l-1.5-0.2c-0.2,0-0.5,0-0.9-0.1c-0.2-0.1-0.4-0.2-0.5-0.4c-0.2-0.2-0.2-0.5-0.2-0.6c0-0.2,0-0.3,0.1-0.5l0.1-0.4
				c0.1-0.2,0.1-0.5,0.2-0.7l0.3-1.5l0.5,0.6l-2.1,0c-0.3,0-0.7,0-1.1,0c-0.2,0-0.5-0.1-0.7-0.2c-0.2-0.1-0.4-0.4-0.5-0.6
				c-0.1-0.2-0.1-0.5-0.2-0.6c0,0.1-0.1-0.1,0,0c0,0,0,0,0,0l0,0l-0.1,0l-0.1,0l-0.3-0.1l-0.5-0.1l-2-0.5l0.6-0.7
				c0.2,0.3,0.3,0.7,0.4,1c0.1,0.2,0.1,0.4,0.2,0.5c0.1,0.2,0.1,0.4,0.1,0.5c0.1,0.7,0.1,1.5,0,2.2c-0.2,1.4-0.5,2.7-0.5,4l-0.4-0.4
				c0,0.1,0.3,0,0.5-0.1l0.7-0.1l1.3-0.3l0.2,0l0.3,0c0.1,0,0.3,0,0.4,0.1c0.3,0.1,0.5,0.2,0.7,0.3c0.4,0.2,0.8,0.5,1.2,1
				c0.1,0.1,0.2,0.2,0.2,0.4c0,0.1,0,0.2,0.1,0.3l0,0.2c0,0.2,0,0.5,0,0.7c0,0.5,0,1-0.2,1.5c-0.2,0.5-0.6,0.9-1,1.2
				c-0.2,0.1-0.5,0.2-0.7,0.3c0,0-0.3,0.2-0.4,0.3l0.1-0.5l3.3,4.5l-0.3-0.1c0.2-0.1,0.4-0.2,0.5-0.3c0.1-0.1,0.2-0.1,0.2-0.2
				c0.1-0.1,0.2-0.1,0.2-0.2c0.1-0.1,0.2-0.3,0.3-0.5c0.1-0.2,0.1-0.4,0.1-0.6c0-0.8-0.4-1.7-0.3-2.6l0-0.2l0.2,0.1
				c0.4,0.1,0.7,0.3,1,0.5c0.3,0.1,0.7,0.3,1,0.2c0.3-0.1,0.6-0.5,0.8-0.8C65.1,73.6,65.3,73.3,65.5,73z M65.5,73
				c-0.2,0.3-0.4,0.6-0.6,1c-0.2,0.3-0.4,0.7-0.8,0.8c-0.1,0-0.2,0.1-0.3,0.1c-0.1,0-0.2,0-0.3,0c-0.2,0-0.4-0.1-0.5-0.2
				c-0.3-0.1-0.7-0.3-1-0.4l0.2-0.1c0,0.8,0.4,1.7,0.4,2.6c0,0.2,0,0.5-0.1,0.7c-0.1,0.2-0.2,0.5-0.3,0.7c-0.1,0.1-0.2,0.2-0.3,0.3
				c-0.1,0.1-0.2,0.2-0.3,0.2c-0.2,0.1-0.4,0.2-0.6,0.3l-0.2,0.1l-0.1-0.2l-3.4-4.4l-0.2-0.3l0.3-0.2c0.2-0.1,0.2-0.3,0.6-0.5
				c0.2-0.1,0.4-0.2,0.5-0.3c0.3-0.2,0.6-0.5,0.7-0.8c0.1-0.3,0.2-0.7,0.1-1.2c0-0.2,0-0.4,0-0.6l0-0.2c0,0,0,0,0-0.1
				c0-0.1-0.1-0.1-0.1-0.2c-0.2-0.3-0.5-0.5-0.9-0.7c-0.2-0.1-0.4-0.2-0.5-0.2c-0.1,0-0.2,0-0.3,0c0,0-0.1,0-0.1,0l-0.2,0L56,69.6
				l-0.6,0.1c-0.2,0-0.3,0.1-0.8,0.1l-0.4-0.1l0-0.4c-0.1-1.5,0.3-2.8,0.4-4.2c0.1-0.7,0.1-1.3,0-1.9c-0.1-0.6-0.3-1.2-0.6-1.8
				l-0.5-1l1.1,0.3l2,0.5l0.5,0.1l0.3,0.1l0.1,0l0.1,0l0,0l0.1,0c0.2,0.1,0.3,0.2,0.4,0.3c0.1,0.1,0.2,0.2,0.2,0.5
				c0,0.2,0,0.3,0.1,0.4c0.1,0.2,0.2,0.2,0.4,0.3c0.3,0,0.6,0,1,0l2.1,0l0.6,0l-0.1,0.6L62,65.1c-0.1,0.3-0.1,0.5-0.2,0.8l-0.1,0.4
				c0,0.1-0.1,0.2-0.1,0.3c0,0.1,0,0.1,0,0.1s0,0,0.1,0c0.1,0.1,0.4,0.1,0.6,0.1l1.5,0.2l0.4,0.1l-0.1,0.4l-0.5,2.9L63.1,70
				c0.7-0.4,1.4-0.8,2-1.3c0.6-0.4,1-1,1.2-1.8l0.1-0.4l0.3,0.1l0.3,0.1l0.2,0.1l0,0.2l0,1.8c0,0.6,0,1.2,0,1.8
				c0,0.3,0.1,0.5,0.2,0.6c0.2,0.1,0.5,0.2,0.8,0.2c0.3,0.1,0.6,0.1,0.9,0.2c0.3,0.1,0.6,0.3,0.8,0.6c0.2,0.3,0.3,0.6,0.3,1
				c0,0.3-0.1,0.7-0.2,1c-0.1,0.2-0.3,0.2-0.4,0.3c-0.2,0.1-0.3,0.1-0.5,0.1C69,74.9,68.7,75,68.4,75c-0.6,0.1-1.3,0-1.8-0.5
				c-0.2-0.2-0.4-0.5-0.5-0.8C66,73.5,65.7,73.3,65.5,73z"/>
		</g>
	</g>
	<g>
		<path class="st0" d="M25.3,82.2c0.7-1.4,1.1-2.8,2.4-4c2.6-2.2,5-4.6,7.6-7c1.2-1.1,2-2.3,2.6-3.8c0.3-0.8,0.7-1.6,1.3-2.5
			c0.3,1.5,0.7,2.9,0.9,4.4c0,0.2-0.3,0.6-0.5,0.7c-1.3,0.9-2.7,1.7-4,2.6c-0.4,0.3-0.9,0.7-1,1.2c-1,2.8-3.1,4.7-5.1,6.6
			c-1,1-2.6,1.3-3.9,1.9C25.4,82.4,25.4,82.3,25.3,82.2z M25.8,81.8c3.7-0.7,5.8-3.4,7.5-6.1c1.2-1.9,2.3-3.5,4.2-4.5
			c0.7-0.4,1.3-0.8,1.9-1.2c0.2-0.1,0.4-0.4,0.4-0.6c-0.2-1.2-0.5-2.3-0.7-3.5c-0.6,0.8-1,1.7-1.4,2.5c-0.3,0.7-0.6,1.4-1.1,1.9
			c-2.8,2.7-5.6,5.4-8.5,8C27,79.3,26.4,80.4,25.8,81.8z"/>
		<g>
			<path class="st1" d="M25.3,82.2c0.4-0.8,0.7-1.7,1.1-2.6c0.2-0.4,0.5-0.8,0.8-1.2c0.3-0.4,0.7-0.7,1-1l4-3.9l2-1.9
				c0.7-0.6,1.3-1.2,1.9-2c0.5-0.7,0.9-1.5,1.2-2.4c0.3-0.9,0.8-1.8,1.4-2.6l0.6-0.8l0.2,1c0.2,1,0.4,2,0.6,3l0.2,0.8l0.1,0.4
				c0,0.2,0.1,0.2,0,0.6c-0.2,0.5-0.4,0.6-0.6,0.8l-0.7,0.4l-2.6,1.7c-0.4,0.3-0.9,0.6-1.2,0.8c-0.4,0.3-0.5,0.6-0.7,1.1
				c-0.9,2-2.4,3.5-3.9,4.9c-0.4,0.4-0.8,0.7-1.1,1c-0.4,0.4-0.8,0.7-1.3,0.9c-1,0.4-2,0.7-2.9,1l0,0l0,0L25.3,82.2z M25.3,82.2
				l0.2,0.2l0,0c0.9-0.5,1.9-0.8,2.8-1.3c0.4-0.2,0.8-0.5,1.2-0.9l1.1-1.1c0.7-0.7,1.4-1.5,2-2.3c0.6-0.8,1.1-1.7,1.5-2.6
				c0.1-0.2,0.1-0.5,0.3-0.8c0.2-0.3,0.4-0.5,0.6-0.7c0.4-0.4,0.9-0.6,1.3-0.9l2.5-1.7l0.6-0.4c0.1-0.1,0.3-0.3,0.3-0.3
				c0,0.2,0-0.1-0.1-0.2l-0.1-0.4l-0.2-0.7c-0.2-1-0.4-2-0.6-3l0.9,0.2c-0.5,0.7-1,1.5-1.3,2.3c-0.3,0.9-0.8,1.8-1.4,2.6
				c-0.6,0.8-1.3,1.5-2,2.1l-2.1,1.9l-4.2,3.7c-0.3,0.3-0.7,0.6-1,0.9c-0.3,0.3-0.6,0.7-0.9,1.1C26.1,80.6,25.8,81.4,25.3,82.2z"/>
			<path class="st1" d="M25.8,81.8c0.5-0.1,0.9-0.3,1.4-0.4c0.4-0.2,0.9-0.4,1.3-0.6c0.8-0.5,1.5-1.1,2.1-1.8
				c0.6-0.7,1.2-1.4,1.7-2.2c0.5-0.8,1-1.6,1.5-2.4c0.5-0.8,1.1-1.6,1.9-2.3c0.4-0.3,0.8-0.7,1.2-0.9c0.2-0.1,0.5-0.3,0.6-0.4
				l0.6-0.4l1.1-0.8c0,0,0.1-0.1,0.2-0.2c0,0,0.1-0.2,0,0l-0.1-0.6L38.6,66l0.9,0.2c-0.5,0.6-0.8,1.4-1.2,2.2l-0.6,1.2
				c-0.2,0.4-0.5,0.9-0.9,1.2c-1.3,1.2-2.6,2.4-3.9,3.5L29,77.8c-0.7,0.6-1.4,1.1-1.9,1.8C26.6,80.3,26.2,81,25.8,81.8z M25.8,81.8
				c0.3-0.8,0.6-1.7,1.1-2.4c0.5-0.8,1.2-1.4,1.8-2l3.7-3.7c1.2-1.2,2.5-2.5,3.8-3.7c0.3-0.3,0.5-0.6,0.7-0.9l0.6-1.2
				c0.4-0.8,0.7-1.6,1.3-2.4l0.7-0.9l0.2,1.1l0.6,2.8l0.1,0.3l0,0.2l0,0.1c0,0,0,0,0,0.2c0,0.4-0.1,0.5-0.2,0.6
				c-0.1,0.1-0.2,0.2-0.3,0.3l-1.2,0.8l-0.6,0.4c-0.3,0.2-0.4,0.2-0.6,0.4c-0.4,0.2-0.7,0.5-1.1,0.8c-0.7,0.6-1.3,1.3-1.8,2.1
				c-0.5,0.8-1,1.6-1.6,2.3c-0.6,0.8-1.2,1.5-1.9,2.2c-0.7,0.7-1.5,1.3-2.4,1.7c-0.4,0.2-0.9,0.4-1.3,0.5
				C26.7,81.7,26.3,81.8,25.8,81.8z"/>
		</g>
	</g>
	<g>
		<path class="st0" d="M69.2,56.9c0.1,0,0.3-0.1,0.4,0c1.6,0.5,3.1,0.5,4.7,0c0.2-0.1,0.7,0,0.8,0.2c0.5,0.9,1.3,1.8,1.3,2.7
			c0,2,0.5,3.7,1.1,5.5c0.1,0.2,0.1,0.3,0.2,0.7c-1.2,0-2.2,0-3.3,0c-0.8,0-1,0.3-1,1c-0.1,1.2,0.4,2.2,1,3.1
			c0.2,0.3,0.4,0.7,0.7,1.2c-1.2,0.2-2.2,0.3-3.3,0.5c0-0.9-0.1-1.7,0-2.5c0.1-0.8-0.2-1.2-1-1.4c-0.9-0.2-1.2-0.7-1.1-1.6
			c0.1-0.9,0-1.7,0-2.8c0.8,0.2,1.5,0.4,2.1,0.4c0.3,0,0.8-0.2,0.8-0.4c0.1-0.6,0.8-1.2,0-1.7c-0.2-0.1-0.4-0.2-0.6-0.3
			C70,60.4,69.4,59.3,69.2,56.9z M69.5,57.2c0.4,1.9,0.7,3.6,2.7,4.1c1.1,0.3,1.3,1,0.8,1.9c0,0.1-0.1,0.1-0.1,0.2
			c-0.1,0.8-0.4,1-1.2,0.8c-0.5-0.2-1.2-0.2-1.9-0.3c0,0.8,0.1,1.3,0,1.9c-0.1,1.1,0.2,1.8,1.3,2c0.6,0.1,0.8,0.5,0.7,1.1
			c0,0.8,0,1.6,0,2.6c1-0.1,1.7-0.2,2.7-0.3c-0.2-0.4-0.4-0.7-0.6-1c-0.8-1-0.9-2-0.9-3.2c0-0.9,0.3-1.1,1.1-1.1c1,0.1,2,0,3.1,0
			C77.1,65,77,64.5,76.8,64c-0.2-0.8-0.6-1.7-0.6-2.6c0-1.3-0.3-2.5-1-3.7c-0.4-0.7-0.8-0.8-1.5-0.6c-1.3,0.4-2.5,0.5-3.8,0
			C69.9,57.1,69.7,57.2,69.5,57.2z"/>
		<g>
			<path class="st1" d="M69.2,56.9c0.3-0.1,0.6,0,0.9,0.1c0.3,0.1,0.6,0.1,0.9,0.1c0.6,0.1,1.3,0,1.9-0.1c0.3-0.1,0.6-0.1,0.9-0.2
				c0.2,0,0.3-0.1,0.5-0.1c0.2,0,0.4,0,0.6,0.1c0.1,0,0.2,0.1,0.3,0.2l0.1,0.2l0.3,0.4c0.2,0.3,0.4,0.5,0.5,0.8
				c0.2,0.3,0.3,0.6,0.4,1c0.1,0.4,0,0.7,0.1,1c0,0.6,0.1,1.2,0.3,1.8c0.1,0.6,0.3,1.2,0.5,1.8l0.3,0.9l0.1,0.2c0,0.1,0,0.2,0.1,0.3
				l0.1,0.5l0.1,0.5l-0.5,0l-2.4,0l-0.6,0c-0.2,0-0.4,0-0.5,0c-0.1,0-0.1,0-0.2,0.1c0,0.1-0.1,0.2-0.1,0.4l0,0.3c0,0.1,0,0.2,0,0.3
				c0,0.2,0,0.3,0.1,0.5c0.1,0.3,0.2,0.7,0.4,1c0.1,0.2,0.2,0.3,0.3,0.5c0.1,0.2,0.2,0.3,0.3,0.5l0.6,1l0.4,0.7l-0.8,0.1l-3.3,0.4
				l-0.5,0.1l0-0.5l0-2.4c0-0.1,0-0.2,0-0.3c0-0.1,0-0.1,0-0.2c0-0.1-0.1-0.2-0.1-0.3c-0.1-0.1-0.1-0.1-0.3-0.2
				c-0.1,0-0.1,0-0.2-0.1c-0.1,0-0.2,0-0.3-0.1c-0.2-0.1-0.5-0.2-0.7-0.4c-0.2-0.2-0.3-0.4-0.4-0.7c-0.1-0.2-0.1-0.5-0.1-0.7l0-0.6
				c0.1-0.7,0-1.5,0-2.3l0-0.5l0.4,0.1l1.4,0.3c0.2,0.1,0.5,0.1,0.7,0.1c0.1,0,0.4,0,0.5-0.1c0,0,0.1,0,0.1,0c0,0,0,0.1,0,0l0-0.1
				c0-0.2,0.1-0.3,0.2-0.4c0.1-0.2,0.2-0.4,0.2-0.6c0-0.1-0.1-0.3-0.2-0.4l-0.6-0.4c-0.8-0.5-1.7-1.1-2.1-2
				C69.3,58.8,69.2,57.8,69.2,56.9z M69.2,56.9c0.1,0.9,0.3,1.9,0.8,2.7c0.2,0.4,0.6,0.7,1,1c0.4,0.3,0.8,0.5,1.2,0.7
				c0.2,0.1,0.4,0.2,0.7,0.3c0.2,0.1,0.5,0.4,0.5,0.8c0,0.3-0.1,0.6-0.2,0.8c0,0.1-0.1,0.2-0.1,0.3l0,0.1c0,0-0.1,0.2-0.1,0.2
				c-0.1,0.1-0.1,0.1-0.2,0.2c-0.3,0.2-0.5,0.3-0.9,0.2c-0.3,0-0.5-0.1-0.7-0.1l-1.4-0.3l0.4-0.4c0,0.8,0.1,1.5,0.1,2.3
				c0,0.2,0,0.4,0,0.6c0,0.2,0,0.3,0,0.4c0.1,0.2,0.2,0.4,0.5,0.5c0,0,0.2,0,0.2,0.1c0.1,0,0.2,0.1,0.4,0.1c0.2,0.1,0.5,0.2,0.7,0.5
				c0.2,0.2,0.3,0.5,0.3,0.8c0,0.1,0,0.2,0,0.4c0,0.1,0,0.2,0,0.3l0,2.3l-0.5-0.5l3.3-0.5l-0.4,0.8l-0.6-1c-0.1-0.2-0.2-0.3-0.3-0.5
				c-0.1-0.2-0.2-0.4-0.3-0.6c-0.2-0.4-0.4-0.8-0.5-1.3c0-0.2-0.1-0.5-0.1-0.7c0-0.1,0-0.2,0-0.4l0-0.3c0-0.2,0.1-0.5,0.2-0.8
				c0.2-0.3,0.6-0.5,0.8-0.5c0.3,0,0.5,0,0.7,0l0.6,0l2.4,0l-0.4,0.5l-0.1-0.5c0-0.1,0-0.2-0.1-0.2L77,65.1
				c-0.1-0.3-0.2-0.6-0.3-0.9c-0.2-0.6-0.3-1.3-0.5-1.9c-0.1-0.6-0.2-1.3-0.2-2c0-0.3,0-0.7,0-0.9c-0.1-0.3-0.2-0.5-0.3-0.8
				c-0.1-0.3-0.3-0.5-0.5-0.8L75,57.4l-0.1-0.2c0,0,0,0-0.1,0c-0.1,0-0.3-0.1-0.4-0.1c-0.1,0-0.3,0.1-0.4,0.1
				c-0.3,0.1-0.6,0.1-1,0.2c-0.7,0.1-1.3,0.1-2,0c-0.3,0-0.6-0.1-0.9-0.2C69.8,57,69.5,56.7,69.2,56.9z"/>
			<path class="st1" d="M69.5,57.2c0.2,0.9,0.5,1.9,1,2.7c0.3,0.4,0.6,0.7,1,0.9c0.2,0.1,0.4,0.2,0.6,0.2c0.2,0.1,0.5,0.1,0.7,0.3
				c0.2,0.1,0.5,0.4,0.6,0.7c0.1,0.3,0.1,0.6,0,0.9c0,0.1-0.1,0.3-0.1,0.4l0,0.1l0,0c0-0.1,0,0,0,0l0,0l0,0.1c0,0,0,0.1,0,0l0,0
				c0,0.3-0.1,0.6-0.3,0.8c-0.3,0.3-0.7,0.3-1,0.2c-0.3-0.1-0.5-0.1-0.7-0.2c-0.4-0.1-0.9-0.1-1.4-0.2l0.4-0.4l0,1.1
				c0,0.4,0,0.8,0,1.1c0,0.3,0,0.6,0.2,0.8c0.1,0.2,0.3,0.3,0.6,0.4c0.1,0,0.3,0,0.6,0.2c0.2,0.1,0.5,0.3,0.6,0.6
				c0.1,0.3,0.1,0.5,0.1,0.7l0,0.6l0,2.2l-0.5-0.5l2.7-0.4l-0.4,0.7l-0.3-0.5c-0.1-0.2-0.1-0.3-0.3-0.4c-0.1-0.1-0.3-0.4-0.4-0.6
				c-0.1-0.2-0.2-0.4-0.3-0.6c-0.2-0.4-0.2-0.9-0.3-1.3c0-0.4,0-0.8,0-1.3c0-0.2,0-0.5,0.2-0.8c0.2-0.3,0.5-0.5,0.8-0.5
				c0.3,0,0.5,0,0.7,0l0.6,0l2.4,0l-0.4,0.6c-0.2-0.6-0.4-1.2-0.5-1.7c-0.1-0.6-0.3-1.1-0.4-1.8c-0.1-0.3-0.1-0.7-0.1-1
				c0-0.3,0-0.6,0-0.9c-0.1-0.6-0.2-1.1-0.4-1.7c-0.1-0.3-0.2-0.5-0.4-0.8c-0.1-0.3-0.3-0.5-0.5-0.6c-0.4-0.3-1,0-1.6,0.1
				c-0.6,0.1-1.2,0.1-1.8,0c-0.3,0-0.6-0.1-0.9-0.2c-0.1,0-0.3-0.1-0.4-0.2C69.8,57.2,69.6,57.2,69.5,57.2z M69.5,57.2
				c0.2,0,0.3,0,0.5,0c0.2,0,0.3,0.1,0.4,0.1c0.3,0.1,0.6,0.1,0.9,0.1c0.6,0,1.2,0,1.8-0.2c0.3-0.1,0.6-0.2,0.9-0.3
				c0.3-0.1,0.7-0.1,1,0.1c0.3,0.2,0.5,0.5,0.7,0.8c0.2,0.3,0.3,0.5,0.4,0.8c0.3,0.6,0.4,1.2,0.5,1.8c0,0.3,0.1,0.6,0.1,0.9
				c0,0.3,0,0.5,0.1,0.8c0.1,0.5,0.3,1.1,0.5,1.7l0.5,1.7l0.2,0.6l-0.6,0l-2.4,0l-0.6,0c-0.2,0-0.4,0-0.5,0c-0.1,0-0.1,0-0.2,0.1
				c0,0.1-0.1,0.2-0.1,0.4c0,0.4,0,0.8,0,1.1c0,0.4,0.1,0.7,0.2,1c0.1,0.2,0.1,0.3,0.2,0.5c0.1,0.2,0.2,0.3,0.3,0.4
				c0.1,0.2,0.3,0.4,0.4,0.6l0.3,0.5l0.3,0.6l-0.7,0.1L72,71.8l-0.5,0.1l0-0.5l0-2.2l0-0.5c0-0.1,0-0.3-0.1-0.3
				c0-0.1-0.1-0.1-0.2-0.2c0,0-0.3-0.1-0.5-0.1c-0.4-0.1-0.9-0.4-1.1-0.8c-0.3-0.4-0.3-0.9-0.3-1.3c0-0.4,0.1-0.7,0.1-1l0-1.1l0-0.5
				l0.4,0.1c0.5,0.1,0.9,0.1,1.5,0.3c0.3,0.1,0.5,0.2,0.7,0.2c0.2,0,0.3,0,0.4,0c0.1-0.1,0.2-0.3,0.2-0.5l0,0c0-0.1,0,0,0-0.1l0-0.1
				l0-0.1l0-0.1c0-0.1,0.1-0.2,0.1-0.3c0.1-0.4,0-0.8-0.3-1c-0.2-0.1-0.4-0.2-0.6-0.3c-0.2-0.1-0.5-0.2-0.7-0.3
				c-0.4-0.3-0.8-0.7-1.1-1.1C69.8,59.1,69.6,58.1,69.5,57.2z"/>
		</g>
	</g>
	<g>
		<path class="st0" d="M44.8,51c1.6,0.1,3.2,0.2,4.8,0.4c1,0.1,2.2,2,2.4,3c0.4,2.3-1,3.4-2.6,4.6c-0.5-0.8-1.1-1.5-1.4-2.3
			c-0.8-2-1.6-3.9-3.3-5.4C44.7,51.2,44.7,51.1,44.8,51z M49.4,58.7c0.7-0.6,1.3-1.1,1.8-1.7c0.6-0.6,0.8-2.9,0.3-3.6
			c-1.2-1.6-4.1-2.5-5.9-1.9C46.8,53.9,48.1,56.2,49.4,58.7z"/>
		<g>
			<path class="st1" d="M44.8,51c1.2,0,2.4,0,3.6,0l0.9,0l0.2,0c0.1,0,0,0,0.2,0l0.1,0c0.2,0,0.4,0.1,0.5,0.2c0.6,0.4,1,0.9,1.4,1.4
				c0.2,0.3,0.3,0.5,0.5,0.8c0.1,0.2,0.1,0.3,0.2,0.5c0,0.1,0,0.2,0.1,0.3l0,0.2c0.1,0.3,0.1,0.7,0,1c0,0.3-0.1,0.7-0.3,1
				c-0.3,0.7-0.7,1.2-1.2,1.6c-0.5,0.4-1,0.8-1.5,1.2l-0.4,0.3l-0.3-0.4c-0.4-0.6-0.8-1.2-1.2-2c-0.1-0.2-0.2-0.4-0.2-0.6l-0.2-0.5
				c-0.1-0.4-0.3-0.7-0.4-1c-0.3-0.7-0.6-1.4-1-2c-0.4-0.7-0.8-1.2-1.3-1.8l0,0l0,0L44.8,51z M44.8,51l-0.1,0.3l0,0
				c1.2,0.9,2.2,2.2,2.9,3.6c0.2,0.3,0.3,0.7,0.5,1l0.2,0.5c0.1,0.2,0.1,0.3,0.2,0.5c0.3,0.6,0.8,1.2,1.3,1.8l-0.7-0.1
				c1-0.7,1.9-1.4,2.3-2.4c0.1-0.2,0.2-0.5,0.2-0.7c0-0.3,0-0.5,0-0.8l0-0.2l0-0.2c0-0.1-0.1-0.2-0.1-0.4c-0.1-0.3-0.2-0.5-0.4-0.7
				c-0.3-0.5-0.6-0.9-1-1.3c-0.2-0.2-0.3-0.2-0.7-0.2l-0.9-0.1C47.2,51.4,46,51.3,44.8,51z"/>
			<path class="st1" d="M49.4,58.7c0.3-0.4,0.7-0.8,1.1-1.2l0.5-0.6c0.2-0.2,0.2-0.4,0.3-0.6c0.1-0.5,0.1-1,0.1-1.5
				c0-0.2,0-0.5-0.1-0.7c0-0.1-0.1-0.2-0.1-0.3c-0.1-0.1,0-0.1-0.2-0.2c-0.2-0.2-0.3-0.3-0.5-0.5c-0.2-0.2-0.4-0.3-0.6-0.4
				c-0.4-0.2-0.9-0.4-1.4-0.6c-0.9-0.3-2-0.4-2.9-0.1l0.3-0.7c0.6,1.2,1.2,2.4,1.8,3.7c0.3,0.6,0.6,1.2,0.8,1.9
				C48.9,57.5,49.2,58.1,49.4,58.7z M49.4,58.7c-0.4-0.6-0.8-1.1-1.1-1.7c-0.4-0.6-0.7-1.2-1.1-1.7c-0.7-1.2-1.4-2.3-2-3.5l-0.3-0.5
				l0.6-0.2c1.2-0.3,2.4-0.2,3.4,0.1c0.5,0.2,1.1,0.4,1.6,0.7c0.2,0.2,0.5,0.3,0.7,0.5c0.2,0.2,0.5,0.4,0.6,0.6
				c0.1,0.1,0.2,0.3,0.3,0.4c0.1,0.2,0.1,0.3,0.1,0.5c0.1,0.3,0.1,0.6,0,0.9c0,0.6-0.1,1.1-0.3,1.7c-0.1,0.3-0.3,0.6-0.5,0.8
				l-0.6,0.5C50.3,58.1,49.8,58.4,49.4,58.7z"/>
		</g>
	</g>
	<g>
		<path class="st0" d="M58.1,48.2c0.2,1.4,0.4,2.5,0.6,3.7c-0.1,0.1-0.2,0.2-0.3,0.2c-0.4-0.5-0.7-0.9-1.1-1.4
			c-0.9-1.2-2.1-2.1-3.5-2.6c-0.4-0.2-0.9,0-1.3,0c-0.2,0-0.3,0.1-0.4,0.3c-1.4,1.3-3,1.2-4.6,0.6c-0.3-0.1-0.6-0.6-0.7-0.9
			c-0.2-1.1,0-2.1,0.9-2.9c0.3-0.3,0.6-0.7,1-1.2c-0.6-0.6-1.3-1.1-2-1.8c-0.3,0.8-0.6,1.5-0.9,2.4c-1-0.8-2-1.4-2.6-2.2
			c-0.4-0.5-0.4-1.5-0.5-2.2c-0.3-2-0.6-3.9-0.9-5.9c0-0.3,0-0.5,0-0.9c0.9,0.3,1.8,0.6,2.8,0.8c0-0.3,0.1-0.6,0.1-0.8
			c-0.1-1.8,0.1-3.5,0.8-5.2c0.4-1,0.2-1.9-0.3-2.8c-0.4-0.7-0.3-1.4,0-2.1c0.6-1.3,1-2.6,1.5-3.9c0.5-1.1,2.1-1.6,3.1-1
			c0.9,0.6,1.9,1.1,3,1.4c0.6,0.2,1.4,0.3,2,0.2c0.6-0.1,1.1-0.6,1.7-0.9c-0.2,1.6-0.3,3.2-0.5,4.7c-0.2,1.3,0.2,2.4,1.2,3.2
			c0.6,0.5,0.6,1.1,0.4,1.9c-0.7,2.2-2.3,3.8-3.8,5.4c-1.3,1.4-1.8,3-2.2,4.7c-0.1,0.4,0,0.8,0.1,1.2c0.5,1.8,1.1,3.5,1.6,5.4
			c0.2,1,0.8,1.5,1.7,1.9c1.1,0.5,1.9,0.7,2.8-0.3c0.8-0.9,1.9-0.9,2.8-0.6c1.8,0.6,3.6,1.5,5.3,2.4c-0.4,0.1-0.9,0.3-1.6,0.5
			c1.2,1.7,2.4,3.2,3.6,4.8c-1.6,0.5-3.8-0.3-4.6-1.7c-0.2-0.3-0.4-0.6-0.5-0.9C61.8,49.6,60,48.9,58.1,48.2z"/>
		<path class="st1" d="M58.1,48.2l0.7,3.7l0,0l0,0l-0.3,0.3l-0.1,0l0-0.1c-0.5-0.6-1-1.2-1.5-1.8c-0.5-0.6-1.1-1.1-1.8-1.5
			c-0.3-0.2-0.7-0.4-1-0.5c-0.2-0.1-0.4-0.2-0.5-0.2c-0.2,0-0.4,0-0.5,0c-0.2,0-0.4,0.1-0.5,0.1c-0.1,0-0.3,0.2-0.4,0.3
			c-0.3,0.3-0.7,0.5-1,0.7c-0.8,0.3-1.6,0.4-2.4,0.2c-0.4-0.1-0.8-0.2-1.2-0.3c-0.5-0.2-0.8-0.6-0.9-1c-0.2-0.8-0.1-1.7,0.4-2.5
			c0.2-0.4,0.6-0.7,0.8-0.9c0.2-0.3,0.4-0.6,0.7-0.9l0,0.4l-2-1.8l0.5-0.1L46,44.7l-0.2,0.4l-0.4-0.3c-0.8-0.6-1.7-1.2-2.5-2
			c-0.1-0.1-0.2-0.2-0.3-0.3c-0.1-0.2-0.2-0.3-0.2-0.5c-0.1-0.3-0.1-0.6-0.2-0.8c-0.1-0.6-0.1-1-0.2-1.6l-0.5-3.1l-0.3-1.6
			c0-0.3-0.1-0.5-0.1-0.8c0-0.3,0-0.6,0-0.8l0-0.6l0.6,0.2l2.8,0.8l-0.6,0.4c0-0.3,0.1-0.6,0.1-0.7c0-0.3,0-0.6,0-0.8
			c0-0.6,0-1.1,0.1-1.7c0.1-0.6,0.2-1.1,0.3-1.7c0.1-0.5,0.4-1.1,0.5-1.5c0.1-0.5,0-0.9-0.1-1.4c-0.1-0.2-0.2-0.4-0.3-0.7
			c-0.1-0.3-0.2-0.6-0.3-0.9c-0.1-0.7,0.2-1.4,0.4-1.8l0.6-1.5l0.6-1.5l0.2-0.4l0.1-0.2l0.1-0.2c0.2-0.4,0.4-0.6,0.7-0.8
			c0.5-0.4,1.2-0.6,1.9-0.5c0.3,0,0.7,0.1,1,0.2c0.3,0.2,0.5,0.3,0.7,0.4c0.5,0.3,0.9,0.5,1.4,0.7c0.5,0.2,1,0.4,1.4,0.5
			c0.5,0.1,1,0.1,1.4-0.1c0.4-0.2,0.8-0.5,1.3-0.8l0.9-0.5l-0.1,1l-0.3,2.7c-0.1,0.9-0.3,1.9-0.3,2.6c0,0.8,0.4,1.5,1,2
			c0.2,0.1,0.4,0.3,0.6,0.6c0.2,0.3,0.2,0.6,0.2,0.9c0,0.6-0.2,1-0.4,1.5c-0.7,1.8-2,3.2-3.3,4.6c-0.6,0.6-1.2,1.3-1.6,2.1
			c-0.4,0.8-0.7,1.6-0.9,2.5c0,0.2-0.1,0.5-0.1,0.6c0,0.2,0,0.4,0.1,0.6c0.1,0.4,0.3,0.9,0.4,1.3l0.8,2.6l0.4,1.3
			c0.1,0.5,0.2,0.8,0.4,1.2c0.2,0.3,0.5,0.6,0.9,0.8c0.4,0.2,0.8,0.4,1.1,0.5c0.4,0.1,0.7,0,1-0.2c0.2-0.1,0.3-0.2,0.4-0.4
			c0.1-0.2,0.4-0.4,0.6-0.5c0.9-0.6,2.1-0.4,2.9,0c1.8,0.6,3.4,1.5,5,2.4l0.6,0.3l-0.6,0.2l-1.6,0.5l0.1-0.4l3.5,4.8l0.2,0.2
			l-0.2,0.1c-1,0.3-2.1,0.2-3-0.3c-0.5-0.2-0.9-0.5-1.3-0.9c-0.2-0.2-0.3-0.4-0.5-0.6c-0.1-0.2-0.3-0.4-0.4-0.7
			c-0.1-0.2-0.2-0.5-0.3-0.7c-0.1-0.2-0.2-0.4-0.4-0.6c-0.3-0.4-0.6-0.7-1.1-1C60,48.9,59,48.5,58.1,48.2z M58.1,48.2
			c0.9,0.3,1.9,0.6,2.8,1.2c0.4,0.3,0.8,0.6,1.1,1c0.2,0.2,0.3,0.4,0.4,0.7c0.1,0.2,0.2,0.5,0.3,0.7c0.1,0.2,0.3,0.4,0.4,0.6
			c0.1,0.2,0.3,0.4,0.4,0.6c0.3,0.3,0.8,0.6,1.2,0.8c0.9,0.4,1.9,0.5,2.8,0.2l-0.1,0.3l-3.6-4.7l-0.2-0.3l0.4-0.1l1.6-0.5l-0.1,0.5
			c-1.6-0.9-3.2-1.7-4.9-2.2c-0.8-0.3-1.7-0.4-2.4,0c-0.2,0.1-0.3,0.2-0.4,0.4c-0.1,0.2-0.3,0.4-0.5,0.5c-0.4,0.3-1.1,0.5-1.6,0.3
			c-0.5-0.1-0.9-0.3-1.4-0.6c-0.4-0.2-0.9-0.6-1.2-1c-0.3-0.4-0.4-1-0.6-1.4l-0.4-1.3l-0.8-2.6c-0.1-0.4-0.3-0.9-0.4-1.3
			c-0.1-0.2-0.1-0.5-0.1-0.8c0-0.3,0.1-0.5,0.1-0.8c0.2-0.9,0.5-1.8,0.9-2.7c0.4-0.9,1.1-1.6,1.7-2.3c0.6-0.7,1.2-1.3,1.8-2
			c0.5-0.7,1-1.5,1.3-2.2c0.2-0.4,0.3-0.8,0.3-1.2c0-0.3-0.1-0.5-0.5-0.8c-0.8-0.6-1.4-1.7-1.4-2.7c0-0.5,0.1-1,0.1-1.4l0.1-1.4
			l0.3-2.7l0.7,0.5c-0.4,0.2-0.8,0.6-1.5,0.9c-0.7,0.2-1.3,0.2-1.9,0.1c-0.6-0.1-1.2-0.4-1.7-0.6c-0.5-0.2-1-0.5-1.5-0.8
			c-0.2-0.1-0.5-0.3-0.7-0.4c-0.2-0.1-0.4-0.1-0.6-0.2c-0.4,0-0.9,0.1-1.2,0.3c-0.2,0.1-0.3,0.3-0.4,0.4l-0.1,0.2l-0.1,0.2l-0.2,0.4
			L46,21.6l-0.6,1.5c-0.2,0.5-0.4,0.9-0.3,1.3c0,0.2,0.1,0.4,0.2,0.6c0.1,0.2,0.2,0.5,0.3,0.8c0.2,0.6,0.3,1.2,0.1,1.9
			c-0.2,0.7-0.4,1.1-0.5,1.6c-0.1,0.5-0.2,1-0.3,1.5c-0.1,0.5-0.1,1-0.1,1.6c0,0.3,0,0.5,0,0.8c0,0.4-0.1,0.7-0.1,0.9l0,0.5
			l-0.5-0.2l-2.8-0.8l0.6-0.4c0,0.3,0,0.6,0,0.8c0,0.2,0.1,0.5,0.1,0.7l0.2,1.6l0.5,3.1c0.1,0.5,0.2,1.1,0.2,1.6
			c0,0.3,0.1,0.5,0.1,0.7c0,0.1,0.1,0.2,0.1,0.3c0.1,0.1,0.1,0.2,0.2,0.3c0.6,0.7,1.6,1.3,2.4,2l-0.5,0.1l0.9-2.4l0.2-0.4l0.3,0.3
			l2,1.8L49,44l-0.2,0.2c-0.2,0.3-0.5,0.6-0.7,0.9c-0.3,0.3-0.6,0.5-0.8,0.8c-0.4,0.6-0.4,1.4-0.3,2.1c0.1,0.3,0.3,0.6,0.6,0.7
			c0.4,0.1,0.7,0.3,1.1,0.3c0.7,0.2,1.5,0.1,2.2-0.1c0.3-0.1,0.7-0.3,1-0.6c0.2-0.1,0.3-0.3,0.5-0.4c0.3-0.1,0.4-0.1,0.6-0.1
			c0.2,0,0.4,0,0.6,0c0.3,0,0.4,0.1,0.6,0.2c0.4,0.2,0.7,0.4,1,0.6c0.7,0.4,1.3,0.9,1.8,1.6c0.5,0.6,1,1.2,1.4,1.9l-0.1,0l0.3-0.2
			l0,0.1L58.1,48.2z"/>
	</g>
	<g>
		<path class="st0" d="M60.8,89.8c-0.3-0.9-0.5-1.5-0.7-2.2C60,87,59.7,86.9,59.1,87c-1,0.1-1.6,0.6-2,1.6c-0.5,1.2-1.1,2.3-1.9,3.5
			c-0.1-0.6-0.2-1.2-0.2-1.8c0-0.6,0.2-1.3,0.2-1.9c0.1-1.8,1.2-2.7,2.7-3.1c1.4-0.4,2.4-1.1,3.3-2.3c0.6-0.8,1.9-1.5,2.9-1.6
			c0.6-0.1,1.4,1,2,1.6c0.4,0.4,0.4,1.1,0.7,1.8c0.2-0.2,0.4-0.2,0.5-0.4c0.9-1.1,2-1.9,3.6-1.8c0.3,0,0.8-0.4,1-0.8
			c0.4-0.7,0.6-1.4,0.9-2.1c0.2,0,0.3,0,0.4,0.1c1.4,0.5,2.3,0.3,3.1-0.9c0.2-0.2,0.2-0.6,0.2-0.9c0-0.5-0.1-0.9-0.1-1.4
			c0-0.5,0-0.9,0.1-1.6c1.2,0.9,2.4,1.8,3.5,2.8c0.5,0.5,1,1.2,1.3,1.8c0.3,0.5,0.6,1.1,0.5,1.7c-0.1,2,0.3,3.8,1.2,5.6
			c0.7,1.3,0.7,2.8,0,4.2c-0.7,1.5-1.4,2.9-2.2,4.4c-0.6-2-1-4-2.9-5.5c-0.5,0.5-1,1-1.4,1.7c-0.5,0.9-1,1.8-0.3,2.8
			c0.2,0.3,0.3,0.6,0.5,0.9c1.4,2.7,1.4,2.8-0.8,5.3c-0.1-0.2-0.2-0.4-0.3-0.5c-0.7-1.2-1.6-2.1-3.2-1.8c-0.3,0.1-0.7-0.2-1-0.4
			C70.2,97,69,96.3,68,95.5c-0.4-0.3-0.6-0.8-0.7-1.3c-0.1-0.4,0-0.8,0-1.2c-0.1-1,0.2-1.8,1-2.4c0.7-0.5,0.7-1,0.1-1.6
			c-0.6-0.6-0.9-1.5-2-1.8c-1.5-0.4-2.4-0.1-3.4,1C62.5,88.9,61.6,89.2,60.8,89.8z"/>
		<path class="st1" d="M60.8,89.8l-0.4-1.2c-0.1-0.2-0.1-0.4-0.2-0.6c-0.1-0.2-0.1-0.4-0.2-0.6c-0.1-0.2-0.3-0.3-0.5-0.3
			c-0.2,0-0.4,0-0.6,0.1c-0.4,0.1-0.8,0.2-1.1,0.5c-0.3,0.3-0.5,0.7-0.6,1.1c-0.2,0.4-0.3,0.8-0.5,1.2c-0.4,0.8-0.8,1.5-1.3,2.3
			L55,92.5l-0.1-0.5c-0.1-0.4-0.2-0.8-0.2-1.2c-0.1-0.4,0-0.9,0-1.3c0.1-0.4,0.1-0.8,0.1-1.2c0-0.4,0.1-0.9,0.3-1.3
			c0.4-0.9,1.1-1.5,2-1.8c0.4-0.2,0.8-0.3,1.2-0.4c0.4-0.2,0.7-0.3,1.1-0.6c0.3-0.2,0.6-0.5,0.9-0.8c0.3-0.3,0.5-0.6,0.8-1
			c0.6-0.7,1.4-1.1,2.3-1.4c0.2-0.1,0.4-0.1,0.7-0.1c0.4,0,0.6,0.2,0.8,0.3c0.4,0.3,0.7,0.6,1,0.9l0.4,0.5c0.2,0.2,0.3,0.4,0.4,0.6
			c0.2,0.4,0.3,0.8,0.4,1.2l-0.6-0.2c0.2-0.1,0.3-0.2,0.4-0.3c0,0,0,0,0,0l0.1-0.1l0.2-0.2c0.3-0.3,0.5-0.5,0.8-0.8
			c0.6-0.5,1.4-0.8,2.2-0.9c0.2,0,0.4,0,0.6,0c0,0,0.1,0,0.1,0c0.1,0,0,0,0,0c0,0,0.1,0,0.1-0.1c0.1-0.1,0.2-0.2,0.3-0.3
			c0.1-0.1,0.1-0.2,0.2-0.4c0.3-0.6,0.5-1.2,0.8-1.9l0.1-0.3l0.3,0c0.2,0,0.5,0.1,0.6,0.1c0.2,0.1,0.3,0.1,0.4,0.1
			c0.3,0.1,0.6,0.1,0.8,0.1c0.5-0.1,0.9-0.5,1.2-1c0-0.1,0.1-0.1,0.1-0.3c0-0.1,0-0.3,0-0.4l-0.1-1l0-0.5c0-0.2,0-0.4,0-0.5
			c0-0.4,0.1-0.7,0.2-1.1l0.2-0.7l0.6,0.4l2.3,1.9l1.1,0.9c0.4,0.4,0.7,0.8,1,1.2c0.3,0.4,0.5,0.9,0.8,1.4c0.1,0.2,0.2,0.5,0.3,0.8
			c0,0.1,0,0.3,0,0.5l0,0.4c0,0.9,0.1,1.9,0.3,2.8c0.1,0.4,0.3,0.9,0.5,1.3c0.2,0.4,0.4,0.8,0.6,1.3c0.4,1,0.5,2.2,0.2,3.2
			c-0.1,0.5-0.4,1-0.6,1.4l-0.7,1.3l-1.4,2.6l-0.5,1l-0.3-1.1c-0.3-1-0.6-2-1-3c-0.4-0.9-1-1.7-1.8-2.4l0.6,0
			c-0.4,0.4-0.7,0.8-1,1.1c-0.3,0.3-0.6,0.8-0.8,1.2c-0.2,0.4-0.3,0.8-0.1,1.2c0,0.1,0.1,0.2,0.1,0.3l0.2,0.3
			c0.2,0.3,0.3,0.5,0.4,0.7c0.2,0.4,0.5,0.9,0.7,1.4c0.2,0.5,0.4,1.1,0.3,1.7c-0.1,0.3-0.2,0.6-0.3,0.8c-0.1,0.2-0.3,0.5-0.5,0.7
			c-0.3,0.4-0.7,0.8-1,1.2l-0.3,0.4l-0.3-0.4c-0.3-0.5-0.5-0.9-0.9-1.3c-0.3-0.4-0.7-0.7-1.2-0.8c-0.2-0.1-0.5-0.1-0.7-0.1
			c-0.1,0-0.2,0-0.4,0l-0.1,0c-0.1,0-0.1,0-0.2,0c-0.1,0-0.2,0-0.3-0.1c-0.6-0.3-1-0.6-1.5-0.9L69,96.5l-0.7-0.5L68,95.9
			c-0.1-0.1-0.2-0.1-0.4-0.3c-0.2-0.2-0.3-0.5-0.5-0.8c-0.1-0.3-0.2-0.5-0.2-0.9c0-0.3,0-0.6,0-0.8c0-0.2,0-0.6,0-0.9
			c0.1-0.6,0.4-1.2,0.8-1.5c0.2-0.2,0.5-0.3,0.6-0.5c0.2-0.2,0.2-0.4,0.1-0.6c-0.1-0.2-0.3-0.4-0.4-0.6c-0.2-0.2-0.3-0.4-0.5-0.7
			c-0.3-0.4-0.7-0.8-1.2-0.9c-0.5-0.2-1-0.3-1.6-0.2c-0.5,0.1-1,0.3-1.4,0.7c-0.2,0.2-0.4,0.4-0.6,0.6c-0.2,0.2-0.4,0.3-0.7,0.5
			C61.7,89.3,61.3,89.5,60.8,89.8z M60.8,89.8c0.4-0.3,0.9-0.6,1.4-0.9c0.2-0.2,0.4-0.3,0.6-0.5c0.2-0.2,0.4-0.4,0.6-0.6
			c0.4-0.4,0.9-0.7,1.5-0.8c0.6-0.1,1.1,0,1.7,0.2c0.6,0.2,1,0.6,1.4,1c0.2,0.2,0.3,0.4,0.5,0.6c0.2,0.2,0.4,0.4,0.5,0.7
			c0.1,0.3,0.1,0.7-0.1,0.9c-0.2,0.3-0.5,0.4-0.6,0.6c-0.4,0.3-0.6,0.8-0.6,1.3c0,0.3,0,0.5,0,0.8c0,0.3,0,0.6,0,0.8
			c0,0.2,0.1,0.5,0.2,0.7c0.1,0.2,0.2,0.5,0.4,0.6c0,0.1,0.2,0.1,0.3,0.2l0.3,0.2l0.7,0.4l1.4,0.9c0.5,0.3,0.9,0.6,1.3,0.8
			c0,0,0.1,0,0.1,0l0,0l0.1,0c0.1,0,0.3,0,0.4-0.1c0.3,0,0.6,0,0.9,0.1c0.6,0.2,1.1,0.6,1.5,1c0.4,0.4,0.7,1,0.9,1.4l-0.6,0
			c0.3-0.4,0.7-0.8,1-1.2c0.3-0.4,0.6-0.8,0.6-1.2c0.1-0.4-0.1-0.8-0.3-1.3c-0.2-0.4-0.4-0.9-0.7-1.4c-0.1-0.2-0.2-0.5-0.3-0.6
			l-0.2-0.3c-0.1-0.1-0.2-0.3-0.2-0.4c-0.3-0.6-0.1-1.3,0.1-1.8c0.2-0.5,0.5-1,0.9-1.4c0.4-0.4,0.7-0.8,1-1.1l0.3-0.3l0.3,0.3
			c0.9,0.7,1.6,1.7,2,2.7c0.5,1,0.7,2.1,1.1,3.1L80.3,95l1.3-2.6l0.7-1.3c0.2-0.5,0.4-0.8,0.5-1.3c0.2-0.9,0.2-1.8-0.1-2.6
			c-0.2-0.4-0.5-0.8-0.6-1.3c-0.2-0.5-0.4-1-0.5-1.5c-0.3-1-0.4-2-0.3-3.1l0-0.4c0-0.1,0-0.2,0-0.3c0-0.2-0.1-0.4-0.2-0.6
			c-0.2-0.4-0.4-0.8-0.7-1.2c-0.3-0.4-0.5-0.7-0.9-1L78.3,77l-2.3-1.9l0.7-0.2c-0.1,0.3-0.1,0.6-0.1,0.9c0,0.1,0,0.3,0,0.4l0,0.5
			l0.1,1c0,0.2,0,0.4,0,0.6c0,0.2-0.1,0.5-0.2,0.7c-0.2,0.3-0.4,0.6-0.7,0.8c-0.3,0.2-0.7,0.4-1.1,0.5c-0.4,0.1-0.8,0-1.2-0.1
			c-0.2,0-0.4-0.1-0.5-0.2c-0.2-0.1-0.3,0-0.4-0.1l0.5-0.3c-0.3,0.6-0.5,1.3-0.8,2c-0.1,0.1-0.2,0.4-0.3,0.5
			c-0.1,0.2-0.3,0.3-0.5,0.4c-0.1,0.1-0.2,0.1-0.4,0.2c-0.1,0-0.2,0-0.2,0l-0.2,0c-0.2,0-0.3,0-0.5,0c-0.6,0-1.2,0.3-1.7,0.7
			c-0.3,0.2-0.5,0.4-0.7,0.7l-0.2,0.2l-0.1,0.1c0,0.1-0.1,0.1-0.2,0.1c-0.2,0.2-0.3,0.2-0.5,0.3l-0.4,0.3l-0.2-0.5
			c-0.2-0.4-0.2-0.9-0.4-1.2c-0.1-0.2-0.1-0.3-0.2-0.5l-0.4-0.5c-0.3-0.3-0.5-0.6-0.8-0.8c-0.1-0.1-0.3-0.2-0.3-0.2
			c-0.1,0-0.4,0-0.5,0.1c-0.7,0.2-1.5,0.6-2,1.1c-0.2,0.3-0.5,0.7-0.8,1c-0.3,0.3-0.7,0.6-1,0.8c-0.4,0.2-0.8,0.4-1.2,0.6
			c-0.4,0.2-0.8,0.3-1.2,0.4c-0.7,0.3-1.4,0.8-1.7,1.5c-0.2,0.4-0.3,0.7-0.3,1.1c0,0.4-0.1,0.9-0.2,1.3c-0.1,0.4-0.1,0.8,0,1.2
			c0,0.4,0.1,0.8,0.2,1.2L55,92c0.5-0.7,1-1.4,1.4-2.2c0.2-0.4,0.4-0.8,0.6-1.2c0.2-0.4,0.4-0.8,0.7-1.1c0.3-0.3,0.8-0.5,1.2-0.5
			c0.2,0,0.4-0.1,0.7,0c0.2,0,0.5,0.2,0.6,0.4c0.1,0.2,0.1,0.4,0.2,0.6c0,0.2,0.1,0.4,0.2,0.6L60.8,89.8z"/>
	</g>
	<g>
		<path class="st0" d="M65.5,73c-0.5,0.7-0.9,1.5-1.5,1.8c-0.5,0.2-1.3-0.4-2-0.7c-0.1,1.6,1.4,3.6-1.1,4.6
			c-1.1-1.4-2.2-2.9-3.3-4.5c0.2-0.2,0.4-0.4,0.6-0.4c1.7-0.6,1.7-2,1.5-3.4c-0.1-0.8-1.7-1.8-2.5-1.6c-0.8,0.2-1.6,0.4-2.4,0.5
			c0,0-0.1,0-0.2,0c-0.1-2.6,1.4-5.2-0.2-8.1c1.2,0.3,2.1,0.5,3,0.7c0.2,0,0.3,0.3,0.4,0.4c0.1,1.1,0.8,1.1,1.6,1c0.8,0,1.5,0,2.5,0
			c-0.2,0.9-0.3,1.7-0.5,2.5c-0.3,0.9,0.1,1.1,0.8,1.1c0.5,0,1.1,0.2,1.7,0.3c-0.2,0.9-0.3,1.8-0.5,2.9c1.4-1,2.9-1.5,3.3-3.3
			c0.1,0,0.2,0.1,0.3,0.1c0,0.9,0,1.8,0,2.7c0,1.7,0,1.7,1.7,2c1.2,0.2,1.8,1.2,1.3,2.3c-0.1,0.1-0.2,0.2-0.3,0.3
			c-0.1,0.1-0.2,0-0.3,0.1c-1.4,0.5-2.6,0.6-3.4-1C65.9,73.4,65.8,73.3,65.5,73z"/>
		<path class="st1" d="M65.5,73c-0.2,0.3-0.4,0.6-0.6,1c-0.2,0.3-0.4,0.7-0.8,0.8c-0.2,0.1-0.4,0.1-0.6,0c-0.2,0-0.4-0.1-0.5-0.2
			c-0.3-0.1-0.7-0.3-1-0.4l0.2-0.1c0,0.8,0.4,1.7,0.4,2.6c0,0.2,0,0.5-0.1,0.7c-0.1,0.2-0.2,0.5-0.3,0.7c-0.1,0.1-0.2,0.2-0.3,0.3
			c-0.1,0.1-0.2,0.2-0.3,0.2c-0.2,0.2-0.4,0.2-0.6,0.3l-0.2,0.1l-0.1-0.2l-3.4-4.4l-0.2-0.3l0.3-0.2c0.2-0.1,0.3-0.3,0.6-0.5
			c0.2-0.1,0.4-0.2,0.6-0.3c0.3-0.2,0.6-0.5,0.7-0.8c0.1-0.3,0.2-0.7,0.1-1.2c0-0.2,0-0.4,0-0.6c0,0,0-0.2,0-0.1c0,0,0-0.1,0-0.1
			c0,0,0-0.1-0.1-0.1c-0.2-0.3-0.5-0.5-0.9-0.7c-0.3-0.2-0.8-0.3-1-0.2L56,69.6l-0.6,0.1L55,69.8l-0.1,0l0,0l0,0l-0.1,0l0,0l0,0
			l-0.2,0l-0.4-0.1l0-0.4c-0.1-1.5,0.3-2.8,0.4-4.2c0.1-0.7,0.1-1.3,0-1.9c-0.1-0.6-0.3-1.2-0.6-1.8l-0.5-1l1.1,0.3l2,0.5l0.5,0.1
			c0.2,0,0.3,0.1,0.5,0.1c0.3,0.1,0.3,0.2,0.4,0.3c0.1,0.1,0.2,0.2,0.2,0.4c0,0.3,0,0.3,0.1,0.4c0.1,0.2,0.2,0.2,0.4,0.3
			c0.1,0,0.3,0,0.5,0c0.2,0,0.4,0,0.5,0l2.1,0l0.6,0l-0.1,0.6L62,65.1c-0.1,0.3-0.1,0.5-0.2,0.8l-0.1,0.4c0,0.1,0,0.2,0,0.3
			c0,0.1,0,0.1,0,0.1c0,0,0,0,0.1,0c0.1,0,0.2,0,0.3,0.1c0.1,0,0.3,0,0.4,0l1.5,0.2l0.5,0.1l-0.1,0.4l-0.5,2.9L63.1,70
			c0.7-0.4,1.4-0.8,2-1.3c0.6-0.4,1-1,1.2-1.8l0.1-0.4l0.3,0.1l0.3,0.1l0.2,0.1l0,0.2l0,1.8c0,0.6,0,1.2,0,1.8
			c0,0.3,0.1,0.5,0.2,0.6c0.2,0.1,0.5,0.2,0.8,0.2c0.3,0.1,0.6,0.1,0.9,0.2c0.3,0.1,0.6,0.3,0.8,0.6c0.2,0.3,0.3,0.6,0.3,1
			c0,0.3-0.1,0.6-0.2,1c-0.1,0.2-0.3,0.2-0.4,0.3c-0.2,0.1-0.3,0.1-0.5,0.1C69,74.9,68.7,75,68.4,75c-0.6,0.1-1.3,0-1.8-0.5
			c-0.2-0.2-0.4-0.5-0.5-0.8C66,73.5,65.7,73.3,65.5,73z M65.5,73c0.2,0.2,0.5,0.4,0.6,0.7c0.2,0.3,0.3,0.5,0.6,0.7
			c0.5,0.4,1.1,0.5,1.7,0.4c0.3,0,0.6-0.1,0.9-0.2c0.1-0.1,0.4-0.1,0.4-0.1c0.1-0.1,0.2-0.2,0.3-0.2c0.1-0.2,0.2-0.5,0.2-0.8
			c0-0.3-0.1-0.5-0.3-0.7c-0.2-0.2-0.4-0.4-0.6-0.4c-0.2-0.1-0.6-0.1-0.9-0.2c-0.3-0.1-0.6-0.1-1-0.3c-0.2-0.1-0.3-0.3-0.4-0.5
			c-0.1-0.2-0.1-0.4-0.1-0.5c0-0.6,0-1.2,0-1.8l0-1.8l0.2,0.3l-0.3-0.1l0.4-0.2c-0.1,0.4-0.3,0.9-0.5,1.2c-0.2,0.4-0.6,0.7-0.9,1
			c-0.7,0.5-1.4,0.9-2,1.4l-0.8,0.5l0.2-1l0.5-2.9l0.4,0.5l-1.5-0.2c-0.1,0-0.2,0-0.4,0c-0.1,0-0.3,0-0.5-0.1
			c-0.2-0.1-0.4-0.2-0.5-0.4c-0.2-0.2-0.2-0.5-0.2-0.6c0-0.2,0-0.4,0.1-0.5l0.1-0.4c0.1-0.2,0.1-0.5,0.2-0.7l0.3-1.5l0.5,0.6l-2.1,0
			c-0.2,0-0.3,0-0.5,0c-0.2,0-0.4,0-0.6,0c-0.2,0-0.5-0.1-0.7-0.2c-0.2-0.1-0.4-0.4-0.5-0.6c-0.1-0.2-0.1-0.5-0.2-0.6
			c0.1,0.1-0.1-0.1,0,0l-1-0.2l-2-0.5l0.5-0.7c0.2,0.3,0.3,0.7,0.4,1c0.1,0.2,0.1,0.4,0.2,0.5c0.1,0.2,0.1,0.4,0.1,0.5
			c0.1,0.7,0.1,1.5,0,2.2c-0.2,1.4-0.5,2.7-0.5,4l-0.5-0.4l0.2,0l0,0l0,0c0,0,0.1,0-0.1,0l0,0l0,0l0,0l0.1,0l0.3-0.1l0.7-0.1
			l1.3-0.3c0.6-0.1,1.1,0.1,1.6,0.3c0.4,0.2,0.8,0.5,1.2,1c0.1,0.1,0.2,0.2,0.2,0.4c0,0.1,0,0.1,0,0.2c0,0.1,0,0.1,0,0.2
			c0,0.2,0,0.5,0,0.7c0,0.5,0,1-0.2,1.5c-0.2,0.5-0.6,0.9-1,1.2c-0.2,0.1-0.5,0.2-0.7,0.3c-0.1,0-0.3,0.2-0.5,0.4l0.1-0.5l3.3,4.5
			l-0.3-0.1c0.2-0.1,0.4-0.2,0.5-0.3c0.1-0.1,0.2-0.1,0.2-0.2c0.1-0.1,0.2-0.1,0.2-0.2c0.1-0.1,0.2-0.3,0.3-0.5
			c0.1-0.2,0.1-0.4,0.1-0.6c0-0.8-0.4-1.7-0.3-2.6l0-0.2l0.2,0.1c0.4,0.1,0.7,0.3,1,0.5c0.2,0.1,0.3,0.2,0.5,0.2
			c0.2,0,0.3,0.1,0.5,0c0.3-0.1,0.6-0.5,0.8-0.8C65.1,73.6,65.3,73.3,65.5,73z"/>
	</g>
	<g>
		<path class="st0" d="M25.8,81.8c0.6-1.4,1.2-2.6,2.3-3.5c2.9-2.6,5.7-5.3,8.5-8c0.5-0.5,0.8-1.2,1.1-1.9c0.4-0.8,0.7-1.7,1.4-2.5
			c0.2,1.2,0.5,2.3,0.7,3.5c0,0.2-0.2,0.5-0.4,0.6c-0.6,0.4-1.2,0.9-1.9,1.2c-1.9,1-3.1,2.7-4.2,4.5C31.6,78.4,29.5,81.2,25.8,81.8z
			"/>
		<path class="st1" d="M25.8,81.8c0.3-0.8,0.6-1.7,1.1-2.4c0.5-0.8,1.2-1.4,1.8-2l3.7-3.7c1.2-1.2,2.5-2.5,3.8-3.7
			c0.2-0.2,0.3-0.3,0.4-0.4c0.1-0.2,0.2-0.3,0.3-0.5l0.6-1.2c0.4-0.8,0.7-1.6,1.3-2.4l0.7-0.9l0.2,1.1l0.6,2.8
			c0,0.3,0.1,0.4,0.1,0.7c0,0.4-0.1,0.5-0.2,0.7c-0.1,0.1-0.2,0.2-0.3,0.3l-1.2,0.8l-0.6,0.4c-0.2,0.1-0.4,0.2-0.6,0.4
			c-0.4,0.2-0.7,0.5-1.1,0.8c-0.7,0.6-1.3,1.3-1.8,2.1c-0.5,0.8-1,1.6-1.6,2.3c-0.6,0.8-1.2,1.5-1.9,2.2c-0.7,0.7-1.5,1.3-2.4,1.7
			c-0.4,0.2-0.9,0.4-1.3,0.5C26.7,81.7,26.3,81.8,25.8,81.8z M25.8,81.8c0.5-0.1,0.9-0.3,1.3-0.4c0.4-0.2,0.9-0.4,1.3-0.6
			c0.8-0.5,1.5-1.1,2.1-1.8c0.6-0.7,1.2-1.4,1.7-2.2c0.5-0.8,1-1.6,1.5-2.4c0.5-0.8,1.1-1.6,1.9-2.3c0.4-0.3,0.8-0.6,1.2-0.9
			c0.2-0.1,0.4-0.3,0.6-0.4l0.6-0.4l1.1-0.8c0,0,0.1-0.1,0.2-0.2c0,0,0.1-0.2,0,0l-0.1-0.7L38.6,66l0.9,0.2
			c-0.5,0.6-0.8,1.4-1.2,2.2l-0.6,1.2c-0.1,0.2-0.2,0.4-0.4,0.6c-0.1,0.2-0.4,0.4-0.5,0.6c-1.3,1.2-2.6,2.4-3.9,3.5L29,77.8
			c-0.7,0.6-1.4,1.1-1.9,1.8C26.6,80.3,26.2,81,25.8,81.8z"/>
	</g>
	<g>
		<path class="st0" d="M69.5,57.2c0.2,0,0.4,0,0.6,0c1.3,0.5,2.5,0.4,3.8,0c0.7-0.2,1.1-0.1,1.5,0.6c0.7,1.2,1,2.3,1,3.7
			c0,0.8,0.3,1.7,0.6,2.6c0.1,0.5,0.3,1,0.5,1.7c-1.1,0-2.1,0-3.1,0c-0.8-0.1-1.1,0.2-1.1,1.1c0,1.2,0.1,2.3,0.9,3.2
			c0.2,0.3,0.3,0.6,0.6,1c-0.9,0.1-1.7,0.2-2.7,0.3c0-1,0-1.8,0-2.6c0-0.6-0.1-1-0.7-1.1c-1.1-0.2-1.4-0.9-1.3-2
			c0.1-0.6,0-1.1,0-1.9c0.7,0.1,1.3,0.2,1.9,0.3c0.8,0.3,1.1,0,1.2-0.8c0-0.1,0-0.1,0.1-0.2c0.4-1,0.2-1.6-0.8-1.9
			C70.2,60.7,69.9,59,69.5,57.2z"/>
		<path class="st1" d="M69.5,57.2c0.2,0,0.3,0,0.5,0c0.2,0,0.3,0.1,0.4,0.1c0.3,0.1,0.6,0.1,0.9,0.1c0.6,0,1.2,0,1.8-0.2
			c0.3-0.1,0.6-0.2,0.9-0.3c0.3-0.1,0.7-0.1,1,0.1c0.3,0.2,0.5,0.5,0.7,0.8c0.2,0.3,0.3,0.5,0.4,0.8c0.3,0.6,0.4,1.2,0.5,1.8
			c0,0.3,0.1,0.6,0.1,0.9c0,0.3,0,0.5,0.1,0.8c0.1,0.5,0.3,1.1,0.5,1.7l0.5,1.7l0.2,0.5l-0.6,0l-2.4,0l-0.6,0l-0.3,0
			c-0.1,0-0.1,0-0.2,0c-0.1,0-0.1,0-0.2,0.1c0,0.1-0.1,0.2-0.1,0.4c0,0.2,0,0.4,0,0.6c0,0.2,0,0.4,0,0.6c0,0.4,0.1,0.7,0.2,1
			c0.1,0.3,0.3,0.6,0.5,0.9c0.1,0.2,0.3,0.4,0.4,0.6l0.3,0.5l0.3,0.6l-0.7,0.1L72,71.8l-0.5,0.1l0-0.5l0-2.2c0-0.4,0-0.7,0-0.9
			c0-0.1-0.1-0.1-0.2-0.2c0,0-0.1,0-0.2,0c-0.1,0-0.2,0-0.3-0.1c-0.2-0.1-0.4-0.2-0.6-0.3c-0.2-0.1-0.4-0.3-0.5-0.5
			c-0.3-0.4-0.3-0.9-0.3-1.3l0-0.5c0-0.2,0-0.3,0-0.5l0-1.1l0-0.5l0.4,0.1c0.5,0.1,0.9,0.1,1.5,0.3c0.3,0.1,0.5,0.2,0.7,0.2
			c0.2,0,0.3,0,0.4,0c0.1-0.1,0.2-0.3,0.2-0.5l0,0c0-0.1,0-0.1,0-0.1l0-0.1l0,0l0-0.1l0,0l0-0.1c0.1-0.1,0.1-0.2,0.1-0.3
			c0.1-0.4,0-0.8-0.3-1c-0.2-0.1-0.4-0.2-0.6-0.3c-0.2-0.1-0.5-0.2-0.7-0.3c-0.4-0.3-0.8-0.7-1.1-1.1C69.8,59.1,69.6,58.1,69.5,57.2
			z M69.5,57.2c0.2,0.9,0.5,1.9,1,2.7c0.3,0.4,0.6,0.7,1,0.9c0.2,0.1,0.4,0.2,0.6,0.2c0.2,0.1,0.5,0.1,0.7,0.3
			c0.2,0.1,0.5,0.4,0.6,0.7c0.1,0.3,0.1,0.6,0,0.9c0,0.1-0.1,0.3-0.1,0.4l0,0.1l0,0c0-0.1,0,0,0,0l0,0l0,0.1c0,0,0,0.1,0,0l0,0.1
			c0,0.3-0.1,0.6-0.3,0.8c-0.3,0.3-0.7,0.3-1,0.2c-0.3-0.1-0.5-0.1-0.7-0.2c-0.4-0.1-0.9-0.1-1.4-0.2l0.5-0.4l0,1.1
			c0,0.2,0,0.4,0,0.6l0,0.5c0,0.3,0,0.6,0.2,0.8c0.1,0.2,0.3,0.3,0.6,0.4c0.1,0,0.2,0,0.2,0.1c0.1,0,0.2,0.1,0.4,0.1
			c0.2,0.1,0.5,0.3,0.6,0.6c0.1,0.3,0.1,0.5,0.1,0.7v0.6l0,2.1l-0.5-0.5l2.7-0.4l-0.4,0.7c-0.1-0.2-0.2-0.4-0.3-0.5
			c-0.1-0.2-0.1-0.3-0.3-0.4c-0.3-0.4-0.5-0.7-0.6-1.2c-0.2-0.4-0.2-0.9-0.3-1.3c0-0.2,0-0.4,0-0.6c0-0.2,0-0.4,0-0.6
			c0-0.2,0-0.5,0.2-0.8c0.2-0.3,0.5-0.5,0.8-0.5c0.1,0,0.3,0,0.4,0l0.3,0l0.6,0l2.4,0l-0.4,0.5c-0.2-0.6-0.3-1.1-0.5-1.7
			c-0.1-0.6-0.3-1.1-0.4-1.8c-0.1-0.3-0.1-0.7-0.1-1c0-0.3,0-0.6,0-0.9c-0.1-0.6-0.2-1.1-0.4-1.7c-0.1-0.3-0.2-0.5-0.4-0.8
			c-0.1-0.3-0.3-0.5-0.5-0.6c-0.4-0.3-1,0.1-1.6,0.1c-0.6,0.1-1.2,0.1-1.8,0c-0.3,0-0.6-0.1-0.9-0.2c-0.1,0-0.3-0.1-0.4-0.2
			C69.8,57.2,69.6,57.2,69.5,57.2z"/>
	</g>
	<g>
		<path class="st0" d="M49.4,58.7c-1.3-2.5-2.6-4.9-3.8-7.2c1.8-0.6,4.7,0.3,5.9,1.9c0.5,0.7,0.4,3-0.3,3.6
			C50.7,57.6,50.1,58.1,49.4,58.7z"/>
		<path class="st1" d="M49.4,58.7c-0.4-0.6-0.8-1.1-1.1-1.7c-0.4-0.6-0.7-1.2-1.1-1.7c-0.7-1.2-1.4-2.3-2-3.5l-0.3-0.5l0.6-0.2
			c1.2-0.3,2.4-0.2,3.4,0.1c1.1,0.3,2.1,0.9,2.9,1.9l0.1,0.1c0,0,0,0,0.1,0.1l0,0c0,0.1,0.1,0.1,0.1,0.2c0.1,0.2,0.1,0.3,0.1,0.5
			c0.1,0.3,0.1,0.6,0,0.9c0,0.6-0.1,1.1-0.3,1.7c-0.1,0.3-0.3,0.6-0.5,0.8l-0.6,0.5C50.3,58.1,49.8,58.4,49.4,58.7z M49.4,58.7
			c0.3-0.4,0.7-0.8,1.1-1.2l0.5-0.6c0.2-0.2,0.2-0.4,0.3-0.6c0.1-0.5,0.1-1,0.1-1.5c0-0.2,0-0.5-0.1-0.7c0-0.1-0.1-0.2-0.1-0.3
			c0,0,0-0.1-0.1-0.1l0,0c0,0.1,0,0,0,0l-0.1-0.1c-0.3-0.4-0.7-0.7-1.1-0.9c-0.4-0.2-0.9-0.4-1.4-0.6c-0.9-0.3-2-0.4-2.9-0.1
			l0.3-0.7c0.6,1.2,1.2,2.4,1.8,3.7c0.3,0.6,0.6,1.2,0.8,1.9C48.9,57.5,49.2,58.1,49.4,58.7z"/>
	</g>
</g>
</svg>
