<?xml version="1.0" encoding="utf-8"?>
<!-- Generator: Adobe Illustrator 19.2.1, SVG Export Plug-In . SVG Version: 6.00 Build 0)  -->
<svg version="1.1" id="Layer_1" xmlns="http://www.w3.org/2000/svg" xmlns:xlink="http://www.w3.org/1999/xlink" x="0px" y="0px"
	 viewBox="0 0 110 125" style="enable-background:new 0 0 110 125;" xml:space="preserve">
<style type="text/css">
	.st0{fill:#009245;}
	.st1{fill:#FFFFFF;}
</style>
<g id="Island_3_6_">
	<g>
		<path class="st0" d="M51.7,75.2c-1.1-0.9-3.1-0.9-4.3-0.2c-0.6,0.4-1.2,0.7-1.9,1c-0.1,0.1-0.4,0.2-0.5,0.1
			c-1.5-0.6-2.7,0.4-4.1,0.6c-1,0.1-2,0.5-3,0.8c-0.3,0.1-0.6-0.1-0.9-0.2c-0.6-0.4-0.9-0.3-1.1,0.3c0,0.1-0.1,0.3-0.2,0.4
			c-0.7,1.5-1,1.7-2.5,1.1c-1.1-0.5-2.1-0.1-3.2-0.1c-0.8,0-1.6-0.1-2.3-0.5c-0.3-0.2-0.2-1.1-0.2-1.7c0-0.2,0.3-0.5,0.6-0.5
			c1.4-0.2,2.6-0.7,3.7-1.6c1.5-1.2,3.1-2.1,4.7-3.2c0.7-0.5,1.3-1.2,2.1-1.6c0.9-0.5,1.8-0.5,2.8-0.4c2.7,0.2,5.3,0.1,8-0.5
			c1.2-0.3,2.5-0.4,3.8-0.6c0.1,0.4,0.1,0.6,0.1,0.9c0.4,0.1,0.9,0.1,1.3,0.2c1.3,0.5,2.1-0.6,3-1c0.2-0.1,0.2-0.5,0.2-0.8
			c-0.2-1.5,0.4-2.6,1.7-3.5c1-0.6,1.8-1.5,2.2-2.7c0.1-0.3,0.2-0.5,0.2-0.8c0.1-2,1.3-2.9,3.4-2.6c0.1,0.6,0,0.9-0.6,1.2
			c-1.3,0.6-1.6,1.4-1,2.7c0.2,0.4,1.3,0.4,2,0c0.4-0.2,0.7-0.6,1-0.8c0.7-0.3,1.4-0.6,2.1-0.7c1.8-0.5,3.2-1.6,4.4-2.9
			c1-1.1,1.9-2.1,3.4-2.5c0.5-0.1,0.8-0.8,1.1-1.3c0.3-0.6,0.5-1.3,0.8-2c0.9-1.7,1.9-3.3,2.6-5c0.7-1.8,0.4-2.1-1.3-2.8
			c-0.1,0-0.1-0.1-0.2-0.2c0.1-0.1,0.3-0.2,0.4-0.3c0.8-0.7,1.3-1.4,1.1-2.5c-0.1-0.4-0.1-0.8,0-1.1c0.1-0.4,0.4-0.9,0.6-0.9
			c0.7-0.1,0.8-0.5,0.8-1.1c0-0.2,0.1-0.4,0.2-0.6c0.3-0.3,0.7-0.8,1.1-0.8c0.3,0,0.7,0.5,1,0.8c0.2,0.3,0.4,0.8,0.5,0.9
			c0.8-0.1,1.4-0.1,2-0.2c0.6,0,1-0.7,1-1.5c-0.4,0.1-0.8,0.2-1.2,0.4c-0.4,0.1-0.7,0.3-1-0.3c-0.3-0.6-0.3-1.1,0.2-1.5
			c0.3-0.2,0.7-0.2,1.1-0.1c0.4,0,0.7,0.2,1.1,0.2c1.3-0.1,1.3,0,1.3,1.3c0,0.7-0.1,1.5,0,2.2c0.1,0.6,0.3,1.4,0.7,1.7
			c1.4,1,1.7,2.6,2.4,4c0.8,1.4,0.8,2.8,0,4.2c-0.2,0.3-0.4,0.6-0.6,0.8c-1.4,0.7-1.7,2-1.8,3.4c0,0.1,0,0.2,0,0.3
			c-0.7,0.2-1.3,0.3-2,0.5c-1.1,0.2-1.4,1.1-1.3,2.2c0.1,1.5,0.3,3.1,0.5,4.6c0.1,0.5,0,0.9-0.5,1.2c-0.4,0.2-0.8,0.6-0.9,1
			c-0.4,1.1-0.7,2.3-0.9,3.5c-0.1,0.5,0.3,1.1,0.6,1.6c0.5,0.8,0.5,0.9-0.2,1.4c-0.4,0.3-0.8,0.7-0.9,1.1c-0.7,1.8-2.4,2.5-4.1,3.4
			c-0.5-1.7,0-3.1,1-4.3c-1-0.3-1-0.3-2.2,2.6c-0.5-0.2-1-0.4-1.5-0.5c-0.9-0.1-1.3,0.4-1.4,1.2c-0.1,0.4-0.2,0.8-0.2,1.2
			c0,0.7-0.4,1-0.9,1.2c-0.6,0.2-1,0.1-1.1-0.7c0-0.3,0-0.7,0-1c0-0.7-0.5-0.8-0.9-0.5c-0.7,0.6-1.4,1.2-2,2
			c-0.3,0.4-0.6,0.7-1.2,0.6c-0.7-0.1-1.4-0.2-2.1-0.2c-1.3,0-2.5,0-3.8,0c0.1-0.1,0.2-0.3,0.4-0.7c-0.6-0.1-1-0.1-1.5-0.2
			c-0.1,0.1-0.1,0.2-0.2,0.3c-0.3-0.6-0.5-1.1-0.8-1.9c-0.4,0.7-0.8,1.4-1.2,2.1c0.8,0.8,2.4,1,1.7,2.6c-1.2-0.4-2.8,0.1-3.5,1.2
			c-0.4,0.7-0.9,1.4-1.3,2c-1.1,1.6-2.5,1.3-3.7,0c-0.2-0.2-0.4-0.5-0.7-0.6c-0.7-0.2-0.9-0.7-0.9-1.4c0-0.9-0.1-1.8,0.7-2.5
			c0.3-0.3,0.5-0.8,0.8-1.3C53.2,75,52.4,75.1,51.7,75.2L51.7,75.2z M80,43.8c1.7,0.8,1.9,1.1,1.5,2.9c-0.5,2-1.5,3.7-2.7,5.4
			c-0.4,0.6-0.4,1.3-0.8,1.9c-0.3,0.5-0.7,1.2-1.2,1.3c-1.4,0.4-2.3,1.3-3.2,2.4c-1.3,1.5-2.7,2.7-4.7,3.2c-1,0.2-1.8,0.9-2.8,1.3
			c-0.7,0.3-1.4,0.4-2.1,0.4c-0.1,0-0.3-0.7-0.4-1.2c-0.3-1.2-0.1-1.6,1-2.1c0.1-0.1,0.3-0.1,0.4-0.2c0.1-0.1,0.3-0.3,0.2-0.5
			c0-0.1-0.3-0.2-0.5-0.2c-1.3,0-2.4,1.1-2.5,2.4c0,0.5-0.2,0.9-0.4,1.4c-0.4,1.2-1.4,1.9-2.4,2.6c-0.9,0.6-1.4,1.3-1.3,2.5
			c0,0.5,0,1.3-0.3,1.4c-1,0.6-1.9,1.6-3.3,1.1c-0.1-0.1-0.3-0.1-0.4-0.1c-0.6,0-1.2-0.1-1-1.1c-1.3,0.2-2.6,0.3-3.8,0.6
			c-2.8,0.7-5.7,0.7-8.6,0.4c-1.1-0.1-2.1,0.3-2.9,1c-1.6,1.4-3.2,2.8-5.1,3.9c-1.4,0.8-2.7,1.9-4.5,2c-0.2,0-0.4,0.4-0.4,0.7
			c0,0.4,0.1,1,0.3,1c0.7,0.2,1.4,0.4,2.1,0.4c1.1,0,2.1-0.3,3.3,0.1c1.6,0.5,1.4,0.7,2.1-1c0.1-0.2,0.2-0.4,0.3-0.5
			c0.3-0.6,0.7-0.8,1.3-0.3c0.2,0.2,0.6,0.3,0.9,0.2c0.9-0.2,1.8-0.6,2.8-0.7c1.4-0.1,2.7-1.2,4.3-0.7c0.1,0,0.3,0,0.5-0.1
			c0.6-0.3,1.2-0.7,1.8-1c0.4-0.2,0.9-0.4,1.4-0.5c1.8-0.2,3.6,0.9,5.4,0.4c0,0,0.1,0.1,0.2,0.2c-0.4,0.6-0.8,1.3-1.3,2
			c-0.7,0.9-0.4,2.6,0.7,3.1c0.2,0.1,0.4,0.4,0.6,0.6c1.1,1.2,2.5,1.4,3.4-0.1c0.4-0.6,0.8-1.2,1.2-1.8c0.7-1.1,2.3-1.9,3.6-1.7
			c0.3-1.5-1.4-1.3-1.8-2.3c0.6-0.6,0.7-1.8,1.8-2.2c0.2,0.6,0.3,1.1,0.4,1.5c0.4,0,0.7-0.1,0.9-0.1c1.2,0.5,2.4,1,3.8,0.9
			c0.8-0.1,1.7,0.1,2.5,0.2c0.5,0.1,0.7-0.1,1-0.5c0.5-0.7,1.1-1.3,1.8-1.8c0.3-0.3,0.9-0.3,1.4-0.4c0.1,0.8,0.1,1.4,0.2,2
			c0,0.2,0.4,0.4,0.6,0.4c0.8-0.2,0.9-0.9,0.9-1.6c0.1-0.8,0.2-1.6,1-1.9c0.6-0.2,1.4,0,2.2,0c0.2-0.4,0.4-0.8,0.7-1.3
			c0.5-1.2,0.5-1.2,2-0.9c-0.6,1.3-1.8,2.5-1.2,4.3c1.2-0.8,2.6-1.2,3.3-2.6c0.4-0.7,1.1-1.3,1.6-2c0.1-0.2,0.2-0.6,0-0.7
			c-0.8-0.7-0.8-1.7-0.7-2.6c0.2-1.6,0.4-3.2,2.1-4.1c0.1-0.1,0.2-0.5,0.2-0.7c-0.2-1.5-0.4-3.1-0.5-4.6c-0.1-2,0.6-2.6,2.5-2.8
			c0.6-0.1,0.8-0.2,0.9-0.8c0.2-1.2,0.4-2.5,1.8-3.1c0.3-0.1,0.5-0.4,0.6-0.7c0.6-1.3,0.8-2.5,0.1-3.9c-0.7-1.2-1.3-2.4-2-3.7
			c-0.3-0.6-0.9-1.1-1.1-1.8c-0.2-0.9-0.1-1.9-0.1-2.8c0-0.3,0-0.7-0.1-1c-0.5,0-0.8,0-1.2,0c-0.4,0-0.7-0.2-1.1-0.2
			c-0.3,0-0.7,0-0.8,0.1c-0.2,0.3-0.2,0.7-0.1,1.1c0,0.2,0.6,0.3,0.8,0.3c0.5-0.1,1-0.4,1.5-0.6c0.1,1.4-0.5,2.1-1.9,2.1
			c-0.2,0-0.5,0.1-0.7,0.2c-0.5,0.5-0.8,0.2-1.1-0.3c-0.1-0.3-0.2-0.6-0.4-0.8c-0.2-0.3-0.6-0.7-0.8-0.7c-0.3,0-0.7,0.4-0.9,0.7
			c-0.2,0.2-0.1,0.6-0.2,0.9c-0.1,0.2-0.3,0.6-0.4,0.6c-0.9,0.1-1.1,0.7-1,1.4C81.3,41.7,81.3,42.9,80,43.8z"/>
		<g>
			<path class="st1" d="M51.7,75.2c-1-0.7-2.2-0.8-3.3-0.5c-0.6,0.1-1,0.5-1.6,0.8c-0.5,0.3-1,0.6-1.6,0.8c-0.2,0-0.3-0.1-0.5-0.1
				c-0.1,0-0.3-0.1-0.4-0.1c-0.3,0-0.6,0-0.8,0c-0.6,0.1-1.1,0.3-1.7,0.5c-0.6,0.2-1.2,0.2-1.7,0.4c-0.6,0.1-1.1,0.3-1.7,0.5
				c-0.3,0.1-0.6,0.2-0.9,0.1c-0.3,0-0.6-0.3-0.8-0.4c-0.5-0.3-0.6,0.5-0.9,1c-0.1,0.3-0.3,0.5-0.4,0.8c-0.2,0.2-0.4,0.5-0.8,0.6
				c-0.7,0.1-1.2-0.3-1.8-0.4c-1.1-0.3-2.3,0.2-3.4,0c-0.6-0.1-1.2-0.1-1.8-0.5c-0.2-0.2-0.2-0.4-0.3-0.5c0-0.2,0-0.3,0-0.5l0-0.4
				l0-0.2c0-0.1,0-0.1,0-0.3c0.1-0.2,0.2-0.3,0.4-0.4c0.1-0.1,0.4-0.2,0.5-0.2c0.3,0,0.6-0.1,0.8-0.2c0.5-0.1,1.1-0.4,1.6-0.6
				c0.5-0.3,0.9-0.6,1.4-1c0.5-0.4,0.9-0.7,1.4-1c1-0.7,1.9-1.3,2.9-2c0.9-0.6,1.6-1.7,2.9-2c1.3-0.3,2.4,0,3.6,0
				c1.1,0,2.3,0,3.4-0.1c1.1-0.1,2.3-0.3,3.4-0.6c1.2-0.2,2.3-0.3,3.5-0.5l0.4-0.1l0.1,0.4l0.1,0.9l-0.3-0.3
				c0.4,0.1,0.8,0.1,1.2,0.2c0.2,0.1,0.4,0.1,0.5,0.1c0.2,0,0.3,0,0.5,0c0.3-0.1,0.6-0.3,0.9-0.5l0.5-0.3c0.1-0.1,0.2-0.1,0.3-0.2
				c0.1,0,0.3-0.2,0.1,0c0,0,0.1-0.2,0.1-0.4c0-0.1,0-0.4,0-0.6c0-0.4,0-0.9,0.2-1.3c0.3-0.9,0.9-1.5,1.6-2c0.3-0.2,0.6-0.4,0.9-0.7
				c0.3-0.2,0.5-0.5,0.7-0.8c0.2-0.3,0.4-0.6,0.5-1c0.1-0.2,0.1-0.4,0.2-0.5c0-0.1,0-0.2,0-0.2l0-0.3c0-0.4,0.1-0.9,0.3-1.3
				c0.2-0.4,0.5-0.8,0.9-1c0.8-0.5,1.8-0.5,2.6-0.4l0.3,0l0.1,0.3c0,0.2,0.1,0.4,0,0.7c0,0.3-0.2,0.5-0.4,0.7
				c-0.4,0.3-0.7,0.4-1,0.6c-0.5,0.3-0.6,0.7-0.5,1.3c0,0.1,0.1,0.3,0.2,0.4c0,0,0,0.1,0,0l0,0.1c0,0,0,0,0,0c0,0,0,0,0.1,0
				c0.2,0.1,0.5,0,0.8,0c0.3-0.1,0.5-0.2,0.7-0.4c0.1-0.1,0.3-0.2,0.4-0.4c0.2-0.1,0.4-0.2,0.5-0.3c0.7-0.3,1.4-0.5,2.1-0.7
				c0.7-0.2,1.2-0.4,1.8-0.8c0.6-0.3,1.1-0.8,1.6-1.2c0.5-0.5,0.9-1,1.4-1.5c0.5-0.5,1.1-1,1.7-1.4c0.3-0.2,0.7-0.3,1.1-0.4
				c0.2,0,0.3-0.2,0.5-0.5c0.4-0.5,0.6-1.1,0.8-1.8c0.2-0.7,0.6-1.3,0.9-2c0.7-1.2,1.4-2.4,1.9-3.7c0.3-0.6,0.5-1.3,0.3-1.6
				c-0.1-0.1-0.4-0.3-0.7-0.4c-0.1-0.1-0.3-0.1-0.5-0.2l-0.1,0c-0.1,0,0,0-0.2-0.1c-0.2-0.2-0.2-0.2-0.3-0.2l-0.4-0.3l0.4-0.4
				l0.5-0.5c0.2-0.1,0.3-0.3,0.4-0.5c0.3-0.3,0.4-0.7,0.4-1.1c0-0.2,0-0.3-0.1-0.6c0-0.3,0-0.6,0-0.9c0.1-0.3,0.2-0.6,0.3-0.8
				c0.1-0.1,0.1-0.3,0.3-0.4c0.1-0.1,0.1-0.2,0.3-0.2c0,0,0.2-0.1,0.2-0.1l0.1,0c0.2,0,0.2-0.1,0.2-0.1c0-0.1,0.1-0.3,0.1-0.5
				c0-0.2,0-0.3,0.1-0.5c0-0.1,0.1-0.2,0.2-0.3l0.1-0.1c0.2-0.2,0.3-0.4,0.6-0.5c0.1-0.1,0.3-0.2,0.4-0.3c0.1,0,0.2-0.1,0.4-0.1l0,0
				c0,0,0.1,0,0.1,0c0.1,0,0.1,0,0.2,0.1c0.4,0.2,0.5,0.4,0.7,0.6l0.2,0.3c0.1,0.1,0.2,0.3,0.2,0.4c0.1,0.2,0.2,0.5,0.3,0.7
				l-0.5-0.3l2-0.2c0.1,0,0.1,0,0.1,0c0,0,0.1,0,0.1-0.1c0.1-0.1,0.1-0.1,0.2-0.2c0.1-0.2,0.2-0.5,0.2-0.7l0.6,0.5l-0.8,0.2
				c-0.3,0.1-0.5,0.2-0.9,0.2c-0.2,0-0.6-0.1-0.8-0.2c-0.1-0.1-0.2-0.2-0.2-0.3l-0.1-0.1l-0.1-0.1c-0.2-0.3-0.3-0.7-0.2-1.2
				c0.1-0.2,0.2-0.4,0.3-0.6c0.1-0.1,0.1-0.1,0.2-0.2c0.1-0.1,0.2-0.2,0.3-0.2c0.4-0.1,0.7-0.1,1-0.1c0.1,0,0.4,0,0.5,0.1l0.4,0.1
				c0.1,0,0.1,0,0.3,0l0.5,0c0.2,0,0.3,0,0.6,0.1c0.2,0,0.6,0.3,0.6,0.6c0.1,0.5,0.1,0.7,0.1,1c0,0.6-0.1,1.2,0,1.7
				c0,0.5,0.1,1.1,0.3,1.5c0.1,0.2,0.2,0.4,0.3,0.5c0.2,0.2,0.5,0.4,0.7,0.6c0.8,1,1.2,2.1,1.7,3.1c0.2,0.4,0.6,1.1,0.7,1.7
				c0.2,0.6,0.2,1.3,0,1.9c-0.1,0.6-0.4,1.2-0.7,1.7c-0.1,0.1-0.2,0.3-0.3,0.4c-0.1,0.1-0.3,0.3-0.4,0.3c-0.2,0.1-0.4,0.3-0.6,0.4
				c-0.3,0.3-0.6,0.8-0.7,1.3c-0.1,0.5-0.2,1-0.3,1.6l0,0.3l-0.3,0.1L88.9,54c-0.6,0.1-0.9,0.2-1.1,0.6c-0.2,0.3-0.3,0.8-0.2,1.3
				c0,0.5,0.1,1.1,0.1,1.6l0.2,1.6c0.1,0.6,0.2,1,0.2,1.7c0,0.3-0.1,0.8-0.5,1.1c-0.3,0.3-0.5,0.3-0.7,0.5c-0.2,0.1-0.3,0.3-0.4,0.5
				l-0.2,0.8c-0.2,0.5-0.3,1-0.4,1.6c-0.1,0.3-0.1,0.5-0.1,0.8c0,0.1,0,0.2,0,0.4c0,0.1,0,0.2,0,0.3c0.1,0.4,0.4,0.8,0.7,1.3
				c0.1,0.1,0.2,0.3,0.2,0.6c0,0.4-0.2,0.6-0.3,0.7c-0.3,0.2-0.5,0.3-0.7,0.5c-0.2,0.2-0.3,0.3-0.5,0.5c-0.1,0.2-0.2,0.4-0.4,0.7
				c-0.3,0.5-0.7,1-1.1,1.4c-0.9,0.8-1.9,1.2-2.9,1.7l-0.4,0.2l-0.1-0.5c-0.2-0.8-0.3-1.7-0.1-2.5c0.2-0.8,0.7-1.5,1.2-2.2l0.2,0.6
				c-0.1-0.1-0.3-0.1-0.4-0.1c-0.1,0-0.1,0-0.2,0c-0.1,0.1-0.3,0.4-0.4,0.7c-0.3,0.6-0.5,1.2-0.8,1.7l-0.1,0.3l-0.3-0.1
				c-0.4-0.2-0.8-0.3-1.2-0.4c-0.4-0.1-0.7-0.1-0.9,0.1c-0.2,0.2-0.4,0.6-0.4,1c0,0.2-0.1,0.4-0.1,0.6c0,0.2,0,0.4-0.1,0.7
				c-0.1,0.6-0.6,1-1,1.1c-0.2,0.1-0.5,0.2-0.8,0.1c-0.3,0-0.6-0.4-0.7-0.6C74,74.4,74.1,74.2,74,74l0-0.6c0-0.2,0-0.4-0.1-0.4
				c0,0-0.1-0.1-0.2,0c-0.3,0.2-0.6,0.5-0.9,0.8c-0.3,0.3-0.6,0.6-0.9,0.9c-0.3,0.3-0.5,0.7-1,1c-0.3,0.1-0.6,0.1-0.8,0.1l-0.6-0.1
				l-1.3-0.1c-0.4,0-0.8,0-1.3,0l-2.6,0l-0.5,0l0.2-0.4l0.4-0.7l0.2,0.4l-1.5-0.2l0.2-0.1l-0.2,0.3l-0.2,0.4l-0.2-0.4l-0.8-1.9
				l0.4,0l-1.3,2.1l0-0.2c0.4,0.4,1,0.6,1.4,1c0.2,0.2,0.4,0.5,0.5,0.9c0,0.3-0.1,0.7-0.2,0.9l-0.1,0.1l-0.2-0.1
				c-0.6-0.2-1.4-0.2-2.1,0.1c-0.3,0.1-0.6,0.3-0.9,0.6c-0.3,0.2-0.4,0.6-0.6,0.9l-0.6,0.9c-0.2,0.3-0.4,0.6-0.6,0.9
				c-0.3,0.3-0.5,0.6-0.9,0.7c-0.4,0.2-0.8,0.2-1.2,0.1c-0.8-0.2-1.3-0.8-1.8-1.3c-0.1-0.1-0.3-0.3-0.4-0.3
				c-0.2-0.1-0.4-0.1-0.5-0.3c-0.3-0.3-0.4-0.7-0.4-1c0-0.7-0.1-1.5,0.3-2.2c0.2-0.3,0.5-0.5,0.7-0.9c0.2-0.3,0.3-0.7,0.5-1l0,0
				L51.7,75.2L51.7,75.2L51.7,75.2z M51.7,75.2L51.7,75.2L51.7,75.2l2.5-0.3l0,0l0,0c-0.2,0.3-0.3,0.7-0.5,1
				c-0.2,0.3-0.5,0.5-0.7,0.9c-0.4,0.6-0.3,1.4-0.2,2.2c0,0.4,0.1,0.7,0.4,0.9c0.1,0.1,0.3,0.2,0.5,0.2c0.2,0.1,0.3,0.2,0.5,0.3
				c0.5,0.5,1.1,1.1,1.8,1.2c0.3,0.1,0.7,0.1,1-0.1c0.3-0.1,0.6-0.4,0.8-0.7c0.2-0.3,0.4-0.6,0.6-0.9l0.6-0.9
				c0.2-0.3,0.4-0.6,0.7-0.9c0.3-0.3,0.6-0.5,1-0.7c0.7-0.3,1.5-0.4,2.3-0.2l-0.2,0.1c0.1-0.3,0.2-0.5,0.2-0.8
				c0-0.2-0.2-0.5-0.4-0.6c-0.4-0.4-1-0.6-1.5-1l-0.1-0.1l0.1-0.1l1.2-2.1l0.2-0.4l0.2,0.4l0.9,1.9l-0.4,0l0.2-0.3l0.1-0.1l0.2,0
				l1.5,0.2l0.4,0L65,74.6l-0.4,0.7l-0.2-0.4l2.6,0c0.4,0,0.8,0,1.3,0l1.3,0.1c0.4,0,0.9,0.1,1.1,0c0.3-0.1,0.5-0.5,0.8-0.8
				c0.3-0.3,0.6-0.7,0.9-0.9c0.3-0.3,0.6-0.6,1.1-0.9c0.1-0.1,0.3-0.1,0.5-0.1c0.2,0,0.4,0.1,0.5,0.3c0.2,0.3,0.2,0.6,0.2,0.8l0,0.6
				c0,0.2,0,0.4,0.1,0.6c0.1,0.1,0.1,0.2,0.2,0.2c0.1,0,0.3,0,0.5-0.1c0.4-0.1,0.6-0.4,0.6-0.7c0-0.1,0-0.4,0-0.6
				c0-0.2,0.1-0.5,0.1-0.7c0.1-0.4,0.2-0.9,0.6-1.3c0.2-0.2,0.5-0.3,0.8-0.3c0.1,0,0.3,0,0.4,0c0.1,0,0.2,0,0.4,0.1
				c0.5,0.1,0.8,0.3,1.2,0.4l-0.4,0.2c0.3-0.6,0.5-1.2,0.8-1.8c0.2-0.3,0.3-0.6,0.6-0.9c0.1-0.1,0.2-0.2,0.4-0.2c0.1,0,0.3,0,0.4,0
				c0.2,0,0.4,0.1,0.5,0.1l0.5,0.2l-0.3,0.4c-0.5,0.6-0.9,1.2-1,1.9c-0.2,0.7-0.1,1.4,0.1,2.1l-0.6-0.2c1-0.6,2-1,2.7-1.7
				c0.4-0.3,0.7-0.7,0.9-1.1c0.1-0.2,0.2-0.5,0.4-0.8c0.2-0.3,0.4-0.5,0.6-0.7c0.3-0.2,0.5-0.4,0.6-0.5c0.1-0.1,0.1-0.1,0.1,0
				c0,0,0-0.1-0.1-0.2c-0.3-0.4-0.6-0.9-0.8-1.6c0-0.2-0.1-0.3-0.1-0.5c0-0.1,0-0.3,0.1-0.4c0-0.3,0.1-0.6,0.2-0.8
				c0.1-0.5,0.3-1.1,0.4-1.6l0.3-0.8c0.1-0.4,0.4-0.6,0.6-0.8c0.2-0.2,0.6-0.4,0.7-0.5c0.1-0.1,0.1-0.2,0.2-0.4
				c0-0.4-0.1-1.1-0.2-1.6l-0.2-1.6c-0.1-0.5-0.1-1.1-0.1-1.7c0-0.6,0-1.2,0.4-1.8c0.2-0.3,0.5-0.6,0.8-0.7c0.2-0.1,0.3-0.1,0.5-0.2
				l0.4-0.1l1.6-0.4l-0.3,0.4c0.1-0.5,0.1-1.2,0.3-1.8c0.1-0.6,0.4-1.2,0.9-1.7c0.2-0.2,0.5-0.5,0.8-0.6c0.2-0.1,0.2-0.1,0.3-0.2
				c0.1-0.1,0.1-0.2,0.2-0.3c0.3-0.4,0.5-0.9,0.6-1.4c0.1-0.5,0.1-1,0-1.5c-0.1-0.5-0.3-0.9-0.6-1.5c-0.5-1.1-0.9-2.1-1.6-2.9
				c-0.2-0.2-0.3-0.3-0.6-0.5c-0.3-0.3-0.5-0.6-0.6-0.9c-0.2-0.6-0.3-1.2-0.3-1.8c0-0.6,0-1.2,0-1.7c0-0.3,0-0.6,0-0.7
				c0,0,0.1,0.1,0,0c0,0-0.2,0-0.3,0l-0.4,0c-0.1,0-0.4,0-0.5,0l-0.4-0.1c-0.1,0-0.2,0-0.3,0c-0.3,0-0.6,0-0.7,0c0,0-0.1,0-0.1,0.1
				c0,0.1-0.1,0.1-0.1,0.2c0,0.1,0,0.3,0.1,0.5l0.1,0.1l0,0c0,0,0,0.1,0.1,0.1c0,0,0,0,0,0c0.1,0,0.5-0.1,0.7-0.2l0.8-0.2l0.6-0.2
				l0,0.6c0,0.4-0.1,0.8-0.3,1.2c-0.1,0.2-0.3,0.4-0.5,0.5c-0.1,0.1-0.2,0.1-0.3,0.2c-0.1,0.1-0.3,0.1-0.4,0.1l-2,0.2l-0.4,0
				l-0.1-0.3c-0.1-0.3-0.2-0.5-0.3-0.6c-0.1-0.1-0.1-0.1-0.2-0.2l-0.2-0.3C84,37.2,83.9,37,83.8,37c0,0,0,0,0,0c0,0,0,0,0.1,0l0,0
				c0.1,0,0,0,0,0c0,0-0.1,0.1-0.2,0.1c-0.1,0.1-0.3,0.3-0.5,0.5l-0.1,0.1c0,0,0,0,0,0c0,0,0,0.1,0,0.2c0,0.2,0,0.5-0.2,0.9
				c-0.2,0.4-0.6,0.6-0.9,0.6l-0.1,0c0,0,0.1,0,0.1,0c0,0,0,0,0,0c0,0-0.1,0.1-0.1,0.2c-0.1,0.2-0.2,0.4-0.2,0.5c0,0.2,0,0.4,0,0.6
				c0,0.2,0.1,0.5,0.1,0.8c0,0.6-0.3,1.2-0.6,1.6c-0.2,0.2-0.4,0.4-0.6,0.6l-0.5,0.5l0-0.7c0.1,0.1,0.2,0.2,0.1,0.1
				c-0.1-0.1,0,0,0,0l0.1,0c0.2,0.1,0.3,0.1,0.5,0.2c0.3,0.2,0.7,0.3,1,0.8c0.3,0.5,0.3,1,0.2,1.4c-0.1,0.4-0.2,0.7-0.4,1.1
				c-0.6,1.3-1.3,2.6-2,3.8c-0.3,0.6-0.7,1.2-0.9,1.8c-0.2,0.6-0.5,1.4-0.9,2c-0.1,0.2-0.2,0.3-0.4,0.5c-0.1,0.1-0.2,0.2-0.3,0.2
				c-0.1,0-0.2,0.1-0.2,0.1l-0.1,0c-0.3,0.1-0.6,0.2-0.9,0.4c-0.6,0.3-1.1,0.7-1.5,1.2c-0.5,0.5-0.9,1.1-1.4,1.6
				c-0.5,0.5-1.1,1-1.7,1.4c-0.6,0.4-1.3,0.7-2,0.9c-0.7,0.2-1.3,0.4-1.9,0.7c-0.2,0.1-0.3,0.1-0.4,0.2c-0.1,0.1-0.2,0.2-0.4,0.3
				c-0.2,0.2-0.7,0.5-1.1,0.6c-0.4,0.1-0.8,0.2-1.3,0c-0.1,0-0.2-0.1-0.4-0.2c-0.1,0-0.2-0.2-0.2-0.2l0-0.1c-0.1-0.1,0-0.1-0.1-0.1
				c-0.1-0.2-0.1-0.4-0.2-0.6c-0.1-0.4-0.2-0.8,0-1.3c0.2-0.5,0.5-0.8,0.8-1c0.3-0.2,0.7-0.4,0.9-0.5c0.1-0.1,0.2-0.3,0.1-0.6
				l0.4,0.4c-0.7-0.1-1.5-0.1-2,0.3c-0.5,0.3-0.8,1-0.9,1.7l0,0.3c0,0.1,0,0.2-0.1,0.4c-0.1,0.2-0.1,0.4-0.2,0.6
				c-0.1,0.4-0.3,0.8-0.6,1.2c-0.2,0.4-0.5,0.7-0.9,1c-0.3,0.3-0.7,0.5-1,0.7c-0.6,0.4-1.1,0.9-1.3,1.6c-0.1,0.3-0.2,0.7-0.2,1
				c0,0.3,0.2,0.8-0.2,1.4c0,0-0.1,0.1-0.2,0.2l0,0l-0.1,0l-0.1,0.1l-0.2,0.1L57,69.5c-0.3,0.2-0.7,0.5-1.2,0.6
				c-0.2,0.1-0.5,0.1-0.7,0.1c-0.3,0-0.5-0.1-0.6-0.2c-0.3-0.1-0.7-0.1-1.1-0.2l-0.3,0l0-0.3l-0.1-0.9l0.4,0.3
				c-1.2,0.2-2.3,0.2-3.4,0.5c-1.1,0.3-2.3,0.5-3.5,0.6C45.2,70,44,70.1,42.8,70c-1.2,0-2.4-0.3-3.4,0c-1,0.2-1.8,1.2-2.8,1.9
				c-1,0.7-1.9,1.3-2.9,1.9c-0.5,0.3-1,0.7-1.4,1c-0.4,0.3-0.9,0.7-1.5,1c-0.5,0.3-1.1,0.5-1.7,0.7c-0.3,0.1-0.6,0.1-0.9,0.2
				c-0.2,0-0.2,0-0.3,0.1c-0.1,0.1-0.2,0.2-0.2,0.2c0,0.4-0.1,1.2,0.1,1.4c0.4,0.2,1,0.4,1.6,0.4c0.6,0.1,1.1,0,1.7,0
				c0.6-0.1,1.2-0.1,1.8,0.1c0.6,0.2,1.1,0.5,1.6,0.4c0.5-0.1,0.8-0.7,1-1.2l0.4-0.8c0.1-0.1,0.2-0.3,0.4-0.4c0.2-0.1,0.4,0,0.5,0.1
				c0.3,0.2,0.5,0.3,0.7,0.4c0.2,0.1,0.5-0.1,0.8-0.1c0.6-0.2,1.1-0.3,1.7-0.5c0.6-0.2,1.2-0.1,1.7-0.3c0.6-0.2,1.1-0.4,1.7-0.5
				c0.3-0.1,0.6-0.1,0.9,0c0.1,0,0.3,0.1,0.4,0.1c0.1,0,0.3,0.1,0.4,0.1c0.5-0.2,1-0.5,1.5-0.8c0.5-0.3,1-0.6,1.6-0.7
				C49.4,74.3,50.7,74.5,51.7,75.2z"/>
			<path class="st1" d="M80,43.8c0.5,0.2,1,0.4,1.4,0.9c0.4,0.4,0.3,1.1,0.2,1.6c-0.2,1.1-0.6,2.2-1.1,3.2c-0.5,1-1.1,2-1.7,2.9
				c-0.3,0.5-0.3,1-0.6,1.6c-0.3,0.5-0.5,1-1,1.4c-0.2,0.2-0.6,0.3-0.8,0.4c-0.3,0.1-0.5,0.2-0.7,0.4c-0.5,0.3-0.9,0.6-1.3,1
				c-0.8,0.8-1.4,1.7-2.3,2.4c-0.9,0.7-1.9,1.3-3,1.6c-1.1,0.2-1.9,1-3,1.4c-0.6,0.2-1.1,0.3-1.7,0.4l-0.2,0l-0.1,0l0,0l0,0
				c0.1,0-0.1,0-0.1,0c0,0-0.1,0-0.2-0.1c-0.1-0.2-0.1-0.3-0.2-0.5c-0.1-0.3-0.2-0.5-0.2-0.8c-0.1-0.3-0.1-0.6-0.1-0.9
				c0-0.3,0.2-0.7,0.4-0.9c0.2-0.2,0.5-0.4,0.8-0.5c0.1-0.1,0.3-0.1,0.4-0.2c0,0,0.1-0.2,0.1-0.2c0,0,0-0.1,0,0c0,0.1,0,0,0,0
				c-0.1,0-0.2-0.1-0.3-0.1c-0.3,0-0.5,0.1-0.7,0.1c-0.5,0.2-0.9,0.5-1.1,1c-0.1,0.2-0.2,0.5-0.3,0.7c0,0.1,0,0.2-0.1,0.4
				c0,0.1,0,0.3-0.1,0.5c-0.2,0.6-0.3,1.1-0.6,1.7c-0.6,1.1-1.7,1.7-2.5,2.4c-0.4,0.3-0.7,0.7-0.8,1.2c-0.1,0.2-0.1,0.5,0,0.7
				c0,0.3,0,0.6,0,0.9c0,0.2,0,0.3-0.1,0.5c0,0.1-0.1,0.2-0.1,0.3C58.1,69,58,69.1,58,69.1c-0.2,0.1-0.4,0.3-0.7,0.5
				c-0.5,0.3-1,0.7-1.6,0.8c-0.3,0.1-0.7,0-1-0.1c-0.4-0.1-0.4-0.2-0.7-0.1c-0.3,0-0.7,0-1-0.4c-0.3-0.4-0.3-0.8-0.2-1.1l0.4,0.4
				c-1.2,0.2-2.4,0.3-3.5,0.6c-1.2,0.3-2.4,0.5-3.6,0.6c-1.2,0.1-2.4,0.1-3.7,0c-0.6,0-1.2-0.1-1.8-0.1c-0.5,0-1.1,0.1-1.5,0.3
				c-0.5,0.2-0.9,0.6-1.3,1c-0.5,0.4-0.9,0.8-1.4,1.2c-0.9,0.8-1.9,1.5-3,2.2c-1.1,0.6-2,1.3-3.2,1.9c-0.3,0.1-0.6,0.2-0.9,0.3
				c-0.2,0-0.3,0.1-0.5,0.1c-0.1,0-0.2,0-0.2,0l-0.1,0l-0.1,0l0,0c-0.1,0,0.1,0,0,0l0,0c0.2-0.1,0.1-0.1,0.1,0c0,0,0,0.1-0.1,0.1
				c0,0,0,0.1,0,0.1c0,0,0,0,0,0.1c0,0.2,0.1,0.6,0.1,0.6c0,0,0,0-0.1-0.1l0.1,0l0.2,0.1c0.1,0,0.3,0.1,0.4,0.1
				c0.3,0.1,0.6,0.1,0.8,0.1c0.6,0.1,1.1,0,1.7,0c0.6,0,1.3-0.1,1.9,0.1c0.3,0.1,0.6,0.2,0.9,0.3c0.1,0,0.3,0.1,0.4,0.1
				c0.1,0,0,0,0,0c0.1-0.1,0.2-0.4,0.3-0.7l0.4-0.8c0.1-0.2,0.3-0.7,0.8-0.9c0.6-0.2,1,0.2,1.2,0.3c0.1,0.1,0.4,0.2,0.5,0.1
				c0.3-0.1,0.5-0.1,0.8-0.2c0.6-0.2,1.2-0.4,1.8-0.5c1.1-0.1,2.1-0.8,3.6-0.8c0.4,0,0.7,0.1,1,0.2c-0.1,0,0,0,0.1-0.1l0.4-0.2
				l1.6-0.9c0.3-0.1,0.6-0.3,0.9-0.4c0.3-0.1,0.7-0.1,1-0.1c0.7,0,1.3,0.1,1.9,0.3c0.6,0.1,1.2,0.3,1.7,0.3c0.3,0,0.5,0,0.8,0
				c0.1,0,0.3,0,0.4-0.1l0.1,0c0.2,0,0,0,0.3,0c0.1,0,0.1,0.1,0.2,0.1c0.1,0,0.1,0,0.1,0.1l0.1,0.1l0.1,0.1l0.3,0.3l-0.2,0.3
				L53.7,77c-0.2,0.3-0.3,0.5-0.4,0.8c0,0.3,0,0.6,0.1,0.8c0.1,0.3,0.2,0.5,0.4,0.7c0.1,0.1,0.2,0.2,0.3,0.2
				c0.2,0.1,0.4,0.3,0.5,0.4c0.3,0.3,0.5,0.5,0.7,0.7c0.2,0.2,0.5,0.3,0.8,0.4c0.5,0.1,1-0.2,1.3-0.7l1.2-1.8
				c0.2-0.3,0.5-0.7,0.8-0.9c0.3-0.3,0.6-0.5,1-0.6c0.7-0.3,1.5-0.5,2.4-0.4l-0.5,0.4c0-0.2,0-0.4,0-0.5c0-0.1-0.2-0.2-0.4-0.3
				c-0.2-0.1-0.4-0.2-0.7-0.4c-0.3-0.2-0.5-0.4-0.7-0.8l-0.1-0.3l0.2-0.2c0.2-0.2,0.4-0.7,0.7-1.1c0.1-0.2,0.3-0.5,0.5-0.7
				c0.2-0.2,0.5-0.4,0.8-0.5L63,72l0.1,0.5l0.4,1.5L63,73.6c0.2,0,0.4-0.1,0.9-0.1c0.1,0,0.1,0,0.2,0.1l0.1,0l0.2,0.1l0.4,0.1
				c0.5,0.2,0.9,0.4,1.4,0.5c0.5,0.1,0.9,0.2,1.4,0.1c0.2,0,0.6,0,0.8,0c0.3,0,0.6,0,0.8,0.1l0.8,0.1c0.3,0.1,0.4,0.1,0.5,0
				c0.1,0,0.2-0.2,0.4-0.4c0.2-0.2,0.3-0.4,0.5-0.6c0.4-0.4,0.8-0.8,1.2-1.1c0,0,0.1-0.1,0.2-0.1c0.1-0.1,0.2-0.1,0.3-0.1
				c0.2-0.1,0.3-0.1,0.5-0.1c0.3-0.1,0.5-0.1,0.7-0.1l0.5-0.1l0.1,0.5l0.1,1.1c0,0.2,0,0.4,0.1,0.5l0.1,0.3c0-0.1,0-0.1,0,0
				c0,0,0.1,0.1,0.1,0.1c0,0,0,0,0,0c0,0,0,0-0.1,0l0.1,0c0.1,0,0.2-0.1,0.3-0.1c0.1-0.1,0.2-0.4,0.2-0.8c0-0.4,0.1-0.8,0.2-1.2
				c0.1-0.4,0.4-0.9,0.9-1.1c0.1,0,0.1,0,0.2-0.1c0.1,0,0.1,0,0.2,0c0.1,0,0.2,0,0.4-0.1c0.2,0,0.4,0,0.6,0c0.4,0,0.8,0.1,1.1,0.1
				L79,71.1l0.4-0.9l0.4-0.9c0.1-0.2,0.2-0.3,0.4-0.5c0.1-0.1,0.2-0.2,0.4-0.2c0.1,0,0.3-0.1,0.4-0.1c0.4,0,0.7,0.1,1.1,0.1l0.6,0.1
				l-0.3,0.5c-0.4,0.7-0.8,1.4-1.1,2c-0.3,0.6-0.3,1.3-0.1,1.9L80.5,73c0.8-0.6,1.7-0.9,2.4-1.5c0.3-0.3,0.6-0.6,0.8-0.9
				c0.2-0.5,0.6-0.9,0.9-1.2l0.5-0.5l0.2-0.3c0,0,0.1-0.1,0-0.1c0,0,0,0,0-0.1c0-0.1,0-0.2,0-0.2c0.1,0.2,0,0-0.1-0.1
				c-0.2-0.2-0.4-0.4-0.5-0.7c-0.2-0.5-0.2-1.1-0.2-1.6c0-0.5,0.1-0.9,0.2-1.4c0.2-0.9,0.5-2,1.2-2.7c0.2-0.2,0.4-0.4,0.6-0.5
				c0.1-0.1,0.2-0.1,0.3-0.2c0,0,0,0,0,0c0,0,0,0,0-0.1c0-0.2,0-0.3,0-0.6l-0.1-0.7c-0.1-0.9-0.2-1.9-0.3-2.8c0-0.5-0.1-1,0-1.5
				c0-0.5,0.1-1,0.5-1.5c0.7-1,2-0.9,2.7-1.1c0.2,0,0.3-0.5,0.3-1c0.1-0.5,0.2-1,0.4-1.4c0.2-0.5,0.6-0.9,1-1.2
				c0.2-0.1,0.5-0.2,0.6-0.3c0.1-0.1,0.3-0.3,0.3-0.5c0.4-0.8,0.6-1.7,0.5-2.6c-0.1-0.4-0.3-0.8-0.5-1.2l-0.7-1.2
				c-0.5-0.8-0.9-1.7-1.4-2.5c-0.2-0.4-0.6-0.7-0.8-1.2c-0.2-0.5-0.3-1-0.3-1.5c0-1,0-1.9-0.1-2.8l0.2,0.2l-0.9,0
				c-0.1,0-0.3,0-0.4,0c-0.2,0-0.3-0.1-0.4-0.1c-0.3-0.1-0.5-0.1-0.8-0.1c-0.1,0-0.3,0-0.4,0c0,0,0,0,0,0l0,0l0,0
				c0,0.1,0,0.1-0.1,0.2c0,0.1-0.1,0.2-0.1,0.4c0,0.1,0,0.3,0,0.3c0,0,0.1,0.1,0.2,0.1c0.1,0,0.2,0.1,0.4,0c0.1,0,0.3-0.1,0.4-0.1
				c0.1,0,0.3-0.1,0.4-0.1l0.8-0.3l0.2-0.1l0,0.2c0,0.3,0,0.7-0.1,1c-0.1,0.3-0.3,0.7-0.6,0.9c-0.3,0.2-0.7,0.3-1,0.3
				c-0.4,0-0.7,0-0.9,0.2c-0.1,0.1-0.3,0.2-0.4,0.3c-0.2,0.1-0.4,0-0.6-0.1c-0.3-0.3-0.3-0.6-0.5-0.9c-0.1-0.3-0.4-0.5-0.6-0.8
				c-0.2-0.3-0.5,0-0.8,0.2c-0.2,0.2-0.4,0.5-0.4,0.8c0,0.3-0.2,0.7-0.4,1c-0.1,0.1-0.1,0.1-0.2,0.2c-0.1,0-0.2,0-0.2,0
				c-0.2,0-0.3,0.1-0.4,0.2c-0.2,0.2-0.3,0.6-0.3,0.9c0,0.7,0.1,1.4-0.1,2C81,42.9,80.5,43.4,80,43.8z M80,43.8
				c0.6-0.4,1-0.9,1.2-1.6c0.2-0.7,0.1-1.3,0.1-2c0-0.3,0.1-0.7,0.3-0.9c0.1-0.1,0.3-0.2,0.5-0.2c0.1,0,0.2,0,0.3,0
				c0.1,0,0.1-0.1,0.2-0.1c0.2-0.3,0.3-0.6,0.3-0.9c0-0.2,0-0.4,0.1-0.5c0.1-0.1,0.2-0.3,0.3-0.4c0.1-0.1,0.3-0.2,0.4-0.3
				c0.1,0,0.2-0.1,0.3,0c0.1,0,0.2,0.1,0.2,0.1c0.2,0.2,0.5,0.5,0.6,0.8c0.1,0.3,0.2,0.6,0.4,0.9c0.2,0.2,0.5,0.1,0.7-0.2
				c0.3-0.2,0.7-0.2,1-0.2c0.3,0,0.6-0.1,0.9-0.3c0.5-0.4,0.6-1.1,0.5-1.7l0.2,0.1l-0.8,0.3c-0.1,0.1-0.3,0.1-0.4,0.2
				c-0.1,0-0.3,0.1-0.4,0.1c-0.2,0-0.3,0-0.5-0.1c-0.1-0.1-0.3-0.1-0.4-0.3C86,36.3,86,36.2,86,36c0-0.2,0-0.3,0.1-0.5
				c0-0.1,0-0.1,0.1-0.2l0,0c0,0,0.1-0.1,0.1-0.1c0.1,0,0.1-0.1,0.2-0.1c0.2,0,0.3,0,0.5,0c0.3,0,0.6,0.1,0.9,0.1
				c0.1,0,0.3,0.1,0.4,0.1c0.1,0,0.3,0,0.4,0l0.8,0l0.2,0l0,0.2c0.1,0.9,0.1,1.9,0.1,2.8c0,0.4,0.1,0.9,0.3,1.3
				c0.2,0.4,0.5,0.7,0.8,1.1c0.5,0.8,0.9,1.6,1.4,2.5l0.7,1.2c0.2,0.4,0.5,0.9,0.6,1.4c0.2,1-0.1,2-0.5,2.9
				c-0.1,0.2-0.3,0.5-0.5,0.7c-0.3,0.2-0.5,0.2-0.6,0.4c-0.4,0.2-0.6,0.6-0.8,0.9c-0.2,0.4-0.3,0.8-0.4,1.3c0,0.2-0.1,0.4-0.1,0.7
				c0,0.1-0.1,0.3-0.2,0.4c-0.1,0.2-0.3,0.3-0.4,0.3c-0.3,0.1-0.5,0.1-0.8,0.1c-0.2,0-0.4,0.1-0.7,0.1c-0.4,0.1-0.8,0.3-1,0.6
				c-0.4,0.6-0.3,1.6-0.3,2.5c0.1,0.9,0.2,1.8,0.3,2.8l0.1,0.7c0,0.2,0.1,0.5,0,0.8c0,0.1,0,0.2-0.1,0.2c0,0.1-0.2,0.2-0.3,0.3
				c-0.1,0.1-0.2,0.1-0.3,0.2c-0.2,0.1-0.3,0.3-0.5,0.4c-0.6,0.6-0.8,1.5-1,2.4c-0.1,0.9-0.3,1.9,0,2.6c0.1,0.2,0.2,0.3,0.3,0.5
				c0,0,0.1,0.1,0.1,0.1c0,0,0,0,0.1,0.1c0.1,0.1,0.1,0.2,0.1,0.2c0,0.2,0,0.4,0,0.5c0,0.1,0,0.2-0.1,0.3C86,69,86,69,86,69.1
				l-0.2,0.3l-0.5,0.5c-0.3,0.3-0.6,0.7-0.8,1c-0.2,0.5-0.6,0.9-1,1.2c-0.8,0.7-1.7,1-2.4,1.5L80.6,74l-0.2-0.5
				c-0.1-0.4-0.2-0.9-0.2-1.3c0-0.4,0.1-0.9,0.3-1.2c0.3-0.8,0.8-1.4,1.1-2l0.3,0.6c-0.3,0-0.7-0.1-0.9-0.1c-0.1,0-0.1,0-0.2,0.1
				c0,0-0.1,0.2-0.2,0.3l-0.4,0.9l-0.5,0.9l-0.1,0.3l-0.3,0c-0.4,0-0.8-0.1-1.2-0.1c-0.2,0-0.3,0-0.5,0c-0.1,0-0.2,0-0.2,0
				c0,0-0.1,0-0.1,0l-0.1,0c-0.2,0.1-0.4,0.3-0.5,0.6c-0.1,0.3-0.1,0.7-0.2,1c0,0.4-0.1,0.9-0.5,1.3c-0.2,0.2-0.5,0.4-0.7,0.4
				l-0.1,0c-0.1,0-0.2,0-0.2,0c-0.1,0-0.2,0-0.3-0.1c-0.1-0.1-0.3-0.1-0.4-0.2c-0.1,0-0.1-0.1-0.2-0.2c0,0-0.2-0.2-0.2-0.3l-0.1-0.3
				c0-0.2-0.1-0.4-0.1-0.6L74,72.4l0.6,0.4c-0.3,0.1-0.6,0.1-0.8,0.2c-0.1,0-0.2,0.1-0.3,0.1l-0.1,0c-0.1,0-0.1,0.1-0.1,0.1
				c-0.4,0.3-0.7,0.7-1.1,1c-0.2,0.2-0.3,0.4-0.5,0.6c-0.2,0.2-0.3,0.5-0.7,0.7c-0.4,0.2-0.8,0.1-1,0.1l-0.8-0.1
				c-0.3,0-0.5,0-0.7-0.1c-0.3,0-0.5,0-0.7,0c-0.6,0-1.2,0-1.7-0.2c-0.5-0.1-1.1-0.3-1.6-0.5l-0.6-0.3c0,0-0.4,0.1-0.7,0.1l-0.4,0
				l-0.1-0.4l-0.4-1.5l0.6,0.3c-0.4,0.1-0.6,0.3-0.8,0.7c-0.2,0.4-0.4,0.9-0.8,1.4l0.1-0.5c0.1,0.1,0.2,0.2,0.3,0.4
				c0.2,0.1,0.4,0.2,0.7,0.4c0.2,0.1,0.6,0.4,0.7,0.7c0.2,0.4,0.2,0.8,0.1,1.1L63,77.6l-0.5-0.1c-0.6-0.1-1.2,0.1-1.8,0.3
				c-0.3,0.1-0.6,0.3-0.8,0.5c-0.2,0.2-0.4,0.4-0.6,0.7l-1.2,1.8c-0.2,0.3-0.5,0.7-0.9,0.9c-0.4,0.2-0.9,0.3-1.4,0.2
				c-0.5-0.1-0.9-0.3-1.2-0.5c-0.3-0.2-0.6-0.6-0.8-0.8c-0.1-0.1-0.2-0.2-0.3-0.2c-0.2-0.1-0.4-0.3-0.6-0.4
				c-0.3-0.3-0.5-0.7-0.6-1.1c-0.1-0.4-0.1-0.9-0.1-1.3c0-0.2,0.1-0.4,0.2-0.7c0.1-0.1,0.1-0.2,0.2-0.3l0.2-0.2l1.2-1.8l0.1,0.6
				l-0.2-0.2l0,0l0,0c0,0,0,0,0.1,0.1c0.3,0,0.1,0,0.2,0l-0.1,0c-0.2,0-0.3,0.1-0.5,0.1c-0.3,0-0.7,0-1,0c-0.7,0-1.3-0.2-1.8-0.3
				c-1.2-0.3-2.2-0.4-3.2,0.1L46.1,76l-0.4,0.2c-0.1,0-0.2,0.1-0.3,0.1c-0.1,0-0.1,0-0.2,0c0,0-0.1,0-0.2,0l-0.1,0
				c-0.2-0.1-0.5-0.1-0.7-0.1c-1,0-2.1,0.7-3.4,0.8c-0.5,0.1-1.1,0.3-1.7,0.4c-0.3,0.1-0.6,0.2-0.9,0.2c-0.5,0.1-0.8,0-1.2-0.3
				c-0.3-0.2-0.4-0.2-0.4-0.2c0,0-0.2,0.1-0.3,0.4l-0.4,0.8c-0.1,0.3-0.2,0.5-0.5,0.9c-0.1,0.1-0.2,0.2-0.4,0.3
				c-0.2,0.1-0.3,0-0.4,0c-0.2,0-0.4-0.1-0.5-0.1c-0.3-0.1-0.6-0.2-0.8-0.3c-0.5-0.1-1.1-0.1-1.7-0.1c-0.6,0-1.2,0.1-1.9,0
				c-0.3,0-0.6-0.1-0.9-0.1c-0.2,0-0.3-0.1-0.5-0.1L28,78.9l-0.1,0c-0.2-0.1-0.2-0.2-0.3-0.2c-0.2-0.3-0.2-0.4-0.2-0.6
				c0-0.2,0-0.3-0.1-0.5c0-0.1,0-0.2,0-0.3c0-0.1,0.1-0.2,0.1-0.3c0-0.1,0.1-0.2,0.2-0.3c0.1-0.1,0.1-0.2,0.4-0.3l0.1,0l0.1,0l0.1,0
				c0.1,0,0.1,0,0.2,0c0.1,0,0.3,0,0.4-0.1c0.3-0.1,0.5-0.2,0.8-0.3c1-0.4,2-1.2,3.1-1.8c1-0.6,2-1.3,2.9-2.1
				c0.5-0.4,0.9-0.8,1.4-1.2c0.4-0.4,0.9-0.9,1.5-1.1c0.6-0.3,1.3-0.4,2-0.4c0.6,0.1,1.2,0.1,1.8,0.2c1.2,0.1,2.4,0.1,3.6,0
				c1.2-0.1,2.3-0.3,3.5-0.6c1.2-0.3,2.4-0.4,3.6-0.5l0.5-0.1l0,0.5c0,0.5,0,0.6,0.6,0.7c0.1,0,0.3,0,0.5,0c0.2,0.1,0.3,0.1,0.4,0.1
				c0.2,0.1,0.5,0.1,0.7,0c0.5-0.1,0.9-0.3,1.4-0.6c0.2-0.2,0.5-0.3,0.7-0.5c0.1,0,0.2-0.2,0.2-0.5c0-0.3,0-0.5,0-0.8
				c0-0.3,0-0.6,0.1-0.9c0.1-0.6,0.6-1.2,1-1.5c0.9-0.7,1.9-1.3,2.4-2.2c0.2-0.4,0.4-1,0.5-1.5c0-0.1,0-0.2,0.1-0.4
				c0-0.1,0-0.3,0.1-0.5c0.1-0.3,0.2-0.6,0.3-0.9c0.3-0.5,0.8-1,1.4-1.2c0.3-0.1,0.6-0.2,0.9-0.2c0.2,0,0.4,0,0.5,0.1
				c0.1,0.1,0.2,0.1,0.3,0.3c0,0.2,0,0.3-0.1,0.4c-0.1,0.2-0.1,0.3-0.4,0.4c-0.2,0.1-0.3,0.1-0.4,0.2c-0.2,0.1-0.5,0.3-0.6,0.4
				c-0.4,0.3-0.3,0.8-0.2,1.3c0.1,0.3,0.1,0.5,0.2,0.8c0,0.1,0.1,0.3,0.1,0.3c0,0-0.1-0.1-0.1-0.1c0,0-0.1,0-0.1,0l0,0l0,0l0.1,0
				l0.2,0c0.5,0,1.1-0.1,1.6-0.3c1-0.3,1.9-1.1,3.1-1.3c1.1-0.3,2-0.8,2.9-1.5c0.9-0.7,1.6-1.5,2.3-2.4c0.4-0.4,0.8-0.8,1.3-1.1
				c0.2-0.1,0.5-0.3,0.8-0.4c0.3-0.1,0.5-0.1,0.7-0.3c0.4-0.3,0.7-0.8,0.9-1.3c0.2-0.5,0.3-1.1,0.6-1.6c0.6-0.9,1.3-1.8,1.8-2.8
				c0.5-1,0.9-2,1.2-3.1c0.1-0.5,0.2-1.1-0.1-1.6C81,44.2,80.5,44,80,43.8z"/>
		</g>
	</g>
	<g>
		<path class="st0" d="M18.5,56.5c0.1-0.5,0.3-1,0.5-1.5c0.2-0.5,0.1-0.8-0.4-1c0,0-0.1,0-0.1,0c-0.4-0.4-1.4-0.4-1.3-1.3
			c0.1-1.2,0.5-2.1,1.6-2.6c0.6-0.3,1.2-0.6,1.7-1c0.5-0.4,0.9-0.8,0.3-1.5c-0.4-0.4-0.1-1,0.5-1c0.4,0,0.9,0,1.2,0.2
			c0.9,0.5,1.8,0.4,2.8,0.3c0.9-0.1,1.3-0.5,1.3-1.5c-0.1-0.8-0.2-1.7,0.7-2.2c0.2-0.1,0.4-0.5,0.5-0.8c0.4-1.4,0.8-2.8,1-4.3
			c0.1-0.6-0.4-1.2-0.6-1.9c-0.5-1.3,0.1-2.5,1.4-2.7c0.3-0.1,0.8,0.3,1.1,0.5c1.9,1.8,3.7,3.8,6,5.1c1.8,1.1,3.8,1.9,5.8,2.3
			c0.6,0.1,1.1,0.5,1.6,0.7c0.9,0.4,1.9,0.5,2.8,0c0.8-0.4,1.4-1,2.2-1.4c0.2-0.1,0.6-0.1,0.8-0.1c0,0.3,0,0.6-0.1,0.8
			c-0.2,0.5-0.5,0.9-0.8,1.3c-0.5,0.7-0.4,1.2,0.4,1.7c0.2,0.2,0.6,0.4,0.6,0.7c0,0.7,0.5,0.7,0.9,0.7c0.6-0.1,1.3-0.2,1.9-0.3
			c0,0.1,0.1,0.2,0.1,0.3c-0.4,0.3-0.8,0.7-1.3,1c-0.8,0.4-1.6,0.8-2.5,1.1c-0.5,0.2-1.2,0.2-1.7,0.3c-0.1,0-0.2-0.1-0.2-0.1
			c-1.1,1-2.4,0.4-3.5,0.4c-2.4,0.1-4.2,2.4-4.9,4c-0.1,0.3-0.1,0.6-0.2,0.8c-0.3,0.8-0.8,0.9-1.6,0.6c-2.5-1-4.9-2.1-7.4-3
			c-1.1-0.4-2.2-0.3-3.2,0.4c-1,0.6-2,0.6-3-0.1c-0.8-0.6-2-0.2-2.8,1c0.4,0.3,0.9,0.6,1.3,0.8c1.2,0.6,2.5,1.2,3.7,1.7
			c0,0.1,0,0.3,0,0.4c-0.4,0.1-0.7,0.4-1.1,0.4 M21,56.9c0.8-1,1.8-1.2,3-1.1c0.4,0,0.7-0.1,1.3-0.2c-0.4-0.3-0.5-0.4-0.6-0.5
			c-1.1-0.5-2.2-1-3.3-1.5c-0.7-0.3-1.2-1-1-1.4c0.5-1,2.1-1.4,3-0.8c0.9,0.7,1.8,0.7,2.7,0.2c1.1-0.7,2.3-0.8,3.5-0.4
			c2.4,0.9,4.7,1.8,7,2.8c1.3,0.6,1.5,0.5,1.8-0.8c0.5-1.7,2.5-4.3,5-4.4c0.6,0,1.2,0,1.8,0c0.6,0,1.3,0.2,1.7-0.4
			c0.1-0.1,0.3,0,0.4,0c0.6-0.1,1.2-0.1,1.8-0.2c0.8-0.3,1.6-0.7,2.4-1.1c0.3-0.1,0.5-0.3,0.8-0.5c0,0-0.1-0.1-0.1-0.1
			c-0.8,0-1.6,0.1-2.4,0.1c0.1-0.1,0.1-0.2,0.2-0.3c-0.3-0.4-0.6-0.8-1-1.1c-0.5-0.4-0.7-1.2-0.3-1.7c0.4-0.6,0.8-1.2,1.2-1.9
			c-0.1-0.1-0.2-0.2-0.3-0.3c-0.5,0.3-1,0.7-1.5,1c-1.2,0.9-2.4,1.3-3.9,0.8c-0.6-0.2-1-0.6-1.6-0.7c-2.1-0.4-4-1.2-5.9-2.2
			c-2.4-1.4-4.3-3.4-6.3-5.3c-0.3-0.2-0.8-0.5-1.1-0.4c-1.1,0.4-1.5,1-1.3,1.6c0.4,1.6,0.5,3.5,0.3,5.2c0,0.2,0,0.4-0.1,0.6
			c-0.3,0.7-0.5,1.6-1,2.1c-0.5,0.6-0.7,1-0.5,1.8c0.2,1.1-0.3,1.8-1.5,1.9c-0.9,0-1.8-0.2-2.7-0.3c-0.4-0.1-0.8-0.2-1.2-0.2
			c-0.5,0-0.6,0.2-0.4,0.7c0.5,0.9,0.4,1.2-0.4,1.8c-0.8,0.5-1.6,0.9-2.4,1.4c-1.2,0.9-1.1,2.1,0.2,2.9c0.1,0.1,0.3,0.2,0.5,0.3
			c0.5,0.2,0.6,0.5,0.3,1c-0.2,0.5-0.4,1-0.5,1.5"/>
		<g>
			<path class="st1" d="M18.5,56.5l0.6-1.7c0.1-0.3-0.1-0.5-0.3-0.7c-0.2-0.1-0.3-0.2-0.4-0.2c-0.1-0.1-0.3-0.1-0.4-0.2
				c-0.3-0.1-0.6-0.3-0.7-0.6c-0.1-0.3-0.1-0.6,0-0.9c0.1-0.6,0.3-1.2,0.8-1.6c0.2-0.2,0.5-0.4,0.7-0.5c0.2-0.1,0.5-0.3,0.8-0.4
				c0.5-0.3,1.1-0.5,1.4-0.9c0.2-0.2,0.2-0.4,0-0.6c-0.1-0.1-0.1-0.2-0.3-0.3c-0.1-0.2-0.2-0.4-0.2-0.6c0-0.4,0.4-0.7,0.8-0.8
				c0.3,0,0.6,0,0.9,0c0.2,0,0.4,0.1,0.5,0.2c0.1,0.1,0.2,0.1,0.4,0.2c0.3,0.1,0.5,0.1,0.8,0.1c0.5,0,1.2,0,1.7-0.1
				c0.5-0.1,0.7-0.5,0.7-1c0-0.5-0.2-1.2,0.2-1.9c0.2-0.3,0.5-0.6,0.7-0.7c0.1-0.1,0.2-0.3,0.3-0.6l0.5-1.7c0.1-0.6,0.3-1.1,0.4-1.7
				c0.1-0.3,0.1-0.6,0.1-0.8c0-0.2,0-0.4-0.1-0.7c-0.2-0.5-0.6-1-0.7-1.8c-0.1-0.7,0.1-1.5,0.7-2c0.3-0.2,0.6-0.4,0.9-0.5l0.3-0.1
				c0.1,0,0.3,0,0.4,0c0.2,0,0.4,0.1,0.5,0.2c0.6,0.4,1,0.8,1.4,1.2c1.7,1.7,3.3,3.3,5.4,4.4c1,0.6,2.1,1.1,3.1,1.4
				c0.5,0.2,1.1,0.4,1.6,0.5l0.9,0.2c0.3,0.1,0.6,0.2,0.9,0.4c1,0.5,2.1,0.8,2.9,0.4c0.5-0.3,1-0.6,1.4-0.9c0.2-0.2,0.5-0.3,0.8-0.5
				c0.5-0.3,0.9-0.1,1.1-0.2l0.6-0.1l-0.1,0.7c0,0.1,0,0.3,0,0.5c0,0.1,0,0.3-0.1,0.4c-0.1,0.2-0.1,0.2-0.2,0.3l-0.6,0.9
				c-0.1,0.1-0.2,0.4-0.3,0.4c-0.1,0.1-0.1,0.2-0.1,0.3c0,0.1,0.1,0.3,0.4,0.5c0.1,0.1,0.3,0.2,0.5,0.4c0.1,0.1,0.2,0.2,0.2,0.3
				c0,0.1,0.1,0.2,0.1,0.3l0,0.2c0,0.1,0,0.2,0,0.1c0,0,0.1,0,0.2,0c0.3,0,0.7-0.1,1-0.2l1.1-0.2l0.3-0.1l0.2,0.3l0.1,0.3l0.2,0.4
				l-0.3,0.2c-0.3,0.2-0.6,0.5-0.9,0.7c-0.2,0.1-0.4,0.2-0.6,0.3l-0.5,0.2l-1.1,0.5l-0.5,0.2c-0.1,0-0.1,0.1-0.3,0.1
				c-0.1,0-0.2,0.1-0.3,0.1c-0.4,0.1-0.8,0.1-1.2,0.2l-0.1,0l-0.1,0c0,0,0,0-0.2,0c-0.2,0-0.2-0.1-0.2-0.1c0,0,0,0,0,0
				c0,0,0,0,0.1,0c0.1,0,0.1,0,0.2,0c0.1,0,0.1-0.1,0.1-0.1l-0.1,0c-0.1,0.1-0.4,0.3-0.6,0.4c-0.9,0.4-1.8,0.2-2.6,0.1
				c-0.4-0.1-0.7,0-1.1,0c-0.3,0.1-0.7,0.2-1,0.3C41.6,50,41,50.5,40.5,51c-0.5,0.5-0.9,1.2-1.3,1.8c-0.1,0.2-0.2,0.3-0.2,0.5
				c0,0.2-0.1,0.4-0.2,0.6c-0.1,0.2-0.2,0.4-0.3,0.6c-0.2,0.2-0.4,0.4-0.7,0.4c-0.6,0.1-1-0.2-1.3-0.3l-1.1-0.5l-2.2-0.9l-2.2-0.9
				L30,51.9c-0.4-0.2-0.7-0.3-1.1-0.4c-0.7-0.2-1.5-0.1-2.1,0.2c-0.3,0.1-0.7,0.4-1.1,0.5c-0.4,0.1-0.8,0.2-1.3,0.1
				c-0.4-0.1-0.8-0.3-1.2-0.5c-0.3-0.3-0.6-0.4-1-0.4c-0.7,0-1.4,0.6-1.7,1.2l0-0.2c0.4,0.3,0.8,0.6,1.2,0.8
				c0.4,0.2,0.8,0.4,1.3,0.6l2.5,1.2l0,0l0,0l0,0.4l0,0l0,0c-0.4,0.1-0.7,0.4-1.1,0.3c0.4,0,0.7-0.3,1.1-0.4l0,0l0-0.4l0,0l-2.6-1.1
				c-0.4-0.2-0.9-0.4-1.3-0.6c-0.4-0.2-0.8-0.5-1.2-0.7l-0.1-0.1l0.1-0.1c0.4-0.7,1.1-1.3,2-1.4c0.2,0,0.4,0,0.7,0.1
				c0.2,0.1,0.4,0.2,0.5,0.3c0.3,0.2,0.6,0.4,1,0.4c0.4,0.1,0.7,0,1-0.1c0.3-0.1,0.6-0.3,1-0.5c0.7-0.4,1.6-0.5,2.5-0.3
				c0.4,0.1,0.8,0.3,1.2,0.4l1.1,0.4l2.2,0.9l2.2,0.9l1.1,0.4c0.4,0.2,0.7,0.3,0.9,0.3c0.2,0,0.3-0.2,0.5-0.6c0-0.1,0.1-0.3,0.1-0.5
				c0.1-0.2,0.2-0.4,0.2-0.6c0.4-0.7,0.8-1.4,1.4-2c0.6-0.6,1.2-1.1,2-1.5c0.4-0.2,0.8-0.3,1.2-0.4c0.4-0.1,0.9-0.1,1.3,0
				c0.8,0.1,1.5,0.2,2.1,0c0.2-0.1,0.2-0.1,0.4-0.3l0.1,0c0,0,0,0,0.1-0.1c0.1,0,0.1,0,0.2,0c0.1,0,0.1,0,0.1,0c0.1,0,0.1,0,0.1,0
				c0.1,0,0.1,0,0,0c-0.2,0-0.1,0-0.1,0l0.1,0l0.2,0c0.4,0,0.8-0.1,1.1-0.2c0.1,0,0.1,0,0.2-0.1l0.2-0.1l0.5-0.2l1.1-0.5l0.5-0.2
				c0.1-0.1,0.3-0.2,0.4-0.3c0.3-0.2,0.6-0.5,0.9-0.7l-0.1,0.6l-0.1-0.3l0.5,0.2l-1.1,0.2c-0.4,0.1-0.7,0.1-1.1,0.2
				c-0.2,0-0.5,0-0.8-0.2c-0.3-0.2-0.4-0.6-0.4-0.8c0-0.1,0,0,0-0.1c0,0,0-0.1-0.1-0.1c-0.1-0.1-0.2-0.2-0.4-0.3
				c-0.2-0.1-0.4-0.3-0.5-0.5c-0.2-0.2-0.3-0.5-0.3-0.8c0-0.3,0.1-0.5,0.2-0.7c0.1-0.3,0.2-0.3,0.3-0.5l0.6-0.9
				c0-0.1,0.1-0.2,0.1-0.2s0,0,0-0.1l0-0.5l0.5,0.5c-0.4,0-0.6,0-0.7,0c-0.2,0.1-0.5,0.3-0.7,0.5c-0.5,0.3-1,0.7-1.5,1
				c-0.6,0.3-1.4,0.4-2,0.3c-0.7-0.1-1.3-0.4-1.8-0.7c-0.3-0.1-0.5-0.3-0.7-0.3l-0.8-0.2c-0.6-0.1-1.2-0.3-1.7-0.5
				c-1.1-0.4-2.2-0.9-3.3-1.5c-2.1-1.2-3.9-2.9-5.5-4.6c-0.4-0.4-0.8-0.9-1.2-1.1c-0.1-0.1-0.2-0.1-0.3-0.1c0,0,0,0-0.1,0l-0.2,0
				c-0.2,0.1-0.4,0.2-0.6,0.3c-0.3,0.3-0.5,0.8-0.4,1.2c0,0.5,0.3,1,0.6,1.5c0.1,0.3,0.2,0.7,0.2,1c-0.1,0.3-0.1,0.6-0.2,0.9
				c-0.1,0.6-0.3,1.2-0.4,1.7l-0.5,1.7c-0.1,0.3-0.2,0.6-0.6,0.9c-0.3,0.1-0.4,0.3-0.5,0.5c-0.2,0.4-0.1,0.9-0.1,1.6
				c0,0.3,0,0.7-0.3,1c-0.2,0.3-0.6,0.5-0.9,0.6c-0.7,0.1-1.2,0.1-1.8,0.1c-0.3,0-0.6-0.1-0.9-0.2c-0.3-0.1-0.6-0.3-0.8-0.3
				c-0.2-0.1-0.5-0.1-0.8-0.1c-0.2,0-0.4,0.1-0.4,0.3c0,0.1,0,0.2,0.1,0.3c0.1,0.1,0.2,0.2,0.3,0.4c0.2,0.3,0.1,0.8-0.1,1
				c-0.2,0.3-0.5,0.4-0.8,0.6l-0.8,0.4c-0.3,0.1-0.5,0.3-0.8,0.4c-0.3,0.1-0.5,0.3-0.7,0.5c-0.4,0.4-0.7,0.9-0.8,1.5
				c0,0.3-0.1,0.6,0,0.8c0.1,0.2,0.3,0.4,0.6,0.5c0.1,0.1,0.3,0.1,0.4,0.2c0.1,0.1,0.2,0.2,0.4,0.2c0.1,0.1,0.3,0.2,0.3,0.3
				c0.1,0.1,0.1,0.3,0,0.5L18.5,56.5z"/>
			<path class="st1" d="M21,56.9c0.5-0.6,1.2-1.1,2-1.1c0.4-0.1,0.8,0,1.2-0.1c0.4,0,0.8-0.2,1.1-0.2l0,0.2l-0.5-0.4
				c-0.2-0.1-0.4-0.2-0.6-0.3l-1.2-0.6l-1.2-0.6c-0.4-0.2-0.9-0.4-1.2-0.8c-0.2-0.2-0.3-0.4-0.3-0.7c0-0.4,0.2-0.5,0.4-0.7
				c0.3-0.4,0.8-0.6,1.3-0.7c0.5-0.1,1-0.1,1.5,0.1c0.2,0.1,0.4,0.3,0.6,0.4c0.2,0.1,0.4,0.2,0.5,0.2c0.4,0.1,0.8,0.1,1.1-0.1
				c0.3-0.1,0.7-0.5,1.2-0.6c0.9-0.4,1.9-0.4,2.8-0.1l5,2l2.5,1c0.2,0.1,0.4,0.1,0.5,0.2c0.1,0,0.1,0,0.2-0.1
				c0.2-0.3,0.2-0.8,0.4-1.2c0.4-0.9,0.9-1.7,1.5-2.4c0.6-0.7,1.4-1.3,2.4-1.6c0.5-0.2,1-0.3,1.5-0.3l1.3,0c0.2,0,0.5,0,0.7,0
				c0.2,0,0.4,0,0.6,0c0.2,0,0.2-0.1,0.3-0.2c0,0,0,0,0.1-0.1l0.1-0.1c0.2-0.2,0.3-0.1,0.4-0.2c0.2,0,0.3,0,0.3,0
				c0.5-0.1,0.9-0.1,1.3-0.1c0.4-0.1,0.8-0.2,1.2-0.4c0.4-0.2,0.8-0.4,1.2-0.6l0.3-0.1c0,0,0.2-0.1,0.3-0.2l0.6-0.4L52,46.7L52,46.6
				l0.4,0.2L50,46.9l-0.9,0l0.4-0.8l0.2-0.3l0.1,0.6c-0.3-0.4-0.6-0.8-0.9-1l-0.1-0.1c0,0-0.1-0.1-0.2-0.2c-0.1-0.1-0.2-0.2-0.3-0.4
				c-0.1-0.3-0.2-0.6-0.2-0.9c0-0.2,0-0.3,0.1-0.5c0.1-0.1,0.2-0.3,0.2-0.4l0.4-0.6l0.8-1.2l0,0.6l-0.3-0.3l0.7,0.1l-1.4,1
				c-0.5,0.3-1,0.7-1.6,0.9c-0.6,0.2-1.3,0.3-1.9,0.2c-0.3,0-0.6-0.2-0.9-0.3c-0.3-0.1-0.6-0.3-0.8-0.4c-0.2-0.1-0.4-0.2-0.7-0.3
				c-0.3-0.1-0.6-0.1-0.9-0.2c-0.6-0.1-1.1-0.3-1.7-0.5c-1.1-0.4-2.2-0.9-3.2-1.5c-1-0.6-2-1.3-2.9-2c-0.9-0.8-1.7-1.6-2.6-2.4
				l-0.6-0.6c-0.2-0.2-0.4-0.4-0.6-0.5c-0.2-0.1-0.5-0.2-0.5-0.2c-0.1,0-0.4,0.2-0.6,0.3c-0.2,0.1-0.3,0.3-0.4,0.5
				c-0.1,0.2-0.1,0.3,0,0.6c0.1,0.6,0.2,1.2,0.3,1.8c0.1,1.2,0,2.4-0.1,3.5c0,0.1,0,0.4-0.1,0.6l-0.2,0.4c-0.1,0.3-0.2,0.5-0.3,0.8
				c-0.1,0.3-0.3,0.6-0.5,0.8c-0.2,0.3-0.4,0.4-0.5,0.6c-0.1,0.2-0.2,0.4-0.1,0.7c0,0.2,0.1,0.5,0.1,0.9c0,0.3-0.1,0.7-0.3,1
				c-0.2,0.3-0.5,0.5-0.9,0.6c-0.7,0.2-1.2,0-1.8,0l-1.7-0.3c-0.3-0.1-0.6-0.1-0.8-0.2c-0.1,0-0.3,0-0.3,0c-0.1,0-0.1,0,0,0.1
				c0,0.2,0.3,0.5,0.3,0.8c0.1,0.3,0.1,0.7-0.2,1c-0.9,0.9-2.1,1.2-3,1.9c-0.5,0.3-0.8,0.8-0.8,1.3c0,0.5,0.4,1,0.8,1.3
				c0.2,0.2,0.5,0.3,0.7,0.4c0.1,0.1,0.2,0.2,0.3,0.4c0,0.2,0,0.3-0.1,0.4l-0.6,1.6l0.5-1.6c0.1-0.3,0.1-0.6-0.2-0.7
				c-0.2-0.1-0.5-0.3-0.8-0.4c-0.5-0.3-1-0.8-1-1.4c0-0.6,0.4-1.2,0.9-1.5c0.9-0.7,2.1-1.1,2.8-1.9c0.2-0.2,0.2-0.4,0.1-0.6
				c-0.1-0.3-0.3-0.4-0.4-0.8c-0.1-0.2,0-0.5,0.3-0.6c0.2-0.1,0.4-0.1,0.5-0.1c0.3,0,0.6,0.1,0.9,0.1c1.1,0.1,2.3,0.4,3.3,0.2
				c0.5-0.1,0.8-0.5,0.8-1c0-0.2-0.1-0.5-0.1-0.8c0-0.3,0-0.7,0.2-1c0.1-0.3,0.4-0.6,0.6-0.7c0.2-0.2,0.3-0.4,0.4-0.7
				c0.1-0.3,0.2-0.5,0.3-0.8l0.2-0.4c0-0.1,0-0.1,0-0.3c0.1-1.2,0.2-2.3,0.1-3.4c-0.1-0.6-0.1-1.1-0.3-1.7c-0.1-0.2-0.2-0.7,0-1.1
				c0.1-0.4,0.4-0.6,0.7-0.8c0.1-0.1,0.3-0.2,0.4-0.3c0.1,0,0.2-0.1,0.2-0.1c0.1,0,0.1-0.1,0.3-0.1c0.5,0,0.8,0.1,1.1,0.3
				c0.3,0.2,0.5,0.4,0.7,0.6l0.6,0.6c0.8,0.8,1.7,1.6,2.5,2.3c0.9,0.7,1.8,1.4,2.8,1.9c1,0.5,2,1,3.1,1.4c0.5,0.2,1.1,0.3,1.6,0.5
				c0.3,0.1,0.5,0.1,0.8,0.2c0.3,0.1,0.7,0.2,0.9,0.4c0.9,0.6,1.9,0.8,2.9,0.4c0.5-0.2,0.9-0.4,1.4-0.8l1.5-1l0.4-0.2l0.3,0.3
				l0.3,0.3l0.3,0.3l-0.2,0.3l-0.8,1.2l-0.4,0.6c-0.1,0.1-0.1,0.1-0.1,0.2c0,0.1,0,0.1,0,0.2c0,0.1,0,0.3,0.1,0.4
				c0,0.1,0.1,0.1,0.1,0.2c0,0,0,0,0.1,0.1l0.1,0.1c0.4,0.4,0.7,0.8,1,1.1l0.2,0.3l-0.2,0.3l-0.2,0.3L50,46l2.4-0.1l0.3,0l0.1,0.2
				l0.1,0.1l0.3,0.4l-0.4,0.3l-0.6,0.4c-0.1,0.1-0.2,0.1-0.3,0.2l-0.3,0.1c-0.4,0.2-0.8,0.4-1.2,0.6c-0.4,0.2-0.8,0.4-1.4,0.5
				c-0.5,0.1-1,0.1-1.4,0.1c-0.2,0-0.3,0-0.3,0c0,0,0,0,0.2-0.1l0,0c0,0,0.1-0.1,0,0l0,0l0,0c0,0.1-0.1,0.1-0.2,0.2
				c-0.2,0.2-0.6,0.4-0.9,0.4c-0.3,0-0.5,0-0.8,0c-0.2,0-0.4,0-0.6,0l-1.3,0c-0.4,0-0.8,0.1-1.2,0.2c-0.8,0.3-1.5,0.8-2,1.4
				c-0.6,0.6-1.1,1.3-1.4,2.1c-0.2,0.4-0.2,0.8-0.5,1.3c-0.1,0.1-0.2,0.3-0.4,0.4c-0.2,0.1-0.4,0.1-0.6,0.1c-0.3,0-0.5-0.1-0.8-0.2
				l-2.5-1l-5-2c-0.8-0.3-1.6-0.3-2.4,0c-0.4,0.1-0.7,0.4-1.2,0.6c-0.5,0.2-1,0.2-1.5,0.1c-0.2-0.1-0.5-0.2-0.7-0.3
				c-0.2-0.1-0.4-0.3-0.5-0.4c-0.3-0.2-0.8-0.2-1.2-0.1c-0.4,0.1-0.8,0.3-1.1,0.6c-0.1,0.1-0.3,0.3-0.3,0.4c0,0.1,0.1,0.3,0.2,0.5
				c0.3,0.3,0.6,0.5,1,0.7l1.2,0.6l1.2,0.6c0.2,0.1,0.4,0.2,0.6,0.3l0.5,0.5l0.2,0.1l-0.2,0c-0.4,0.1-0.8,0.2-1.2,0.2
				c-0.4,0-0.8,0-1.2,0C22.2,55.9,21.5,56.3,21,56.9z"/>
		</g>
	</g>
	<g>
		<path class="st0" d="M23.6,83.7c-0.4,1-0.3,1.7,0.6,2.1c-0.2,0.6-0.5,0.8-1.2,0.7c-0.7-0.1-1.5,0.2-2.3,0.4
			c-0.5-0.9-0.5-2.1,0.3-2.5c-0.4-0.3-0.8-0.6-1.4-1.1c0.6-0.5,1.2-1,1.8-1.5c0,0,0.1-0.1,0.1-0.1c1,0.5,1.6-0.6,2.4-0.6
			c0.2,0,0.5-0.3,0.7-0.5c0.6-0.7,1.1-1.3,2.1-1.3c0.7,0,1.2,0,1.6,0.8c0.4,1.2,1.5,1,2.5,0.9c0.4,0,0.9,0.1,1.3,0.1
			c-0.1,0.4-0.2,0.9-0.3,1.3c0,0.1-0.1,0.3-0.1,0.5c0.3,0.1,0.5,0.2,0.8,0.3c1.4,0.4,2,2.2,1,3.3c-1,1-1.5,2.2-1.9,3.5
			c-0.4,1.2-0.8,2.4-1.2,3.6c-0.1,0.3-0.3,0.5-0.8,0.4c-0.3,0-0.9,0.4-1,0.8c-0.3,1-1.1,1.1-1.9,1.4c-0.1-0.7-0.1-1.3-0.2-2
			c-0.8,1.3-1,1.4-2.2,0.8c-0.5-0.3-0.9-0.5-0.6-1.3c0.1-0.3,0-0.7-0.1-1c-0.2-1.3-0.2-2.6,1.1-3.4c0.7-0.5,0.7-1.4,0.6-2.4
			c-0.1-1-0.7-1.7-1.1-2.6C24,84.1,23.9,84,23.6,83.7z M30,93.7c0.4-1.3,0.8-2.5,1.2-3.8c0.4-1.3,0.8-2.6,1.9-3.5
			c0.6-0.5,0.7-1.2,0.5-1.9c-0.2-0.7-0.6-1.2-1.4-1.3c-0.7,0-1-0.4-0.6-1.1c0.2-0.3,0.2-0.7,0.3-1c-0.4,0-0.7-0.1-1.1-0.1
			c-0.2,0-0.5,0-0.7,0.1c-1.1,0.3-1.7-0.3-2.1-1.1c-0.4-0.8-1-0.9-1.6-0.6c-0.6,0.2-1.1,0.7-1.6,1.1c-0.3,0.3-0.5,0.6-1.1,0.7
			c-0.8,0.1-1.4,1.1-2.3,0.7c0,0-0.1,0.1-0.1,0.1c-0.5,0.4-0.9,0.7-1.3,1.1c0.7,0.9,1.9,1.1,1.5,2.3c-0.2-0.3-0.4-0.6-0.5-0.9
			c-0.1,0.1-0.2,0.1-0.4,0.2c0.1,0.6,0.1,1.2,0.2,1.7c1.1-0.2,2.1-0.3,3.2-0.4c-1-1.1-1-2.1,0.1-2.6c0.5,1.1,0.9,2.1,1.4,3.2
			c0.4,1,0.2,2.2-0.6,2.8c-0.8,0.5-1,1.1-1.1,1.9c0,0.9,0,1.9,0,2.8c0,0.2,0.2,0.4,0.4,0.5c0.5,0.2,0.9,0.4,1.7,0.6
			c-0.1-0.7-0.1-1.2-0.1-1.7c0-0.5,0-0.9,0-1.6c0.5,0.2,0.8,0.3,1.1,0.4c-0.1,0-0.2,0.1-0.3,0.1c0.1,1.1,0.1,2.2,0.2,3.4
			c0.8-0.3,1.4-0.5,1.6-1.4C28.4,93.9,29.1,93.5,30,93.7z"/>
		<g>
			<path class="st1" d="M23.6,83.7c-0.1,0.4-0.2,0.8-0.1,1.2c0.1,0.4,0.4,0.6,0.8,0.8l0.1,0l0,0.1c-0.1,0.2-0.1,0.3-0.2,0.5
				c-0.1,0.2-0.3,0.3-0.5,0.3c-0.2,0.1-0.4,0-0.5,0c-0.2,0-0.3,0-0.5,0c-0.6,0.1-1.2,0.3-1.9,0.5l-0.1,0l-0.1-0.1
				c-0.3-0.4-0.4-0.9-0.4-1.4c0-0.5,0.2-1.1,0.7-1.4l0,0.5l-1.4-1.1l-0.3-0.2l0.3-0.2l1.4-1.2l0.3-0.3l0.1-0.1c0,0,0,0,0.1,0
				c0,0,0.1,0,0.1,0c0,0,0.3,0,0.2,0l0.1,0c0.1,0,0.1,0.1,0.2,0c0.2,0,0.4,0,0.6-0.2c0.2-0.1,0.5-0.3,0.8-0.5
				c0.2-0.1,0.4-0.1,0.6-0.2c0,0,0.1,0,0.2-0.1c0.3-0.3,0.7-1,1.3-1.3c0.3-0.2,0.7-0.4,1-0.4c0.4,0,0.6-0.1,1.1,0
				c0.4,0,0.9,0.3,1.1,0.7c0.2,0.4,0.3,0.6,0.4,0.8c0.2,0.3,0.7,0.3,1.3,0.3l0.5,0c0.2,0,0.4,0,0.5,0c0.3,0,0.6,0.1,0.9,0.1l0.5,0
				l-0.1,0.5L32.3,82l-0.1,0.5L32.1,83l-0.3-0.6l1.1,0.3c0.5,0.2,0.8,0.5,1.1,0.8c0.5,0.7,0.7,1.8,0.3,2.6c-0.1,0.2-0.2,0.4-0.4,0.6
				c-0.1,0.1-0.3,0.3-0.4,0.4c-0.2,0.3-0.4,0.5-0.6,0.8c-0.4,0.6-0.6,1.2-0.8,1.9c-0.2,0.7-0.5,1.4-0.7,2.1l-0.4,1l-0.2,0.5
				c-0.1,0.1-0.1,0.4-0.4,0.7c-0.3,0.2-0.7,0.2-0.9,0.2c0,0-0.1,0,0,0c0,0,0,0,0,0c0,0-0.1,0-0.2,0.1c-0.1,0.1-0.2,0.2-0.3,0.3
				c0,0.1,0,0.1-0.1,0.1c0,0.1,0,0.2-0.1,0.3c-0.2,0.4-0.6,0.8-1,1c-0.4,0.2-0.8,0.3-1.1,0.4l-0.5,0.1l0-0.5l-0.2-2l0.7,0.1
				c-0.2,0.3-0.3,0.6-0.6,0.9c-0.1,0.1-0.3,0.3-0.5,0.4c-0.2,0.1-0.5,0.1-0.7,0c-0.4-0.1-0.7-0.3-1-0.4c-0.3-0.2-0.7-0.4-0.8-0.9
				c0-0.2,0-0.5,0.1-0.6c0-0.1,0.1-0.1,0.1-0.2c0,0,0-0.1,0-0.2c0-0.3-0.1-0.6-0.1-1c-0.1-0.7-0.1-1.4,0.2-2
				c0.1-0.3,0.4-0.6,0.6-0.9c0.2-0.2,0.6-0.4,0.8-0.6c0.4-0.4,0.4-1.1,0.4-1.7c0-0.6-0.2-1.2-0.5-1.8l-0.5-0.9
				C24.1,84.2,23.8,83.9,23.6,83.7z M23.6,83.7c0.2,0.2,0.5,0.5,0.6,0.8l0.5,0.8c0.3,0.6,0.6,1.2,0.7,1.9c0,0.3,0.1,0.7,0,1
				c0,0.3-0.1,0.7-0.4,1c-0.3,0.3-0.5,0.4-0.7,0.6c-0.2,0.2-0.4,0.5-0.5,0.7c-0.2,0.5-0.2,1.2-0.1,1.8c0,0.3,0.1,0.6,0.2,1
				c0,0.1,0,0.2,0,0.3c0,0.1-0.1,0.3-0.1,0.3c0,0.1-0.1,0.2-0.1,0.3c0,0.1,0.2,0.3,0.5,0.4c0.3,0.1,0.6,0.3,0.8,0.3
				c0.2,0,0.3,0,0.5-0.2c0.2-0.2,0.3-0.5,0.5-0.8l0.6-1l0.1,1.2l0.3,2l-0.5-0.4c0.4-0.1,0.7-0.2,1-0.3c0.3-0.1,0.4-0.3,0.5-0.6
				c0,0,0-0.1,0.1-0.2c0-0.1,0.1-0.3,0.2-0.4c0.1-0.2,0.3-0.4,0.5-0.5c0.1-0.1,0.2-0.1,0.3-0.2c0.1,0,0.1,0,0.2-0.1
				c0.2,0,0.1,0,0.3,0c0.1,0,0.2,0,0.2,0c0,0,0.2-0.5,0.3-0.8l0.4-1c0.2-0.7,0.5-1.4,0.7-2.1c0.2-0.7,0.5-1.5,0.9-2.1
				c0.2-0.3,0.4-0.7,0.7-1c0.1-0.2,0.3-0.3,0.4-0.4c0.1-0.1,0.2-0.2,0.2-0.3c0.2-0.5,0.2-1.1-0.2-1.6c-0.2-0.2-0.4-0.4-0.6-0.5
				l-1-0.3L31,83.2l0.1-0.4l0.1-0.5l0.1-0.5l0.2-0.9l0.4,0.6l-0.9-0.1c-0.2,0-0.2,0-0.4,0l-0.5,0c-0.3,0-0.7,0-1,0
				c-0.4-0.1-0.8-0.3-1-0.6c-0.3-0.3-0.4-0.7-0.5-0.9c-0.1-0.2-0.2-0.2-0.4-0.3c-0.2,0-0.6,0-0.8,0c-0.2,0-0.5,0.1-0.7,0.3
				c-0.2,0.1-0.4,0.3-0.6,0.6c-0.2,0.2-0.4,0.5-0.7,0.7c-0.1,0.1-0.4,0.3-0.6,0.3c-0.1,0-0.2,0-0.3,0.1c-0.2,0.1-0.5,0.3-0.8,0.4
				c-0.3,0.2-0.7,0.3-1.1,0.2c-0.1,0-0.2-0.1-0.3-0.1l-0.1,0c-0.1,0,0.1,0,0.2,0c0,0,0.1,0,0.1,0l0,0L21.5,82l-0.4,0.3l-1.4,1.2
				l0-0.5l1.4,1.1l0.3,0.3l-0.4,0.2c-0.3,0.1-0.5,0.5-0.5,0.9c0,0.4,0.1,0.9,0.3,1.2l-0.2-0.1c0.6-0.1,1.3-0.3,2-0.3
				c0.4,0,0.7,0.1,1,0.1c0.3,0,0.4-0.3,0.6-0.6l0,0.1c-0.4-0.2-0.8-0.5-0.8-0.9C23.3,84.5,23.5,84.1,23.6,83.7z"/>
			<path class="st1" d="M30,93.7l1-3.6c0.3-1.2,0.6-2.4,1.5-3.5c0.2-0.3,0.5-0.5,0.6-0.7c0.2-0.2,0.3-0.5,0.3-0.7
				c0-0.5-0.2-1.1-0.5-1.5c-0.2-0.2-0.4-0.2-0.7-0.3c-0.3,0-0.8,0-1.1-0.5c-0.2-0.5,0.1-0.9,0.2-1.1c0.1-0.2,0.1-0.5,0.2-0.9
				l0.3,0.4l-0.9,0c0,0-0.2,0-0.2,0l-0.2,0l-0.4,0.1c-0.1,0-0.3,0.1-0.5,0.1c-0.2,0-0.4,0-0.5,0c-0.4-0.1-0.7-0.3-1-0.5
				c-0.3-0.2-0.4-0.6-0.6-0.8c-0.1-0.3-0.2-0.4-0.4-0.5c-0.3-0.2-0.8,0-1.2,0.3c-0.2,0.1-0.4,0.3-0.6,0.5c-0.2,0.2-0.4,0.4-0.6,0.6
				c-0.2,0.3-0.7,0.5-1,0.5c-0.2,0-0.4,0.1-0.6,0.3c-0.2,0.2-0.5,0.4-0.9,0.5c-0.2,0.1-0.4,0.1-0.6,0c-0.1,0-0.2,0-0.3-0.1l-0.1,0
				l0,0c0.2,0.1,0,0,0.1,0c0.1,0,0.2,0,0.2,0c0.1,0,0.1,0,0.1,0c0.1-0.1,0,0,0,0l-1.4,1.1l0.1-0.7c0.3,0.3,0.6,0.6,1.1,0.9
				c0.2,0.2,0.5,0.5,0.5,0.8c0.1,0.4,0.1,0.7,0,1l-0.3,1.1l-0.6-1l-0.6-0.9l0.7,0.2l-0.4,0.2l0.2-0.5l0.2,1.7L20.7,86l3.2-0.4
				l-0.3,0.8c-0.4-0.4-0.8-0.9-0.9-1.7c0-0.4,0.1-0.8,0.3-1.1c0.2-0.3,0.5-0.5,0.8-0.6l0.4-0.2l0.2,0.4l1.4,3.3
				c0.1,0.3,0.2,0.7,0.2,1c0,0.3,0,0.7-0.1,1c-0.1,0.3-0.3,0.7-0.6,0.9c-0.1,0.1-0.3,0.2-0.4,0.3c-0.1,0.1-0.2,0.1-0.3,0.2
				c-0.4,0.3-0.5,0.8-0.6,1.3l0,1.7l0,0.9c0,0.1,0,0.2,0,0.2c0-0.1,0,0,0,0c0,0.1,0.1,0.1,0.2,0.2L26,95l-0.4,0.3l-0.1-1.6
				c0-0.3,0-0.5,0-0.8l0-0.8l0-0.4l0.3,0.1l1.1,0.4l0.6,0.2l-0.6,0.2l-0.3,0.1l0.2-0.2l0.1,3.4l-0.2-0.1c0.3-0.1,0.7-0.2,1-0.4
				c0.3-0.2,0.5-0.5,0.5-0.8c0-0.2,0.1-0.4,0.2-0.5c0.1-0.1,0.3-0.2,0.5-0.3C29.3,93.6,29.7,93.6,30,93.7z M30,93.7
				c-0.4-0.1-0.7-0.1-1.1,0.1c-0.3,0.1-0.6,0.4-0.6,0.8c0,0.4-0.2,0.8-0.6,1c-0.3,0.2-0.7,0.3-1,0.5l-0.2,0.1l0-0.2l-0.3-3.4l0-0.2
				l0.2-0.1l0.3-0.1l0,0.4l-1.1-0.4L26,92l0,0.8c0,0.3,0,0.5,0,0.8l0.2,1.6l0,0.5l-0.5-0.2L24.1,95c-0.2-0.1-0.4-0.2-0.5-0.4
				c-0.1-0.1-0.1-0.2-0.2-0.4c0-0.2,0-0.2,0-0.3l0-0.9l0-1.8c0-0.6,0.2-1.4,0.8-1.9c0.1-0.1,0.3-0.2,0.4-0.3
				c0.1-0.1,0.2-0.1,0.3-0.2c0.2-0.2,0.3-0.4,0.3-0.6c0.1-0.2,0.1-0.5,0.1-0.7c0-0.3-0.1-0.5-0.2-0.7l-1.4-3.2l0.6,0.2
				c-0.4,0.2-0.6,0.4-0.5,0.7c0,0.3,0.3,0.7,0.6,1.1l0.6,0.7L24,86.5L20.8,87l-0.5,0.1l-0.1-0.5l-0.2-1.7l0-0.3l0.3-0.2l0.4-0.2
				l0.4-0.3l0.3,0.4l0.5,0.9L21,85.3c0.1-0.4,0.1-0.6-0.2-0.9c-0.3-0.3-0.8-0.6-1.2-1l-0.3-0.4l0.4-0.3l1.3-1c0,0,0,0,0.1-0.1
				c0,0,0,0,0.1-0.1c0,0,0.1,0,0.2,0c0.1,0-0.1,0,0.1,0l0,0l0,0c0,0,0.1,0,0.1,0c0.1,0,0.2,0,0.3,0c0.2,0,0.4-0.2,0.6-0.3
				c0.2-0.1,0.6-0.4,0.9-0.4c0.3,0,0.4-0.1,0.6-0.2c0.2-0.2,0.4-0.4,0.6-0.6c0.2-0.2,0.5-0.4,0.8-0.6c0.3-0.2,0.6-0.3,0.9-0.4
				c0.3-0.1,0.8-0.1,1.2,0.1c0.4,0.2,0.6,0.6,0.7,0.8c0.1,0.3,0.2,0.5,0.4,0.6c0.2,0.2,0.3,0.3,0.5,0.3c0.1,0,0.2,0,0.3,0
				c0.1,0,0.2,0,0.4-0.1l0.4-0.1l0.2,0c0.2,0,0.2,0,0.3,0l0.9,0.1l0.4,0l-0.1,0.4c-0.1,0.3-0.1,0.6-0.3,0.9
				c-0.1,0.2-0.1,0.3-0.2,0.4c0,0.1,0,0.2,0,0.2c0,0.1,0.2,0.2,0.5,0.2c0.4,0,0.7,0.2,1,0.4c0.3,0.3,0.4,0.6,0.5,0.9
				c0.1,0.3,0.2,0.7,0.1,1c0,0.4-0.2,0.7-0.4,1c-0.3,0.3-0.5,0.4-0.7,0.6c-0.8,0.9-1.2,2.1-1.6,3.2L30,93.7z"/>
		</g>
	</g>
	<g>
		<path class="st0" d="M35.1,82.4c1.1-1.1,2.3-2.2,3.4-3.4c0.6-0.6,1.3-0.4,1.8-0.2c1,0.4,1.8,0.2,2.6-0.3c0.5-0.3,0.7-0.8,1.2-1.2
			c1-0.9,2.1-1,3.2-0.4c0.5,0.2,1,0.3,1.4,0.5c0.2,0.1,0.4,0.3,0.5,0.6c0.3,0.6,0.5,1.2,0.8,1.9c-0.2,0.2-0.5,0.4-0.7,0.7
			c-0.5,0.5-1,1-1.4,1.5c-0.6,0.8-0.7,0.9-1.6,0.4c-1.9-1-3.8-0.6-5,1.2c-0.5,0.7-0.7,1.5-1.3,2.2c-0.2,0.3-0.9,0.4-1.3,0.2
			c-1.1-0.4-1.6-1.3-2-2.3c-0.4-1.1-0.4-1.3-1.6-1.5C35.1,82.4,35.1,82.4,35.1,82.4z M36,82.3c0.4,0.2,0.9,0.5,1.1,1.5
			c0.2,0.9,0.8,1.8,1.9,2.2c0.2,0.1,0.7-0.1,0.9-0.3c0.5-0.7,0.8-1.4,1.3-2.1c1.3-1.9,3.3-2.4,5.2-1.2c0.7,0.4,1,0.2,1.3-0.4
			c0.3-0.4,0.5-0.9,0.9-1.2c1.1-0.9,1.1-0.8,0.7-2.1c-0.1-0.2-0.1-0.4-0.2-0.6c-0.1-0.2-0.3-0.3-0.6-0.4c-0.4-0.2-0.8-0.2-1.1-0.4
			c-1.5-0.8-2.6-0.6-3.6,0.7c-1,1.3-2,1.6-3.5,1.1c-0.7-0.2-1.4-0.2-1.9,0.5C37.6,80.5,36.7,81.4,36,82.3z"/>
		<g>
			<path class="st1" d="M35.1,82.4c1-1.2,2.1-2.3,3.2-3.5c0.3-0.3,0.8-0.6,1.3-0.5c0.5,0,0.8,0.3,1.2,0.3c0.3,0.1,0.7,0.1,1,0
				c0.3-0.1,0.7-0.3,1-0.5c0.3-0.2,0.5-0.5,0.7-0.8c0.3-0.3,0.6-0.7,1-0.9c0.4-0.2,0.9-0.4,1.3-0.4c0.5,0,0.9,0.1,1.3,0.2
				c0.5,0.2,0.7,0.3,1.1,0.4c0.2,0.1,0.4,0.1,0.6,0.2c0.1,0,0.2,0.1,0.4,0.2c0.1,0.1,0.2,0.2,0.3,0.3c0.2,0.2,0.3,0.5,0.3,0.6
				l0.2,0.6l0.4,1.1l0.1,0.3l-0.2,0.2c-0.3,0.3-0.6,0.5-0.9,0.9c-0.3,0.3-0.6,0.6-0.9,0.9c-0.3,0.3-0.4,0.6-0.8,1
				c-0.1,0.1-0.3,0.2-0.5,0.3c-0.2,0-0.4,0-0.6,0c-0.3-0.1-0.5-0.2-0.6-0.3c-0.4-0.2-0.7-0.3-1.1-0.4c-0.4-0.1-0.7-0.1-1.1-0.1
				c-0.7,0.1-1.4,0.5-1.9,1c-0.5,0.5-0.8,1.3-1.3,2.1c-0.1,0.2-0.2,0.4-0.4,0.6c-0.3,0.2-0.5,0.3-0.8,0.3c-0.2,0-0.5,0-0.8,0
				c-0.2-0.1-0.4-0.2-0.6-0.3c-0.8-0.5-1.2-1.4-1.4-2.2c-0.1-0.4-0.2-0.8-0.5-1.1C35.9,82.5,35.4,82.5,35.1,82.4z M35.1,82.4
				c0.4,0.1,0.9,0,1.2,0.3c0.4,0.3,0.5,0.8,0.6,1.1c0.3,0.8,0.8,1.5,1.4,1.9c0.2,0.1,0.3,0.2,0.5,0.2c0.1,0,0.3,0,0.5,0
				c0.2,0,0.4-0.1,0.4-0.2c0.1-0.1,0.2-0.3,0.3-0.5c0.4-0.7,0.7-1.5,1.3-2.3c0.6-0.7,1.4-1.3,2.4-1.4c0.5-0.1,1-0.1,1.4,0
				c0.4,0.1,0.9,0.3,1.3,0.5c0.2,0.1,0.4,0.2,0.5,0.2c0.2,0,0,0,0.1,0c0.2-0.2,0.4-0.6,0.7-1c0.3-0.3,0.6-0.6,0.9-0.9
				c0.3-0.3,0.6-0.6,0.9-0.9l-0.1,0.6L49.1,79c-0.1-0.3-0.3-0.8-0.4-1c-0.1-0.1-0.1-0.1-0.3-0.2c-0.2-0.1-0.3-0.1-0.5-0.2
				c-0.4-0.1-0.8-0.3-1.1-0.5c-0.6-0.3-1.3-0.3-1.9,0.1c-0.3,0.2-0.6,0.4-0.8,0.7c-0.2,0.3-0.5,0.6-0.9,0.9
				c-0.4,0.2-0.8,0.4-1.2,0.5c-0.4,0.1-0.9,0.1-1.3,0c-0.4-0.1-0.8-0.3-1.1-0.4c-0.3-0.1-0.6,0-0.9,0.3
				C37.4,80.3,36.3,81.3,35.1,82.4z"/>
			<path class="st1" d="M36,82.3c0,0,0.1,0,0.4,0.2c0.2,0.1,0.5,0.4,0.7,0.9c0.1,0.2,0.1,0.5,0.2,0.8c0.1,0.3,0.3,0.5,0.5,0.8
				c0.2,0.2,0.5,0.5,0.8,0.6c0.2,0.1,0.4,0.1,0.5,0.2c0.1,0,0.3,0,0.4-0.1c0,0,0.1,0,0.1-0.1l0,0l0-0.1l0.2-0.3
				c0.1-0.2,0.2-0.4,0.3-0.6c0.2-0.4,0.4-0.8,0.7-1.3c0.5-0.8,1.4-1.7,2.7-2c0.6-0.1,1.2-0.1,1.8,0c0.3,0.1,0.6,0.2,0.9,0.3l0.4,0.2
				c0.1,0.1,0.2,0.1,0.3,0.1c0.1,0,0.1,0.1,0.2-0.1c0.1-0.2,0.3-0.4,0.4-0.7c0.2-0.3,0.3-0.5,0.6-0.8c0.3-0.2,0.5-0.4,0.7-0.6
				c0.1-0.1,0.2-0.2,0.2-0.2c0,0,0,0,0-0.1c0-0.1-0.1-0.4-0.2-0.7l-0.1-0.2l-0.1-0.2c0-0.1,0-0.1,0-0.1c0,0,0,0,0-0.1
				c-0.1-0.1-0.3-0.2-0.5-0.3c-0.2-0.1-0.5-0.2-0.8-0.3c-0.3-0.2-0.5-0.3-0.7-0.3c-0.5-0.2-0.9-0.2-1.3-0.1
				c-0.4,0.1-0.8,0.4-1.1,0.8c-0.3,0.4-0.7,0.8-1.2,1.1c-0.5,0.3-1,0.5-1.5,0.5c-0.5,0-1-0.1-1.4-0.3c-0.4-0.1-0.7-0.2-1-0.1
				c-0.3,0.1-0.5,0.3-0.8,0.6c-0.5,0.5-0.9,1-1.2,1.3C36.4,81.9,36,82.3,36,82.3z M36,82.3c0,0,0.3-0.5,0.9-1.3
				c0.3-0.4,0.7-0.9,1.1-1.4c0.2-0.3,0.4-0.7,0.9-0.8c0.4-0.2,0.9-0.1,1.4,0c0.8,0.2,1.7,0.3,2.4-0.3c0.4-0.3,0.6-0.6,0.9-1
				c0.3-0.4,0.8-0.8,1.4-1.1c0.6-0.2,1.3-0.2,1.9,0.1c0.3,0.1,0.6,0.2,0.8,0.3c0.2,0.1,0.5,0.1,0.8,0.3c0.3,0.1,0.7,0.3,0.9,0.6
				c0,0,0.2,0.2,0.2,0.3c0,0.1,0.1,0.2,0.1,0.3c0,0.2,0.1,0.2,0.1,0.4c0.1,0.3,0.2,0.5,0.2,1c0,0.2-0.1,0.5-0.2,0.7
				c-0.1,0.2-0.3,0.3-0.4,0.4l-0.6,0.5c-0.2,0.1-0.3,0.4-0.4,0.6c-0.1,0.2-0.3,0.5-0.5,0.8c-0.1,0.1-0.3,0.3-0.5,0.4
				c-0.3,0.1-0.5,0.1-0.7,0c-0.2-0.1-0.4-0.1-0.5-0.2l-0.3-0.2c-0.2-0.1-0.5-0.2-0.7-0.3c-0.5-0.1-0.9-0.2-1.4-0.1
				c-0.9,0.2-1.7,0.8-2.2,1.5c-0.3,0.3-0.5,0.8-0.7,1.2c-0.1,0.2-0.2,0.4-0.4,0.6l-0.2,0.3l0,0.1c0,0-0.1,0.1-0.1,0.1
				c-0.1,0.1-0.1,0.1-0.2,0.1c-0.3,0.1-0.5,0.2-0.8,0.1c-0.3-0.1-0.4-0.2-0.6-0.3c-0.4-0.2-0.7-0.5-0.9-0.8
				c-0.5-0.6-0.5-1.3-0.6-1.7c-0.1-0.5-0.4-0.8-0.6-0.9C36.1,82.4,36,82.3,36,82.3z"/>
		</g>
	</g>
	<g>
		<path class="st0" d="M59.6,39.8c1.1-1.7,2.5-3.2,4.4-4.1c0.2-0.1,0.4-0.4,0.6-0.6c0.4-0.5,0.8-0.5,1.4-0.3c0.4,0.1,0.9,0.1,1.3,0
			c0.5-0.2,0.9-0.7,1.4-0.9c0.5-0.2,1.2-0.2,1.7-0.3c0.1,0,0.4,0.2,0.4,0.4c0,0.2-0.1,0.5-0.3,0.5c-1.9,0.9-3.9,1.7-5.8,2.5
			c-0.2,0.1-0.5,0.2-0.7,0.3c-1,0.8-2,1.6-3.1,2.3c-0.3,0.2-0.8,0.2-1.2,0.4C59.7,40,59.7,39.9,59.6,39.8z M70.8,34.2
			c-0.8-0.5-1.3-0.5-1.9-0.2c-0.5,0.3-1,0.7-1.5,1c-0.5,0.3-1,0.5-1.6,0.1c-0.2-0.1-0.7,0.1-1.1,0.3c-0.2,0.1-0.4,0.4-0.6,0.6
			c-0.6,0.4-1.3,0.8-1.9,1.3c-0.3,0.2-0.6,0.5-0.8,0.8c-0.5,0.5-1,1.1-1.5,1.7c0.1,0.1,0.1,0.2,0.2,0.2c0.2-0.1,0.4-0.1,0.6-0.2
			c1-0.8,2-1.6,3-2.3c0.2-0.1,0.3-0.2,0.5-0.3c1.5-0.6,2.9-1.2,4.4-1.8C69.3,35,70,34.6,70.8,34.2z"/>
		<g>
			<path class="st1" d="M59.6,39.8c0.5-1,1.2-1.9,1.9-2.7c0.4-0.4,0.8-0.8,1.3-1.1c0.2-0.2,0.5-0.3,0.7-0.5c0.3-0.2,0.3-0.2,0.5-0.4
				c0.1-0.1,0.2-0.2,0.3-0.3c0.1-0.1,0.3-0.3,0.5-0.3c0.4-0.2,0.8-0.2,1.1-0.1c0.2,0,0.3,0.1,0.4,0.1c0.1,0,0.2,0,0.3,0
				c0.2,0,0.4-0.1,0.6-0.1c0.3-0.2,0.8-0.7,1.5-0.9c0.3-0.1,0.6-0.1,0.9-0.2l0.4,0l0.2,0l0.1,0c0.1,0,0.3,0,0.4,0.1
				c0.3,0.2,0.4,0.2,0.5,0.6c0,0,0,0.2,0,0.2l0,0.1c0,0.1,0,0.1,0,0.2c0,0.1-0.1,0.2-0.1,0.3c-0.1,0.1-0.1,0.2-0.3,0.3
				c0,0-0.1,0.1-0.1,0.1l-0.1,0l-0.1,0l-0.4,0.2l-1.5,0.6c-1,0.4-2.1,0.8-3.1,1.2l-0.8,0.3c-0.3,0.1-0.5,0.1-0.7,0.3l-1.4,0.9
				l-1.4,0.9c-0.2,0.1-0.5,0.3-0.8,0.4c-0.3,0.1-0.6,0.1-0.8,0.1l0,0l0,0L59.6,39.8z M59.6,39.8l0.2,0.3l0,0
				c0.3-0.1,0.5-0.2,0.8-0.3c0.2-0.1,0.4-0.3,0.6-0.5l1.3-1.1l1.3-1.1c0.2-0.2,0.6-0.3,0.8-0.4l0.7-0.4c1-0.5,2-0.9,3-1.4l1.5-0.7
				l0.4-0.2c0.2-0.1,0,0,0.1,0c0,0,0-0.1,0-0.1c0,0,0,0,0,0c0,0,0,0,0,0c0,0,0,0.1,0,0.1c0.1,0.1-0.1,0,0,0c0,0,0.2,0,0.2,0l-0.1,0
				l-0.2,0l-0.4,0c-0.3,0-0.5,0.1-0.7,0.1c-0.4,0.1-0.7,0.5-1.3,0.8c-0.7,0.3-1.4,0.2-1.9,0c-0.5-0.1-0.6-0.1-1,0.4
				c-0.1,0.1-0.2,0.2-0.4,0.4c-0.2,0.1-0.3,0.1-0.4,0.2c-0.2,0.1-0.5,0.2-0.7,0.4c-0.5,0.3-0.9,0.6-1.3,0.9
				C61,38.1,60.3,39,59.6,39.8z"/>
			<path class="st1" d="M70.8,34.2c-0.5-0.3-1-0.4-1.5-0.2c-0.2,0.1-0.4,0.3-0.7,0.4L68,34.9c-0.2,0.2-0.4,0.3-0.7,0.5
				c-0.3,0.1-0.6,0.3-1,0.2c-0.2,0-0.3-0.1-0.5-0.1c-0.1,0-0.1-0.1-0.2-0.1c0.1,0,0,0,0,0s0,0,0,0c0,0,0,0,0,0
				c-0.1,0-0.4,0.1-0.6,0.3c-0.2,0.1-0.1,0.1-0.2,0.2c-0.1,0.1-0.1,0.2-0.3,0.3c-0.2,0.2-0.3,0.2-0.4,0.3l-0.3,0.2l-0.7,0.5
				c-0.2,0.1-0.5,0.3-0.6,0.4l-0.6,0.6l-0.1,0.1c0,0-0.1,0.1-0.1,0.1l-0.3,0.3L60.3,40l0-0.7l0.2,0.2L60,39.4l0.4-0.1
				c0.1,0,0.1,0,0.2-0.1l0.6-0.5l1.2-0.9l0.6-0.4c0.2-0.2,0.4-0.3,0.7-0.5l0.3-0.2l0.1,0c0.1-0.1,0.1,0,0.1-0.1l0.2-0.1l0.7-0.3
				c1-0.3,1.9-0.7,2.9-1C68.9,35,69.9,34.5,70.8,34.2z M70.8,34.2c-0.9,0.5-1.7,1-2.7,1.5c-0.9,0.4-1.8,0.8-2.8,1.3l-0.7,0.3
				l-0.2,0.1c0,0-0.1,0,0,0l-0.1,0.1l-0.3,0.2c-0.1,0.1-0.4,0.3-0.6,0.4l-0.6,0.5l-1.2,0.9l-0.6,0.5c-0.1,0.1-0.3,0.2-0.4,0.3
				l-0.4,0.1L60,40.4l-0.2-0.3L59.6,40l-0.3-0.3l0.3-0.3l1.1-1.2l0.3-0.3c0.1-0.1,0-0.1,0.2-0.2l0.2-0.1l0.6-0.6
				c0.3-0.2,0.5-0.3,0.7-0.5l0.7-0.4l0.3-0.2c0.1-0.1,0.3-0.2,0.3-0.2c0.1-0.1,0.2-0.2,0.3-0.3c0.1-0.1,0.4-0.3,0.5-0.3
				c0.3-0.1,0.5-0.2,0.9-0.3c0.1,0,0.1,0,0.2,0c0,0,0.1,0,0.1,0l0.1,0c0,0,0.1,0.1,0.1,0.1c0.1,0.1,0.2,0.1,0.3,0.1
				c0.4,0.1,0.9-0.2,1.3-0.5l0.7-0.4c0.2-0.1,0.5-0.3,0.8-0.4c0.3-0.1,0.6-0.1,0.9,0C70.4,33.9,70.6,34.1,70.8,34.2z"/>
		</g>
	</g>
	<g>
		<path class="st0" d="M51,44.5c-0.4-0.4-0.5-0.8,0.1-1.2c0.7-0.6,1.4-1.3,2.1-2c0.3-0.3,0.5-0.8,0.8-1.1c0.2-0.3,0.6-0.6,0.8-0.6
			c0.3,0.1,0.6,0.4,0.9,0.7c0.1,0.1,0,0.5-0.1,0.6C54.1,42.1,52.5,43.3,51,44.5z M50.9,44c0.1,0.1,0.1,0.1,0.2,0.2
			c0.2-0.1,0.3-0.2,0.5-0.4c1.1-0.9,2.3-1.8,3.4-2.8c0.2-0.2,0.4-0.4,0.4-0.6c0-0.2-0.4-0.5-0.5-0.5c-0.3,0-0.6,0.2-0.8,0.4
			c-0.4,0.4-0.7,0.9-1.1,1.4c-0.5,0.6-1.1,1.1-1.7,1.6C51.1,43.5,51,43.8,50.9,44z"/>
		<g>
			<path class="st1" d="M51,44.5c0,0,0,0-0.1-0.1c-0.1-0.1-0.2-0.2-0.3-0.4c-0.1-0.2,0.1-0.5,0.3-0.8c0.2-0.2,0.4-0.4,0.6-0.7
				c0.2-0.3,0.5-0.5,0.7-0.8c0.1-0.1,0.3-0.3,0.4-0.4c0.1-0.2,0.3-0.3,0.4-0.4c0.2-0.3,0.4-0.7,0.8-1.1c0.2-0.2,0.3-0.4,0.6-0.5
				c0.1,0,0.2-0.1,0.3-0.1c0.1,0,0.2,0,0.2,0c0,0,0.1,0,0.1,0c0.2,0.1,0.3,0.2,0.4,0.2c0.2,0.2,0.4,0.4,0.5,0.6l0,0l0,0.1l0,0
				c0.1,0.1,0.1,0.2,0.1,0.3c0,0.1,0,0.2,0,0.3c0,0.2,0,0.3-0.2,0.6c-0.1,0.1-0.1,0.1-0.1,0.1l-0.1,0l-0.1,0.1l-0.3,0.2
				c-0.2,0.1-0.4,0.2-0.5,0.4c-0.7,0.5-1.3,0.9-1.9,1.3C51.8,44.1,51,44.5,51,44.5z M51,44.5c0,0,0.6-0.7,1.6-1.6
				c0.5-0.5,1.1-1,1.7-1.5c0.2-0.1,0.3-0.3,0.5-0.4l0.3-0.2l0.1-0.1l0.1-0.1c0,0,0.1-0.1,0,0c-0.1,0.1,0,0,0,0c0,0,0,0,0,0
				c0,0,0,0,0.1,0.1l0,0l0,0c0,0,0.1,0.1,0,0l0,0l0,0c-0.1-0.2-0.3-0.3-0.4-0.4c-0.1,0-0.1-0.1-0.1-0.1c0,0,0,0,0,0c0,0,0.1,0,0.1,0
				c0,0,0,0,0,0c-0.1,0-0.2,0.2-0.4,0.3c-0.3,0.3-0.5,0.6-0.8,1c-0.2,0.2-0.3,0.3-0.5,0.5c-0.2,0.1-0.3,0.3-0.5,0.4
				c-0.3,0.2-0.6,0.5-0.8,0.7c-0.5,0.4-1.1,0.7-1.1,1c0,0.2,0.1,0.3,0.1,0.4C50.9,44.4,51,44.5,51,44.5z"/>
			<path class="st1" d="M50.9,44l0.2,0.1l-0.1,0c0.7-0.7,1.4-1.5,2.2-2.2c0.4-0.4,0.8-0.7,1.1-1c0.2-0.2,0.4-0.3,0.5-0.5
				c0.1-0.1,0.1-0.1,0.1-0.1c0,0.1,0,0.2,0,0.2l-0.1-0.1c0,0-0.2-0.1,0-0.1c0,0-0.1,0-0.2,0.1c-0.2,0.1-0.3,0.2-0.5,0.4
				c-0.3,0.3-0.6,0.8-1.1,1.2c-0.4,0.3-0.8,0.6-1.2,1l-0.6,0.5C51.2,43.6,51,43.8,50.9,44z M50.9,44c0.1-0.2,0.2-0.5,0.3-0.7
				l0.5-0.6c0.3-0.4,0.7-0.8,1-1.2c0.3-0.4,0.6-0.8,0.9-1.2c0.2-0.2,0.4-0.5,0.7-0.6c0.2-0.1,0.3-0.2,0.6-0.2c0.5,0,0.5,0.2,0.7,0.3
				c0.1,0.1,0.1,0.1,0.2,0.2c0.1,0.1,0.2,0.3,0.1,0.5c-0.1,0.3-0.2,0.5-0.3,0.6c-0.2,0.3-0.5,0.4-0.6,0.6c-0.4,0.3-0.8,0.6-1.2,0.9
				c-0.9,0.6-1.7,1.2-2.6,1.6l0,0l0,0L50.9,44z"/>
		</g>
	</g>
	<g>
		<path class="st0" d="M27.9,100.1c-0.7-0.7-0.5-1.7,0.5-2.6C28.9,98.6,28.1,99.3,27.9,100.1z"/>
		<path class="st1" d="M27.9,100.1c-0.1,0-0.2-0.1-0.4-0.2c-0.1-0.1-0.2-0.2-0.3-0.4c-0.1-0.3-0.2-0.6-0.1-0.9
			c0.1-0.6,0.5-1.1,0.9-1.5l0.5-0.5l0.3,0.6c0.1,0.3,0.2,0.6,0.2,0.9c0,0.3-0.1,0.6-0.2,0.8C28.5,99.5,28.2,99.7,27.9,100.1z
			 M27.9,100.1c-0.1-0.5,0.1-1,0.2-1.4c0.1-0.4,0-0.7-0.1-1l0.8,0.1c-0.3,0.3-0.6,0.6-0.8,1C27.8,99.2,27.7,99.6,27.9,100.1z"/>
	</g>
	<g>
		<path class="st0" d="M72.6,53.6c-0.1,0.8-0.2,1.5-0.5,2.3c-0.1,0.2-0.5,0.4-0.8,0.4c-0.1,0-0.4-0.4-0.5-0.7
			C70.8,54.7,71.5,53.8,72.6,53.6z M72.3,54c-0.1,0-0.2-0.1-0.3-0.1c-0.6,0.3-0.9,1-0.9,1.7c0,0.2,0.2,0.4,0.3,0.5
			c0.2-0.1,0.5-0.2,0.6-0.4C72.2,55.2,72.2,54.6,72.3,54z"/>
		<g>
			<path class="st1" d="M72.6,53.6c0,0,0.1,0.5,0.1,1.1c0,0.3,0,0.7-0.1,1.2c0,0.1-0.2,0.4-0.3,0.5c-0.1,0.1-0.3,0.2-0.4,0.2
				c-0.1,0.1-0.3,0.1-0.4,0.1l-0.1,0l0,0l-0.1,0l0,0l0,0c-0.1,0-0.2-0.1-0.2-0.1c-0.1-0.1-0.2-0.1-0.3-0.2c-0.2-0.3-0.3-0.5-0.4-0.9
				c0-0.1,0-0.3,0-0.4c0-0.1,0.1-0.3,0.1-0.4c0.2-0.5,0.6-0.8,0.9-1c0.3-0.2,0.6-0.2,0.8-0.2C72.5,53.5,72.6,53.6,72.6,53.6z
				 M72.6,53.6c0,0-0.1,0.1-0.3,0.2c-0.2,0.1-0.4,0.3-0.6,0.5c-0.2,0.2-0.4,0.5-0.4,0.8c0,0.1,0,0.1,0,0.2c0,0.1,0,0.1,0,0.2
				c0,0,0.1,0.2,0.2,0.3c0,0,0,0,0,0c0,0-0.1,0-0.1,0c-0.1,0,0.1,0-0.1,0l0,0c0.1,0,0.1,0,0.2,0c0.1,0,0.1-0.1,0.2-0.1
				c0,0,0,0.1,0,0c0.1-0.4,0.3-0.7,0.4-1C72.4,54,72.6,53.6,72.6,53.6z"/>
			<path class="st1" d="M72.3,54c-0.1,0-0.2,0-0.3,0l0.1,0c-0.3,0.3-0.4,0.7-0.5,1c0,0.2,0,0.4-0.1,0.5c0,0,0-0.1,0-0.1c0,0,0,0,0,0
				c0.1,0.1,0.1,0.1,0.2,0.3l-0.7-0.2c0.1-0.1,0.2-0.1,0.3-0.2c0.1,0,0.2-0.1,0.1,0c0,0,0,0,0,0.1c0,0.1,0,0,0,0l0-0.1l0.1-0.3
				C71.9,54.7,72.1,54.4,72.3,54z M72.3,54c0.1,0.4,0.1,0.9,0.1,1.3l0,0.3l0,0.2c0,0,0,0,0,0.1c0,0.1-0.1,0.2-0.1,0.2
				c-0.2,0.2-0.3,0.2-0.4,0.3c-0.1,0.1-0.2,0.1-0.2,0.1l-0.4,0.3L71,56.3c0,0-0.1-0.1-0.2-0.2c0-0.1-0.1-0.1-0.1-0.2
				c-0.1-0.1-0.1-0.3-0.1-0.4c0-0.2,0.1-0.5,0.2-0.7c0.2-0.5,0.7-0.9,1.2-1l0.1,0l0,0C72.2,53.9,72.3,53.9,72.3,54z"/>
		</g>
	</g>
	<g>
		<path class="st0" d="M51.6,75.2c-0.1,0.5-0.1,0.9-0.2,1.4c-0.2,1.1-0.6,1.3-1.8,0.7C50.3,76.5,51,75.9,51.6,75.2L51.6,75.2z
			 M50.1,77.1c0.9,0.4,1.1,0.1,1.1-1.3C50.8,76.3,50.5,76.7,50.1,77.1z"/>
		<g>
			<path class="st1" d="M51.6,75.2c0.1,0.3,0.1,0.7,0.1,1l0,0.2c0,0.1,0,0.2,0,0.3c0,0.2,0,0.4-0.1,0.6c-0.1,0.2-0.2,0.4-0.4,0.6
				C51,78,50.7,78.1,50.5,78c-0.4,0-0.8-0.2-1.1-0.3l-0.6-0.3l0.5-0.5c0.3-0.3,0.7-0.7,1.1-0.9C50.8,75.7,51.2,75.4,51.6,75.2
				L51.6,75.2L51.6,75.2z M51.6,75.2L51.6,75.2L51.6,75.2L51.6,75.2c-0.2,0.5-0.4,0.9-0.7,1.3c-0.3,0.4-0.6,0.8-0.9,1.1l-0.1-0.8
				c0.3,0.1,0.6,0.2,0.8,0.3c0.1,0,0.1,0,0.2,0c0,0,0.1-0.1,0.1-0.2c0.1-0.1,0.1-0.2,0.2-0.4l0.2-0.5C51.3,75.8,51.5,75.5,51.6,75.2
				z"/>
			<path class="st1" d="M50.1,77.1c0.2,0,0.4,0,0.6-0.1c0.1,0,0.1-0.1,0-0.1c0,0,0-0.1,0-0.1c0-0.2,0-0.6,0-1l0.9,0.3
				c-0.2,0.2-0.4,0.4-0.6,0.6C50.7,76.9,50.4,77,50.1,77.1z M50.1,77.1c0-0.3,0.2-0.6,0.3-0.9c0.1-0.3,0.3-0.5,0.4-0.7l0.8-1
				l0.1,1.3c0,0.4,0,0.8-0.2,1.3c-0.1,0.1-0.2,0.3-0.3,0.4c-0.2,0.1-0.4,0.1-0.5,0.1C50.4,77.5,50.2,77.3,50.1,77.1z"/>
		</g>
	</g>
	<g>
		<path class="st0" d="M25.8,101.1c-0.5-0.3-0.9-0.4-1.2-0.7c-0.1-0.1,0.1-0.5,0.1-0.9C25.3,99.9,26.2,99.8,25.8,101.1z"/>
		<path class="st1" d="M25.8,101.1c-0.4,0-0.8,0-1.3-0.2l-0.2-0.1l-0.1-0.1l0,0l-0.1-0.1c0,0-0.1-0.1-0.1-0.2c-0.1-0.2,0-0.3,0-0.3
			l0-0.2l0.1-0.6l0.1-0.9l0.6,0.6c0.1,0.1,0.2,0.1,0.4,0.2c0.2,0.1,0.4,0.2,0.6,0.4c0.2,0.2,0.3,0.6,0.2,0.8
			C26.1,100.8,26,101,25.8,101.1z M25.8,101.1c-0.1-0.2-0.1-0.4-0.1-0.6c-0.1-0.2-0.1-0.2-0.2-0.2c-0.2-0.1-0.6-0.1-1-0.4l0.8-0.3
			c0,0.2-0.1,0.4-0.1,0.6l0,0.1c0,0,0,0.1,0,0c0,0-0.1-0.1-0.1-0.1l0,0l0,0l0,0l0,0c0,0-0.1-0.1,0-0.1l0,0l0,0l0,0l0.1,0.1
			C25.2,100.5,25.6,100.7,25.8,101.1z"/>
	</g>
	<g>
		<path class="st0" d="M22.2,89.4c0.1-0.6,0.2-1.2,0.4-1.7c0-0.1,0.5-0.1,1-0.1c-0.4,0.8-0.7,1.4-0.9,1.9
			C22.4,89.4,22.3,89.4,22.2,89.4z"/>
		<path class="st1" d="M22.2,89.4c-0.1-0.5-0.2-1-0.1-1.5c0-0.1,0-0.3,0.1-0.4l0,0l0,0l0-0.1c0,0,0,0,0,0c0-0.1,0.1-0.1,0.2-0.1
			l0.1,0c0.1,0,0.1,0,0.2-0.1c0.1,0,0.2,0,0.2,0l0.7-0.1l0.9-0.1L24,87.8c-0.3,0.6-0.7,1.2-1.2,1.8l-0.1,0.1l-0.1,0
			C22.4,89.5,22.3,89.5,22.2,89.4z M22.2,89.4c0.1,0,0.3-0.1,0.4-0.1l-0.2,0.1c0.1-0.7,0.3-1.4,0.7-2.1l0.5,0.7c-0.3,0-0.5,0-0.7,0
			l-0.1,0c0,0,0,0,0,0l0,0c0.1,0,0.1-0.1,0.1-0.1c0,0,0,0,0,0l0,0c0.1-0.2,0-0.1,0-0.1l0,0l0,0l0,0l0,0l-0.1,0.3
			C22.6,88.5,22.5,89,22.2,89.4z"/>
	</g>
	<g>
		<path class="st0" d="M57.2,44.1c0.7-0.5,1.3-0.9,2.2-0.6C58.5,44.5,57.8,44.7,57.2,44.1z"/>
		<path class="st1" d="M57.2,44.1c0.2-0.4,0.5-0.7,0.9-1c0.2-0.1,0.5-0.2,0.7-0.2c0.3,0,0.5,0,0.7,0.1l0.7,0.2l-0.5,0.6
			c-0.2,0.2-0.3,0.3-0.5,0.5c-0.2,0.1-0.4,0.3-0.7,0.3c-0.3,0.1-0.6,0.1-0.8-0.1C57.4,44.5,57.3,44.3,57.2,44.1z M57.2,44.1
			c0.2,0.1,0.4,0.1,0.6,0.1c0.2,0,0.3-0.1,0.4-0.2c0.3-0.2,0.5-0.5,0.8-0.8l0.2,0.8c-0.3-0.1-0.6-0.2-0.9-0.1
			C58,43.9,57.6,44,57.2,44.1z"/>
	</g>
	<g>
		<path class="st0" d="M16.6,85.7c-0.7-0.5-0.3-1,0-1.4c0.1-0.1,0.6,0,0.6,0.1C17.5,85,17.2,85.4,16.6,85.7z"/>
		<path class="st1" d="M16.6,85.7c0,0-0.1,0-0.2,0c-0.1,0-0.3-0.1-0.5-0.4c-0.1-0.3,0-0.7,0.1-0.9c0.1-0.1,0.1-0.2,0.2-0.3l0,0
			l0.1-0.1c0,0,0.2-0.1,0.2-0.1c0.1,0,0.2,0,0.2,0c0.1,0,0.2,0,0.3,0c0.1,0,0.2,0,0.3,0.1c0.1,0,0.1,0,0.2,0.1c0,0,0.1,0.1,0.1,0.1
			c0,0,0,0,0.1,0.1l0,0l0,0c0,0,0.1,0.1,0.1,0.2c0,0.1,0,0.2,0,0.3c0,0.4-0.3,0.7-0.5,0.8C16.9,85.8,16.6,85.7,16.6,85.7z
			 M16.6,85.7c0,0,0.2-0.3,0.3-0.5c0.1-0.1,0-0.2,0-0.3l0-0.1c0,0,0,0-0.1-0.1l0,0l0,0c0,0.1,0,0,0,0.1c0,0,0.1,0.1,0.1,0.1l0.1,0
			l-0.1,0l-0.1,0c0,0,0,0,0,0c0,0,0.2-0.1,0.1-0.1l0,0c0,0,0.1-0.1,0.1-0.1l0,0l0,0l0,0l0,0c-0.1,0.1-0.2,0.2-0.2,0.2
			c-0.1,0.1-0.2,0.2-0.3,0.3c0,0.1,0,0.3,0,0.4C16.6,85.6,16.6,85.7,16.6,85.7z"/>
	</g>
	<g>
		<path class="st0" d="M24.7,35.5c0.4-0.1,0.9-0.2,1.5-0.4C26.1,35.6,26,36,26,36.5c-0.5-0.3-0.9-0.5-1.3-0.7
			C24.7,35.7,24.7,35.6,24.7,35.5z"/>
		<path class="st1" d="M24.7,35.5c0.2-0.2,0.4-0.3,0.7-0.5c0.2-0.1,0.5-0.2,0.7-0.3l0.5-0.2l0,0.7c0,0.5,0,1-0.1,1.4l-0.1,0.8
			L25.8,37c-0.4-0.3-0.8-0.6-1.2-1l-0.1-0.1l0,0C24.6,35.7,24.6,35.6,24.7,35.5z M24.7,35.5c0.1,0.1,0.1,0.2,0.1,0.3l-0.1-0.1
			c0.5,0.1,1,0.2,1.5,0.5l-0.7,0.4c0-0.5,0.1-1,0.2-1.4l0.5,0.5c-0.3,0-0.5,0-0.8,0C25.2,35.6,24.9,35.5,24.7,35.5z"/>
	</g>
	<g>
		<path class="st0" d="M74.5,33c0.5-0.6,1-1.2,1.6-1.8C76.7,32.7,76.2,33.2,74.5,33z M76.1,31.6c-0.5,0.5-0.8,0.9-1.1,1.2
			C75.8,32.9,76.4,32.7,76.1,31.6z"/>
		<g>
			<path class="st1" d="M74.5,33c0.1-0.4,0.3-0.8,0.5-1.2c0.2-0.4,0.5-0.7,0.7-1l0.5-0.7l0.3,0.8c0.1,0.3,0.2,0.6,0.2,0.9
				c0,0.2,0,0.4,0,0.6c0,0.2-0.2,0.4-0.3,0.6c-0.4,0.3-0.8,0.3-1.1,0.3C75.1,33.3,74.8,33.2,74.5,33z M74.5,33
				c0.3-0.1,0.6-0.1,0.8-0.2c0.2-0.1,0.4-0.2,0.5-0.3c0-0.1,0-0.2,0-0.5c0-0.2-0.1-0.5-0.2-0.7l0.8,0.2c-0.3,0.3-0.6,0.6-0.9,0.8
				C75.3,32.6,74.9,32.8,74.5,33z"/>
			<path class="st1" d="M76.1,31.6c0,0.3-0.2,0.6-0.3,0.9c-0.1,0.3-0.3,0.5-0.5,0.7L75,32.3c0.2,0,0.3,0,0.4,0c0.1,0,0.2,0,0.2,0
				c0.1,0,0.1-0.1,0.2-0.2C76,31.9,76,31.8,76.1,31.6z M76.1,31.6c0.2,0.2,0.3,0.3,0.3,0.5c0.1,0.2,0.1,0.5-0.1,0.8
				c-0.2,0.3-0.5,0.4-0.8,0.4c-0.2,0-0.5,0-0.7,0L74,33.1l0.6-0.6c0.2-0.2,0.4-0.4,0.6-0.5C75.5,31.8,75.8,31.6,76.1,31.6z"/>
		</g>
	</g>
	<g>
		<path class="st0" d="M14.1,87.1c0.2-0.4,0.4-0.8,0.7-1.3C15.5,86.8,15.4,87,14.1,87.1z"/>
		<path class="st1" d="M14.1,87.1c-0.1-0.6,0.1-1.1,0.2-1.5l0.3-0.8l0.5,0.8c0.1,0.2,0.2,0.3,0.3,0.5c0,0.1,0.1,0.2,0.1,0.4
			c0,0.1,0,0.2,0,0.3c0,0.1,0,0.2-0.1,0.3c-0.1,0.1-0.2,0.2-0.2,0.2c-0.1,0-0.2,0.1-0.2,0.1c-0.1,0-0.2,0-0.4,0
			C14.5,87.2,14.3,87.2,14.1,87.1z M14.1,87.1c0.2-0.1,0.4-0.2,0.5-0.3c0.1,0,0.1-0.1,0.2-0.1c0,0,0,0,0-0.1c0,0,0,0-0.1,0
			c0,0,0,0.1,0,0.1c0,0,0,0,0,0c0,0-0.1-0.1-0.1-0.2c-0.1-0.1-0.2-0.3-0.3-0.5l0.8,0C14.9,86.4,14.6,86.8,14.1,87.1z"/>
	</g>
	<g>
		<path class="st0" d="M17.8,76.8c0.2,0.5,0.5,0.9-0.1,1.3c-0.1,0.1-0.5-0.1-0.5-0.1c0.1-0.4,0.2-0.8,0.3-1.3
			C17.6,76.8,17.7,76.8,17.8,76.8z"/>
		<path class="st1" d="M17.8,76.8c0.1,0.1,0.3,0.2,0.4,0.3c0.1,0.1,0.2,0.3,0.2,0.5c0,0.2-0.1,0.5-0.2,0.7c-0.1,0.1-0.1,0.2-0.2,0.2
			l-0.1,0l-0.1,0c-0.1,0-0.1,0-0.2,0c-0.1,0-0.2,0-0.2,0c-0.1,0-0.2,0-0.3-0.1L17,78.5l0,0l0,0c0,0,0,0.1-0.1-0.2
			c-0.1-0.1-0.1-0.2-0.1-0.3l0,0l0,0l0,0l0,0c0-0.1,0.1-0.3,0.1-0.4c0.1-0.3,0.3-0.5,0.5-0.7l0.2-0.2l0.1,0.1
			C17.7,76.6,17.7,76.7,17.8,76.8z M17.8,76.8c-0.1,0-0.2,0.1-0.3,0.1l0.2-0.1c0.1,0.3,0.1,0.6,0.1,0.9c0,0.1,0,0.3-0.1,0.4l0,0.1
			l0,0l0,0c0,0,0,0,0,0c0-0.1,0-0.2-0.1-0.3c-0.2-0.2-0.1-0.1-0.1-0.2l0,0l0,0c0,0,0,0,0,0c0,0,0.1,0,0.1,0c0,0,0,0,0,0
			c0,0-0.1,0-0.1,0c0,0,0,0,0,0l0,0l0,0l0,0c0,0-0.1,0.1-0.1,0l0,0l0,0c0,0,0.1,0,0.1,0c0,0,0.1,0,0.1-0.1
			C17.8,77.5,17.7,77.1,17.8,76.8z"/>
	</g>
	<g>
		<path class="st0" d="M18.5,76.9c-0.1-0.5-0.3-0.9-0.4-1.4c0-0.2,0.3-0.4,0.5-0.6c0.2,0.2,0.6,0.4,0.6,0.6c0,0.5-0.2,1-0.3,1.5
			C18.7,76.9,18.6,76.9,18.5,76.9z M18.4,76.4c0.2,0,0.3,0,0.5,0c0-0.4,0-0.8,0-1.1c0,0-0.3-0.1-0.4-0.1
			C18.4,75.6,18.4,76,18.4,76.4z"/>
		<g>
			<path class="st1" d="M18.5,76.9c-0.3-0.3-0.5-0.6-0.7-1c0-0.1-0.1-0.2-0.1-0.3c0,0,0,0,0-0.1c0,0,0-0.2,0-0.2
				c0-0.1,0.1-0.2,0.1-0.3c0.2-0.2,0.3-0.4,0.4-0.4l0.3-0.4l0.4,0.3c0.1,0.1,0.3,0.2,0.5,0.3c0.1,0,0.1,0.1,0.2,0.2
				c0,0,0.1,0.1,0.1,0.2c0,0,0,0.1,0,0.1c0,0,0,0,0,0.1l0,0c0,0.1,0,0.2-0.1,0.3c-0.1,0.4-0.3,0.8-0.6,1.1l-0.1,0.2l-0.1,0
				C18.7,77,18.6,77,18.5,76.9z M18.5,76.9c0.1-0.1,0.3-0.1,0.4-0.2l-0.2,0.1c0-0.4,0-0.8,0-1.2c0-0.1,0-0.1,0-0.2l0,0
				c0,0,0,0,0,0.1c0,0,0,0.1,0,0.1c0,0,0,0.1,0,0.1c0,0,0,0,0,0c-0.1-0.1-0.3-0.2-0.5-0.3l0.7-0.1c-0.2,0.2-0.3,0.3-0.4,0.4
				c0,0,0,0,0,0c0,0,0-0.1,0-0.1c0-0.1,0,0,0,0c0,0.1,0,0.2,0,0.2C18.5,76.1,18.5,76.5,18.5,76.9z"/>
			<path class="st1" d="M18.4,76.4c0.2-0.1,0.3-0.2,0.5-0.3l-0.3,0.3c-0.1-0.3-0.2-0.5-0.2-0.8l0-0.2l0-0.1l0,0l0,0l0,0l0,0l0,0
				c0,0,0.1,0.3,0,0.1l0,0l0,0c0,0,0,0.1,0.1,0.1c0,0,0.1,0.1,0.1,0.1l0,0l0,0l0,0c0,0-0.1,0-0.1,0c-0.1,0-0.1,0-0.2-0.1l0.6-0.4
				C18.9,75.6,18.7,76,18.4,76.4z M18.4,76.4C18.1,76,18,75.6,18,75.2l0-0.3l0.6-0.1c0,0,0.1,0,0.2,0c0.1,0,0.1,0,0.3,0l0.1,0l0.1,0
				l0,0c0,0,0.1,0.1,0.1,0.1c0,0,0.1,0.1,0.1,0.1l0,0l0,0l0,0.1l0,0l0,0l0,0l0,0.1l0,0.2c0,0.3-0.1,0.6-0.2,0.8l-0.1,0.3l-0.2-0.1
				C18.7,76.6,18.6,76.6,18.4,76.4z"/>
		</g>
	</g>
	<g>
		<path class="st0" d="M80,43.8c1.3-0.9,1.4-2.1,1.3-3.3c0-0.7,0.1-1.3,1-1.4c0.2,0,0.4-0.4,0.4-0.6c0.1-0.3,0-0.7,0.2-0.9
			c0.2-0.3,0.6-0.7,0.9-0.7c0.2,0,0.6,0.4,0.8,0.7c0.2,0.2,0.2,0.5,0.4,0.8c0.2,0.5,0.5,0.7,1.1,0.3c0.2-0.2,0.5-0.2,0.7-0.2
			c1.4,0,2-0.7,1.9-2.1c-0.5,0.2-1,0.4-1.5,0.6c-0.3,0.1-0.8-0.1-0.8-0.3c-0.1-0.3,0-0.8,0.1-1.1c0.1-0.1,0.5-0.1,0.8-0.1
			c0.4,0,0.7,0.2,1.1,0.2c0.3,0,0.7,0,1.2,0c0,0.3,0,0.6,0.1,1c0,0.9-0.1,1.9,0.1,2.8c0.1,0.6,0.7,1.2,1.1,1.8
			c0.7,1.2,1.3,2.4,2,3.7c0.7,1.3,0.6,2.6-0.1,3.9c-0.1,0.3-0.4,0.6-0.6,0.7c-1.4,0.6-1.6,1.9-1.8,3.1c-0.1,0.6-0.3,0.8-0.9,0.8
			c-2,0.2-2.6,0.8-2.5,2.8c0,1.5,0.3,3.1,0.5,4.6c0,0.2,0,0.6-0.2,0.7c-1.6,0.9-1.9,2.5-2.1,4.1c-0.1,0.9-0.2,1.9,0.7,2.6
			c0.1,0.1,0.1,0.5,0,0.7c-0.5,0.7-1.2,1.2-1.6,2c-0.7,1.4-2.1,1.7-3.3,2.6c-0.6-1.7,0.5-2.9,1.2-4.3c-1.4-0.2-1.4-0.2-2,0.9
			c-0.2,0.5-0.5,1-0.7,1.3c-0.7,0-1.5-0.3-2.2,0c-0.7,0.3-0.9,1.1-1,1.9c-0.1,0.6-0.1,1.4-0.9,1.6c-0.2,0-0.6-0.2-0.6-0.4
			c-0.1-0.6-0.2-1.2-0.2-2c-0.5,0.1-1.1,0.1-1.4,0.4c-0.7,0.5-1.3,1.2-1.8,1.8c-0.3,0.4-0.5,0.6-1,0.5c-0.8-0.1-1.7-0.3-2.5-0.2
			c-1.4,0.1-2.5-0.4-3.8-0.9c-0.2-0.1-0.5,0-0.9,0.1c-0.1-0.4-0.3-0.9-0.4-1.5c-1.2,0.4-1.2,1.6-1.8,2.2c0.4,1,2.1,0.8,1.8,2.3
			c-1.3-0.2-3,0.6-3.6,1.7c-0.4,0.6-0.8,1.2-1.2,1.8c-0.9,1.5-2.3,1.3-3.4,0.1c-0.2-0.2-0.4-0.4-0.6-0.6c-1-0.5-1.4-2.2-0.7-3.1
			c0.5-0.6,0.9-1.3,1.3-2c-0.2-0.1-0.2-0.2-0.2-0.2c-1.9,0.5-3.6-0.6-5.4-0.4c-0.5,0-1,0.2-1.4,0.5c-0.6,0.3-1.2,0.7-1.8,1
			c-0.1,0.1-0.4,0.2-0.5,0.1c-1.5-0.6-2.8,0.5-4.3,0.7c-0.9,0.1-1.8,0.5-2.8,0.7c-0.3,0.1-0.7,0-0.9-0.2c-0.6-0.4-1-0.3-1.3,0.3
			c-0.1,0.2-0.2,0.4-0.3,0.5c-0.8,1.6-0.5,1.5-2.1,1c-1.2-0.3-2.2,0-3.3-0.1c-0.7,0-1.4-0.1-2.1-0.4c-0.2-0.1-0.3-0.7-0.3-1
			c0-0.2,0.2-0.7,0.4-0.7c1.8-0.1,3-1.2,4.5-2c1.9-1.1,3.5-2.5,5.1-3.9c0.8-0.7,1.8-1.1,2.9-1c2.9,0.3,5.7,0.3,8.6-0.4
			c1.2-0.3,2.5-0.4,3.8-0.6c-0.1,1,0.4,1.1,1,1.1c0.1,0,0.3,0,0.4,0.1c1.4,0.6,2.3-0.5,3.3-1.1c0.3-0.2,0.4-1,0.3-1.4
			c-0.1-1.1,0.4-1.9,1.3-2.5c1-0.7,2-1.4,2.4-2.6c0.2-0.5,0.3-0.9,0.4-1.4c0.1-1.3,1.2-2.4,2.5-2.4c0.2,0,0.4,0.1,0.5,0.2
			c0,0.1-0.1,0.4-0.2,0.5c-0.1,0.1-0.3,0.1-0.4,0.2c-1.1,0.6-1.3,0.9-1,2.1c0.1,0.4,0.3,1.2,0.4,1.2c0.7,0,1.4-0.2,2.1-0.4
			c1-0.4,1.8-1,2.8-1.3c2-0.5,3.4-1.7,4.7-3.2c0.9-1.1,1.8-2,3.2-2.4c0.5-0.1,0.9-0.8,1.2-1.3c0.3-0.6,0.4-1.4,0.8-1.9
			c1.2-1.7,2.2-3.4,2.7-5.4C81.9,44.9,81.7,44.6,80,43.8z"/>
		<path class="st1" d="M80,43.8c0.6-0.4,1-0.9,1.2-1.6c0.2-0.7,0.1-1.3,0.1-2c0-0.3,0.1-0.7,0.3-0.9c0.1-0.1,0.3-0.2,0.5-0.2
			c0.1,0,0.2,0,0.3,0c0.1,0,0.1-0.1,0.2-0.1c0.2-0.3,0.3-0.6,0.3-0.9c0-0.2,0-0.3,0.1-0.5c0.1-0.1,0.2-0.3,0.3-0.4
			c0.1-0.1,0.3-0.2,0.4-0.3c0.1,0,0.2-0.1,0.3,0c0.1,0,0.2,0.1,0.2,0.1c0.2,0.3,0.5,0.5,0.6,0.8c0.1,0.3,0.2,0.6,0.4,0.9
			c0.2,0.2,0.5,0.1,0.7-0.2c0.3-0.2,0.7-0.2,1-0.2c0.3,0,0.6-0.1,0.9-0.3c0.5-0.4,0.6-1.1,0.5-1.7l0.2,0.1c-0.5,0.2-1,0.5-1.6,0.6
			c-0.2,0-0.3,0-0.5-0.1c-0.1-0.1-0.3,0-0.5-0.3c-0.1-0.3-0.1-0.6,0-0.9c0-0.1,0-0.1,0.1-0.2c0,0,0.2-0.2,0.3-0.2c0.2,0,0.3,0,0.5,0
			c0.3,0,0.6,0.1,0.9,0.1c0.1,0,0.3,0.1,0.4,0.1c0.1,0,0.3,0,0.4,0l0.8,0l0.2,0l0,0.2c0.1,0.9,0.1,1.9,0.1,2.8
			c0,0.4,0.1,0.9,0.3,1.3c0.2,0.4,0.5,0.7,0.8,1.1c0.5,0.8,0.9,1.6,1.4,2.5l0.7,1.2c0.2,0.4,0.5,0.9,0.6,1.4c0.2,1-0.1,2-0.5,2.9
			c-0.1,0.2-0.3,0.5-0.5,0.7c-0.3,0.2-0.5,0.3-0.6,0.4c-0.3,0.2-0.6,0.6-0.8,0.9c-0.2,0.4-0.3,0.8-0.4,1.3c0,0.2-0.1,0.4-0.1,0.7
			c0,0.1-0.1,0.3-0.2,0.4c-0.1,0.2-0.3,0.3-0.4,0.3c-0.6,0.2-1,0.1-1.4,0.3c-0.4,0.1-0.8,0.3-1,0.6c-0.4,0.6-0.3,1.6-0.3,2.5
			c0.1,0.9,0.2,1.8,0.3,2.8l0.1,0.7l0,0.4c0,0.2,0,0.3,0,0.5c0,0.1,0,0.2-0.1,0.2c0,0-0.1,0.1-0.1,0.1c0,0-0.1,0.1-0.1,0.1l0,0
			c-0.1,0.1-0.2,0.1-0.3,0.2c-0.2,0.1-0.3,0.3-0.5,0.4c-0.6,0.6-0.8,1.5-1,2.4c-0.1,0.9-0.3,1.9,0,2.6c0.1,0.2,0.2,0.3,0.3,0.5
			c0,0,0.1,0.1,0.1,0.1l0.1,0.1c0,0,0.1,0.1,0.1,0.1c0,0,0,0.1,0,0.1c0,0.2,0,0.4,0,0.5c0,0.1,0,0.2-0.1,0.3c0,0,0,0.1-0.1,0.2
			L86,69.1l-0.2,0.3l-0.5,0.5c-0.3,0.3-0.6,0.6-0.8,1c-0.1,0.2-0.3,0.5-0.4,0.7c-0.2,0.2-0.4,0.4-0.6,0.6c-0.8,0.7-1.7,1-2.4,1.5
			L80.6,74l-0.2-0.5c-0.1-0.4-0.2-0.9-0.2-1.3c0-0.4,0.1-0.9,0.3-1.2c0.3-0.8,0.8-1.4,1.1-2l0.3,0.6c-0.3,0-0.7-0.1-0.9-0.1
			c-0.1,0-0.1,0-0.2,0.1c0,0-0.1,0.2-0.2,0.3l-0.4,0.9l-0.5,0.9l-0.1,0.3l-0.3,0c-0.8,0-1.6-0.3-2.1,0c-0.2,0.1-0.3,0.3-0.4,0.6
			c-0.1,0.3-0.1,0.7-0.2,1c0,0.4-0.1,0.9-0.5,1.3c-0.2,0.2-0.5,0.4-0.7,0.4c-0.1,0-0.4,0-0.5,0c-0.1-0.1-0.3-0.1-0.4-0.2
			c-0.1-0.1-0.3-0.2-0.3-0.5l-0.1-0.3c0-0.2-0.1-0.4-0.1-0.6L74,72.4l0.6,0.4c-0.3,0.1-0.6,0.1-0.8,0.2c-0.3,0.1-0.4,0.1-0.5,0.2
			c-0.4,0.3-0.7,0.7-1.1,1c-0.2,0.2-0.3,0.4-0.5,0.6c-0.2,0.2-0.3,0.5-0.7,0.7c-0.4,0.2-0.8,0.1-1,0.1l-0.8-0.1
			c-0.3,0-0.5,0-0.7-0.1c-0.3,0-0.5,0-0.7,0c-0.3,0-0.6,0-0.9,0c-0.3,0-0.6-0.1-0.8-0.1c-0.5-0.1-1.1-0.3-1.6-0.5l-0.6-0.3
			c0,0-0.4,0.1-0.7,0.1l-0.4,0l-0.1-0.4l-0.4-1.5l0.6,0.3c-0.4,0.1-0.6,0.3-0.8,0.7c-0.2,0.4-0.4,0.9-0.8,1.4l0.1-0.5
			c0.1,0.1,0.2,0.2,0.3,0.4c0.2,0.1,0.4,0.2,0.7,0.4c0.2,0.1,0.6,0.4,0.7,0.7c0.2,0.4,0.2,0.8,0.1,1.1L63,77.6l-0.5-0.1
			c-0.6-0.1-1.2,0.1-1.8,0.3c-0.3,0.1-0.6,0.3-0.8,0.5c-0.2,0.2-0.4,0.4-0.6,0.7l-1.2,1.8c-0.1,0.1-0.2,0.3-0.4,0.5
			c-0.2,0.2-0.3,0.3-0.5,0.4c-0.4,0.2-0.9,0.3-1.4,0.2c-0.5-0.1-0.9-0.3-1.2-0.5c-0.3-0.2-0.6-0.6-0.8-0.8c-0.1-0.1-0.2-0.2-0.3-0.3
			c-0.1-0.1-0.1-0.1-0.2-0.2c-0.1-0.1-0.2-0.2-0.3-0.2c-0.3-0.3-0.5-0.7-0.6-1.1c-0.1-0.4-0.1-0.9-0.1-1.3c0-0.2,0.1-0.4,0.2-0.6
			c0-0.1,0.1-0.2,0.2-0.3l0.2-0.2l1.2-1.8l0.1,0.6l-0.2-0.2l0,0l0,0c0,0,0,0,0.1,0.1c0,0,0.3,0,0.2,0l-0.1,0c-0.1,0-0.3,0.1-0.5,0.1
			c-0.4,0-0.7,0-1,0c-0.7,0-1.3-0.2-1.8-0.3c-0.6-0.1-1.1-0.2-1.7-0.2c-0.5,0-1,0.1-1.5,0.4L46.1,76l-0.4,0.2
			c-0.1,0-0.2,0.1-0.3,0.1c-0.1,0-0.1,0-0.2,0c-0.1,0-0.2,0-0.2,0c-0.3-0.1-0.5-0.1-0.7-0.1c-1,0-2.1,0.7-3.4,0.8
			c-0.5,0.1-1.1,0.3-1.7,0.4c-0.3,0.1-0.6,0.2-0.9,0.2c-0.5,0.1-0.8,0-1.2-0.3c-0.2-0.1-0.2-0.2-0.3-0.2c-0.1,0-0.1,0-0.1,0
			c0,0-0.2,0.2-0.3,0.4l-0.4,0.8c-0.1,0.3-0.2,0.5-0.5,0.9c-0.1,0.1-0.2,0.2-0.4,0.3c-0.2,0.1-0.3,0-0.4,0c-0.2,0-0.4-0.1-0.5-0.1
			c-0.3-0.1-0.6-0.2-0.8-0.3c-0.5-0.1-1.1-0.1-1.7-0.1c-0.6,0-1.2,0.1-1.9,0c-0.3,0-0.6-0.1-0.9-0.1c-0.2,0-0.3-0.1-0.5-0.1L28,78.9
			l-0.1,0l0,0l0,0l-0.1,0c0,0-0.2-0.2-0.2-0.2c-0.2-0.3-0.2-0.4-0.2-0.6c0-0.2,0-0.3-0.1-0.5c0-0.1,0-0.2,0-0.3
			c0-0.1,0.1-0.2,0.1-0.3c0-0.1,0.1-0.2,0.2-0.3c0.1-0.1,0.1-0.2,0.4-0.3c0.5-0.1,0.6-0.1,0.9-0.1c0.3-0.1,0.5-0.2,0.8-0.3
			c1-0.4,2-1.2,3.1-1.8c1-0.6,2-1.3,2.9-2.1c0.5-0.4,0.9-0.8,1.4-1.2c0.4-0.4,0.9-0.9,1.5-1.1c0.6-0.3,1.3-0.4,2-0.4
			c0.6,0.1,1.2,0.1,1.8,0.2c1.2,0.1,2.4,0.1,3.6,0c1.2-0.1,2.3-0.3,3.5-0.6c1.2-0.3,2.4-0.4,3.6-0.5l0.5-0.1l0,0.5
			c0,0.5,0,0.6,0.6,0.7c0.1,0,0.3,0,0.5,0c0.2,0.1,0.3,0.1,0.4,0.1c0.2,0.1,0.4,0.1,0.7,0c0.5-0.1,0.9-0.3,1.4-0.6
			c0.2-0.2,0.5-0.3,0.7-0.5c0.1,0,0.2-0.2,0.2-0.5c0-0.3,0-0.5,0-0.8c0-0.3,0-0.6,0.1-0.9c0.1-0.6,0.6-1.2,1-1.5
			c0.9-0.7,1.9-1.3,2.4-2.2c0.2-0.4,0.4-1,0.5-1.5c0.1-0.2,0-0.5,0.1-0.8c0.1-0.3,0.2-0.6,0.3-0.9c0.3-0.5,0.8-1,1.4-1.2
			c0.3-0.1,0.6-0.2,0.9-0.2c0.1,0,0.2,0,0.3,0c0.1,0,0.2,0.1,0.3,0.1c0.1,0.1,0.2,0.1,0.3,0.3c0,0.2,0,0.3-0.1,0.4
			c0,0.1-0.1,0.2-0.1,0.2c-0.1,0.1-0.1,0.1-0.2,0.2c-0.2,0.1-0.3,0.1-0.4,0.2c-0.2,0.1-0.5,0.3-0.7,0.4c-0.4,0.3-0.3,0.8-0.2,1.3
			c0.1,0.3,0.1,0.5,0.2,0.8c0,0.1,0.1,0.3,0.1,0.3c0,0,0,0-0.1-0.1c-0.1,0,0,0,0,0l0.1,0l0.2,0c0.5,0,1.1-0.1,1.6-0.3
			c1-0.3,1.9-1.1,3.1-1.3c1.1-0.3,2-0.8,2.9-1.5c0.9-0.7,1.6-1.5,2.3-2.4c0.4-0.4,0.8-0.8,1.3-1.1c0.2-0.1,0.5-0.3,0.8-0.4
			c0.1-0.1,0.3-0.1,0.4-0.1c0.1,0,0.2-0.1,0.3-0.2c0.4-0.3,0.7-0.8,0.9-1.3c0.2-0.5,0.3-1.1,0.6-1.6c0.6-0.9,1.3-1.8,1.8-2.8
			c0.5-1,0.9-2,1.2-3.1c0.1-0.5,0.2-1.1-0.1-1.6C81,44.2,80.5,44,80,43.8z M80,43.8c0.5,0.2,1,0.4,1.4,0.9c0.4,0.4,0.3,1.1,0.2,1.6
			c-0.2,1.1-0.6,2.2-1.1,3.2c-0.5,1-1.1,2-1.7,2.9c-0.3,0.5-0.3,1-0.6,1.6c-0.3,0.5-0.5,1-1,1.4c-0.1,0.1-0.3,0.2-0.4,0.2
			c-0.1,0-0.3,0.1-0.4,0.1c-0.3,0.1-0.5,0.2-0.7,0.4c-0.5,0.3-0.9,0.6-1.3,1c-0.7,0.8-1.4,1.7-2.3,2.4c-0.9,0.7-1.9,1.3-3,1.6
			c-1.1,0.2-1.9,1-3,1.4c-0.5,0.2-1.1,0.3-1.7,0.4l-0.2,0l-0.1,0c0,0,0,0-0.1,0c-0.2,0-0.2-0.1-0.2-0.1c-0.1-0.2-0.1-0.3-0.2-0.5
			c-0.1-0.3-0.2-0.5-0.2-0.8c-0.1-0.3-0.1-0.6-0.1-0.9c0-0.3,0.2-0.7,0.4-0.9c0.2-0.2,0.5-0.4,0.8-0.5c0.1-0.1,0.3-0.1,0.4-0.2
			c0,0,0,0,0.1-0.1c0,0,0.1-0.1,0.1-0.1c0,0,0-0.1,0,0c0,0.1,0,0,0,0c0,0-0.1,0-0.1-0.1c0,0,0,0-0.1,0c-0.2,0-0.5,0.1-0.7,0.1
			c-0.5,0.2-0.9,0.5-1.1,1c-0.1,0.2-0.2,0.5-0.3,0.7c-0.1,0.2,0,0.5-0.1,0.8c-0.1,0.6-0.3,1.1-0.6,1.7c-0.6,1.1-1.7,1.7-2.5,2.4
			c-0.4,0.3-0.7,0.7-0.8,1.2c-0.1,0.2-0.1,0.5,0,0.7c0,0.3,0,0.6,0,0.9c0,0.2,0,0.3-0.1,0.5c0,0.1-0.1,0.2-0.1,0.3
			c0,0.1-0.1,0.1-0.1,0.1L58,69.1l0,0c-0.2,0.1-0.4,0.3-0.7,0.5c-0.5,0.3-1,0.7-1.6,0.8c-0.3,0-0.6,0-1-0.1
			c-0.3-0.1-0.4-0.2-0.7-0.1c-0.3,0-0.7,0-1-0.4c-0.3-0.4-0.3-0.8-0.2-1.1l0.4,0.4c-1.2,0.2-2.4,0.3-3.5,0.6
			c-1.2,0.3-2.4,0.5-3.6,0.6c-1.2,0.1-2.4,0.1-3.7,0c-0.6,0-1.2-0.1-1.8-0.1c-0.5,0-1.1,0.1-1.5,0.3c-0.5,0.2-0.9,0.6-1.3,1
			c-0.5,0.4-0.9,0.8-1.4,1.2c-0.9,0.8-1.9,1.5-3,2.2c-1,0.6-2,1.3-3.2,1.8c-0.3,0.1-0.6,0.2-0.9,0.3c-0.3,0.1-0.7,0.1-0.9,0.1
			c0.2-0.1,0.1,0,0.1,0c0,0,0,0.1-0.1,0.1c0,0,0,0.1,0,0.1c0,0,0,0,0,0.1c0,0.2,0.1,0.6,0.1,0.6c-0.2-0.1,0.1,0,0.2,0
			c0.1,0,0.3,0.1,0.4,0.1c0.3,0.1,0.6,0.1,0.8,0.1c0.6,0.1,1.1,0,1.7,0c0.6,0,1.3-0.1,1.9,0.1c0.3,0.1,0.6,0.2,0.9,0.3
			c0.1,0,0.3,0.1,0.4,0.1c0.1,0,0,0,0,0c0.1-0.1,0.2-0.4,0.3-0.7l0.4-0.8c0.1-0.3,0.3-0.7,0.8-0.9c0.6-0.2,1,0.2,1.2,0.3
			c0.1,0.1,0.4,0.2,0.5,0.1c0.2,0,0.5-0.1,0.8-0.2c0.6-0.2,1.2-0.4,1.8-0.5c1.1-0.1,2.1-0.8,3.6-0.8c0.3,0,0.8,0.1,1,0.2
			c-0.2,0.1,0.2-0.1,0.5-0.3l1.6-0.9c0.3-0.1,0.6-0.3,0.9-0.3c0.3-0.1,0.7-0.1,1-0.1c0.7,0,1.3,0.1,1.9,0.3c0.6,0.1,1.2,0.3,1.7,0.3
			c0.3,0,0.6,0,0.8,0c0.1,0,0.3,0,0.4-0.1l0.1,0c-0.1,0,0.2,0,0.3,0c0.1,0,0.1,0.1,0.1,0.1c0.1,0,0.1,0,0.1,0.1l0.1,0.1l0.1,0.1
			l0.3,0.3l-0.2,0.4L53.7,77c-0.1,0.2-0.2,0.3-0.2,0.4c-0.1,0.1-0.1,0.2-0.1,0.4c0,0.3,0,0.6,0.1,0.8c0.1,0.3,0.2,0.5,0.4,0.7
			c0,0.1,0.1,0.1,0.1,0.1c0,0,0.1,0.1,0.2,0.1c0.2,0.1,0.4,0.3,0.5,0.4c0.3,0.3,0.5,0.5,0.7,0.7c0.2,0.2,0.5,0.3,0.8,0.4
			c0.3,0,0.5,0,0.7-0.1c0.1-0.1,0.2-0.1,0.3-0.2c0.1-0.1,0.2-0.2,0.3-0.4l1.2-1.8c0.2-0.3,0.5-0.7,0.8-0.9c0.3-0.3,0.6-0.5,1-0.6
			c0.7-0.3,1.5-0.5,2.4-0.4l-0.5,0.4c0-0.2,0-0.4,0-0.5c0-0.1-0.2-0.2-0.4-0.3c-0.2-0.1-0.4-0.2-0.7-0.4c-0.3-0.2-0.5-0.4-0.7-0.8
			l-0.1-0.3l0.2-0.2c0.2-0.2,0.4-0.7,0.7-1.1c0.1-0.2,0.3-0.5,0.5-0.7c0.2-0.2,0.5-0.4,0.8-0.5L63,72l0.1,0.5l0.4,1.5L63,73.6
			c0.2,0,0.4-0.1,0.9-0.1c0.3,0.1,0.3,0.1,0.5,0.2l0.4,0.1c0.5,0.2,0.9,0.4,1.4,0.5c0.2,0.1,0.5,0.1,0.7,0.1c0.3,0,0.4,0,0.7,0
			c0.2,0,0.6,0,0.8,0c0.3,0,0.6,0,0.8,0.1l0.8,0.1c0.3,0.1,0.4,0.1,0.5,0c0.1,0,0.2-0.2,0.4-0.4c0.2-0.2,0.3-0.4,0.5-0.6
			c0.4-0.4,0.8-0.8,1.2-1.1c0.1-0.1,0.3-0.2,0.4-0.3c0.2-0.1,0.3-0.1,0.5-0.1c0.3-0.1,0.5-0.1,0.7-0.1l0.5-0.1l0.1,0.5l0.1,1.1
			c0,0.2,0,0.4,0.1,0.5l0.1,0.3c0-0.1,0-0.1,0,0c0,0,0.1,0.1,0.1,0.1c0.1,0-0.1,0,0,0c0.1,0,0.2-0.1,0.3-0.1
			c0.1-0.1,0.2-0.4,0.2-0.8c0-0.4,0.1-0.8,0.2-1.2c0.1-0.4,0.4-0.9,0.9-1.2c0.2-0.1,0.5-0.1,0.7-0.2c0.2,0,0.4,0,0.6,0
			c0.4,0,0.8,0.1,1.1,0.1l-0.4,0.2l0.5-0.9l0.4-0.9c0.1-0.2,0.2-0.3,0.4-0.5c0.1-0.1,0.2-0.2,0.4-0.2c0.1,0,0.3-0.1,0.4-0.1
			c0.4,0,0.7,0.1,1.1,0.1l0.6,0.1l-0.3,0.5c-0.4,0.7-0.8,1.4-1.1,2c-0.3,0.6-0.3,1.3-0.1,1.9L80.5,73c0.8-0.6,1.7-0.9,2.4-1.5
			c0.2-0.1,0.3-0.3,0.4-0.4c0.1-0.2,0.2-0.3,0.3-0.5c0.2-0.5,0.6-0.9,0.9-1.2l0.5-0.5l0.2-0.3l0.1-0.1c0,0,0,0,0,0c0,0,0,0,0-0.1
			c0-0.1,0-0.2,0-0.2c0.1,0.2-0.1,0-0.1-0.1c-0.2-0.2-0.3-0.4-0.5-0.7c-0.2-0.5-0.2-1.1-0.2-1.6c0-0.5,0.1-0.9,0.2-1.4
			c0.2-0.9,0.5-2,1.2-2.7c0.2-0.2,0.4-0.4,0.6-0.5c0.1-0.1,0.2-0.1,0.3-0.2c0,0,0.1,0,0,0l0,0c0,0,0,0,0,0c0,0,0,0,0-0.1
			c0-0.1,0-0.2,0-0.2l0-0.3l-0.1-0.7c-0.1-0.9-0.2-1.9-0.3-2.8c0-0.5-0.1-1,0-1.5c0-0.5,0.1-1,0.5-1.5c0.7-1,2-0.9,2.7-1.1
			c0.2,0,0.3-0.5,0.3-1c0.1-0.5,0.2-1,0.4-1.4c0.2-0.5,0.6-0.9,1-1.2c0.2-0.2,0.5-0.2,0.6-0.3c0.1-0.1,0.3-0.3,0.4-0.5
			c0.4-0.8,0.6-1.7,0.5-2.6c-0.1-0.4-0.3-0.8-0.5-1.2l-0.7-1.2c-0.5-0.8-0.9-1.7-1.4-2.5c-0.2-0.4-0.6-0.7-0.8-1.2
			c-0.2-0.5-0.3-1-0.3-1.5c0-1,0-1.9-0.1-2.8l0.2,0.2l-0.8,0c-0.1,0-0.3,0-0.4,0c-0.1,0-0.3-0.1-0.4-0.1c-0.3-0.1-0.5-0.1-0.8-0.1
			c-0.1,0-0.3,0-0.4,0c-0.1,0,0,0,0,0c0,0.1,0,0.1-0.1,0.2c-0.1,0.2-0.1,0.5,0,0.7c0,0,0.1,0.1,0.2,0.1c0.1,0,0.3,0.1,0.3,0
			c0.5-0.1,1-0.3,1.5-0.5l0.2-0.1l0,0.2c0,0.3,0,0.7-0.1,1c-0.1,0.3-0.3,0.7-0.6,0.9c-0.3,0.2-0.7,0.3-1,0.3c-0.3,0-0.7,0-0.9,0.2
			c-0.1,0.1-0.3,0.2-0.4,0.3c-0.2,0.1-0.4,0-0.6-0.1c-0.3-0.3-0.3-0.6-0.5-0.9c-0.1-0.3-0.4-0.5-0.6-0.8c-0.2-0.3-0.5,0-0.8,0.2
			c-0.2,0.2-0.4,0.5-0.4,0.8c0,0.3-0.2,0.7-0.4,1c-0.1,0.1-0.1,0.1-0.2,0.2c-0.1,0-0.2,0-0.2,0c-0.2,0-0.3,0.1-0.4,0.2
			c-0.2,0.2-0.3,0.6-0.3,0.9c0,0.7,0.1,1.4-0.1,2C81,42.9,80.5,43.4,80,43.8z"/>
	</g>
	<g>
		<path class="st0" d="M18.7,56.5c0.1-0.5,0.3-1,0.5-1.5c0.2-0.5,0.1-0.8-0.3-1c-0.2-0.1-0.3-0.2-0.5-0.3c-1.3-0.7-1.4-2-0.2-2.9
			c0.7-0.5,1.6-0.9,2.4-1.4c0.9-0.6,0.9-0.9,0.4-1.8c-0.2-0.4-0.1-0.7,0.4-0.7c0.4,0,0.8,0.1,1.2,0.2c0.9,0.1,1.8,0.3,2.7,0.3
			c1.1,0,1.7-0.8,1.5-1.9c-0.1-0.7,0-1.2,0.5-1.8c0.5-0.5,0.7-1.4,1-2.1c0.1-0.2,0-0.4,0.1-0.6c0.3-1.7,0.2-3.6-0.3-5.2
			c-0.2-0.6,0.3-1.3,1.3-1.6c0.3-0.1,0.8,0.1,1.1,0.4c2,1.9,3.9,3.9,6.3,5.3c1.8,1,3.8,1.8,5.9,2.2c0.6,0.1,1.1,0.5,1.6,0.7
			c1.4,0.6,2.7,0.1,3.9-0.8c0.5-0.4,1-0.7,1.5-1c0.1,0.1,0.2,0.2,0.3,0.3c-0.4,0.6-0.8,1.2-1.2,1.9c-0.4,0.6-0.2,1.3,0.3,1.7
			c0.4,0.3,0.7,0.8,1,1.1c-0.1,0.1-0.1,0.2-0.2,0.3c0.8,0,1.6-0.1,2.4-0.1c0,0,0.1,0.1,0.1,0.1c-0.3,0.2-0.5,0.4-0.8,0.5
			c-0.8,0.4-1.6,0.8-2.4,1.1c-0.6,0.2-1.2,0.2-1.8,0.2c-0.1,0-0.3,0-0.4,0c-0.5,0.7-1.1,0.4-1.7,0.4c-0.6,0-1.2,0-1.8,0
			c-2.5,0.1-4.5,2.7-5,4.4c-0.4,1.3-0.6,1.4-1.8,0.8c-2.3-1-4.7-2-7-2.8c-1.2-0.4-2.4-0.3-3.5,0.4c-0.9,0.6-1.8,0.5-2.7-0.2
			c-0.9-0.7-2.5-0.2-3,0.8c-0.2,0.4,0.3,1,1,1.4c1.1,0.5,2.2,1,3.3,1.5c0.1,0.1,0.3,0.2,0.6,0.5c-0.6,0.1-0.9,0.2-1.3,0.2
			c-1.2,0-2.2,0.1-3,1.1"/>
		<path class="st1" d="M18.7,56.5l0.5-1.6c0.1-0.3,0.1-0.6-0.2-0.7c-0.2-0.1-0.5-0.3-0.8-0.4c-0.5-0.3-1-0.8-1-1.4
			c0-0.6,0.4-1.2,0.9-1.5c0.9-0.7,2.1-1.1,2.8-1.9c0.2-0.2,0.2-0.4,0.1-0.6c-0.1-0.3-0.3-0.4-0.4-0.8c-0.1-0.2,0-0.5,0.3-0.6
			c0.2-0.1,0.4-0.1,0.5-0.1c0.3,0,0.6,0.1,0.9,0.1c1.1,0.1,2.3,0.4,3.3,0.2c0.5-0.1,0.8-0.5,0.8-1c0-0.2-0.1-0.5-0.1-0.8
			c0-0.3,0-0.7,0.2-1c0.1-0.3,0.4-0.6,0.6-0.7c0.1-0.2,0.3-0.4,0.4-0.7c0.1-0.3,0.2-0.5,0.3-0.8l0.2-0.4c0-0.1,0-0.1,0-0.3
			c0.1-1.2,0.2-2.3,0.1-3.4c-0.1-0.6-0.1-1.1-0.3-1.7c-0.1-0.2-0.2-0.7,0-1.1c0.1-0.4,0.4-0.6,0.7-0.8c0.3-0.2,0.5-0.3,0.9-0.4
			c0.3,0,0.5,0,0.7,0.1c0.2,0.1,0.3,0.1,0.5,0.2c0.3,0.2,0.5,0.4,0.7,0.6l0.6,0.6c1.7,1.6,3.3,3.2,5.3,4.3c1,0.5,2,1,3.1,1.4
			c0.5,0.2,1.1,0.3,1.6,0.5c0.3,0.1,0.5,0.1,0.8,0.2c0.1,0,0.3,0.1,0.5,0.1c0.2,0.1,0.3,0.1,0.4,0.2c1,0.6,1.9,0.8,2.9,0.4
			c0.5-0.2,0.9-0.4,1.4-0.8l1.4-1l0.4-0.2l0.3,0.3l0.3,0.3l0.3,0.3l-0.2,0.3l-0.8,1.2l-0.4,0.6l-0.1,0.1c0,0,0,0,0,0.1
			c0,0.1,0,0.1,0,0.2c0,0.1,0,0.3,0.1,0.4c0.1,0.2,0.1,0.2,0.3,0.4c0.4,0.4,0.7,0.8,1,1.1l0.2,0.3l-0.2,0.3l-0.2,0.3L50,46l2.4-0.1
			l0.3,0l0.1,0.2l0.1,0.1l0.2,0.4l-0.4,0.3c-0.8,0.6-1.6,0.9-2.5,1.3c-0.4,0.2-0.8,0.4-1.4,0.5c-0.5,0.1-1,0.1-1.4,0.1
			c-0.2,0-0.3,0-0.3,0c0,0,0,0,0.2-0.1l0,0c0,0,0,0,0,0l0,0l0,0c0,0-0.1,0.1-0.2,0.2c-0.2,0.2-0.6,0.4-0.9,0.4c-0.3,0-0.5,0-0.8,0
			c-0.1,0-0.2,0-0.3,0l-0.3,0c-0.9,0-1.8-0.1-2.5,0.2c-0.8,0.3-1.5,0.8-2,1.4c-0.6,0.6-1.1,1.3-1.4,2.1c-0.2,0.4-0.2,0.8-0.5,1.3
			c-0.1,0.1-0.2,0.3-0.4,0.4c-0.2,0.1-0.4,0.1-0.6,0.1c-0.3,0-0.5-0.1-0.8-0.2l-2.5-1l-5-2c-0.8-0.3-1.6-0.3-2.4,0
			c-0.4,0.1-0.7,0.4-1.2,0.6c-0.5,0.2-1,0.2-1.5,0.1c-0.2-0.1-0.5-0.2-0.7-0.3c-0.2-0.1-0.4-0.3-0.5-0.4c-0.3-0.2-0.7-0.2-1.1-0.1
			c-0.4,0.1-0.8,0.3-1.1,0.6c-0.1,0.1-0.3,0.3-0.3,0.4c0,0.1,0.1,0.3,0.2,0.5c0.3,0.3,0.6,0.5,1,0.7l1.2,0.6l1.2,0.6
			c0.2,0.1,0.4,0.2,0.6,0.3l0.5,0.5l0.2,0.1l-0.2,0c-0.4,0.1-0.8,0.2-1.2,0.2c-0.4,0-0.8,0-1.2,0c-0.8,0.1-1.5,0.4-2,1
			c0.5-0.6,1.2-1.1,2-1.1c0.4-0.1,0.8,0,1.2-0.1c0.4,0,0.8-0.2,1.1-0.2l0,0.2l-0.5-0.4c-0.1-0.1-0.4-0.2-0.6-0.3l-1.2-0.6l-1.2-0.6
			c-0.4-0.2-0.9-0.4-1.2-0.8c-0.2-0.2-0.3-0.4-0.3-0.7c0-0.3,0.2-0.5,0.4-0.7c0.3-0.4,0.8-0.6,1.3-0.7c0.5-0.1,1-0.1,1.5,0.1
			c0.2,0.1,0.4,0.3,0.6,0.4c0.2,0.1,0.4,0.2,0.5,0.2c0.4,0.1,0.8,0.1,1.1-0.1c0.3-0.1,0.8-0.5,1.2-0.6c0.9-0.4,1.9-0.4,2.8-0.1l5,2
			l2.5,1c0.2,0.1,0.4,0.1,0.5,0.2c0.1,0,0.1,0,0.2-0.1c0.2-0.3,0.2-0.7,0.4-1.2c0.3-0.9,0.9-1.7,1.5-2.4c0.6-0.7,1.4-1.3,2.4-1.6
			c0.2-0.1,0.5-0.2,0.7-0.2c0.3,0,0.4-0.1,0.7-0.1l1.3,0l0.3,0c0.1,0,0.3,0,0.4,0c0.2,0,0.4,0,0.6,0c0.2,0,0.3-0.1,0.3-0.1
			c0,0,0,0,0.1-0.1l0,0l0,0c0,0,0,0,0,0l0.1-0.1c0.2-0.1,0.3-0.1,0.3-0.1c0.2,0,0.3,0,0.3,0c0.5-0.1,0.9-0.1,1.3-0.1
			c0.3-0.1,0.8-0.2,1.2-0.4c0.8-0.4,1.6-0.7,2.3-1.2L52,46.7l-0.1-0.1l0.4,0.2L50,46.9l-0.9,0l0.4-0.8l0.2-0.3l0.1,0.6
			c-0.3-0.4-0.6-0.8-0.9-1c-0.2-0.1-0.4-0.4-0.6-0.7c-0.1-0.3-0.2-0.6-0.2-0.9c0-0.2,0-0.3,0.1-0.5c0-0.1,0.1-0.2,0.1-0.2l0.1-0.2
			l0.4-0.6l0.8-1.2l0,0.6l-0.3-0.3l0.7,0.1l-1.4,1c-0.5,0.3-1,0.7-1.6,0.9c-0.6,0.2-1.3,0.3-1.9,0.2c-0.2,0-0.3-0.1-0.5-0.1
			c-0.1,0-0.3-0.1-0.5-0.2c-0.3-0.1-0.6-0.3-0.8-0.4c-0.3-0.1-0.4-0.2-0.7-0.3c-0.3-0.1-0.6-0.1-0.9-0.2c-0.6-0.1-1.1-0.3-1.7-0.5
			c-1.1-0.4-2.2-0.9-3.2-1.5c-2.1-1.2-3.8-2.8-5.5-4.4l-0.6-0.6c-0.2-0.2-0.4-0.4-0.6-0.5c-0.1-0.1-0.2-0.1-0.3-0.2
			c-0.1,0-0.2,0-0.2-0.1c-0.2,0-0.5,0.2-0.6,0.3c-0.2,0.1-0.4,0.3-0.4,0.5c-0.1,0.2-0.1,0.3,0,0.6c0.1,0.6,0.2,1.2,0.3,1.8
			c0.1,1.2,0,2.4-0.1,3.5c0,0.1,0,0.4-0.1,0.6l-0.2,0.4c-0.1,0.3-0.2,0.5-0.3,0.8c-0.1,0.3-0.3,0.6-0.5,0.8
			c-0.2,0.2-0.4,0.4-0.5,0.6c-0.1,0.2-0.2,0.4-0.1,0.7c0,0.2,0.1,0.6,0.1,0.9c0,0.3-0.1,0.7-0.3,1c-0.2,0.3-0.5,0.5-0.9,0.6
			c-0.7,0.2-1.2,0-1.8,0l-1.7-0.3c-0.3-0.1-0.6-0.1-0.8-0.2c-0.1,0-0.3,0-0.3,0c-0.1,0-0.1,0,0,0.1c0,0.2,0.3,0.5,0.3,0.8
			c0.1,0.3,0.1,0.7-0.2,1c-0.9,0.9-2.1,1.2-3,1.9c-0.4,0.3-0.8,0.8-0.8,1.3c0,0.5,0.4,1,0.8,1.3c0.2,0.2,0.5,0.3,0.7,0.4
			c0.1,0.1,0.2,0.2,0.3,0.4c0,0.2,0,0.3-0.1,0.4L18.7,56.5z"/>
	</g>
	<g>
		<path class="st0" d="M30,93.7c-0.9-0.2-1.6,0.1-1.7,0.8c-0.1,0.9-0.8,1-1.6,1.4c-0.1-1.2-0.2-2.3-0.2-3.4c0.1,0,0.2-0.1,0.3-0.1
			c-0.3-0.1-0.6-0.2-1.1-0.4c0,0.6,0,1.1,0,1.6c0,0.5,0.1,1,0.1,1.7c-0.7-0.3-1.2-0.4-1.7-0.6c-0.2-0.1-0.4-0.3-0.4-0.5
			c0-0.9-0.1-1.9,0-2.8c0-0.8,0.3-1.5,1.1-1.9c0.9-0.5,1.1-1.8,0.6-2.8c-0.5-1.1-0.9-2.1-1.4-3.2C23,83.9,22.9,85,24,86
			c-1.1,0.1-2.1,0.3-3.2,0.4c-0.1-0.5-0.1-1.1-0.2-1.7c0.1-0.1,0.2-0.1,0.4-0.2c0.2,0.3,0.4,0.6,0.5,0.9c0.4-1.3-0.8-1.5-1.5-2.3
			c0.4-0.3,0.9-0.7,1.3-1.1c0,0,0.1-0.1,0.1-0.1c1,0.4,1.5-0.6,2.3-0.7c0.5-0.1,0.8-0.4,1.1-0.7c0.4-0.5,1-0.9,1.6-1.1
			c0.6-0.2,1.2-0.2,1.6,0.6c0.4,0.8,1,1.4,2.1,1.1c0.2-0.1,0.5-0.1,0.7-0.1c0.4,0,0.7,0,1.1,0.1c-0.1,0.3-0.1,0.7-0.3,1
			c-0.4,0.7-0.1,1.1,0.6,1.1c0.8,0.1,1.2,0.6,1.4,1.3c0.2,0.7,0.1,1.4-0.5,1.9c-1.1,0.9-1.5,2.2-1.9,3.5
			C30.9,91.2,30.4,92.5,30,93.7z"/>
		<path class="st1" d="M30,93.7c-0.4-0.1-0.7-0.1-1.1,0.1c-0.3,0.1-0.6,0.4-0.6,0.8c0,0.4-0.2,0.8-0.6,1c-0.3,0.2-0.7,0.3-1,0.5
			l-0.2,0.1l0-0.2l-0.3-3.4l0-0.2l0.2-0.1l0.3-0.1l0,0.4l-1.1-0.4L26,92l0,0.8c0,0.3,0,0.5,0,0.8l0.2,1.6l0,0.5l-0.5-0.2L24,94.9
			c-0.2-0.1-0.3-0.2-0.5-0.4c-0.1-0.1-0.1-0.2-0.2-0.3c0-0.1,0-0.1,0-0.2l0-0.1l0-0.9l0-1.8c0-0.6,0.2-1.4,0.8-1.9
			c0.2-0.2,0.6-0.4,0.7-0.5c0.2-0.2,0.3-0.4,0.3-0.6c0.2-0.4,0.1-1-0.1-1.4l-1.4-3.2l0.6,0.2c-0.4,0.2-0.6,0.4-0.5,0.7
			c0,0.3,0.3,0.7,0.6,1.1l0.6,0.7L24,86.5L20.8,87l-0.5,0.1l-0.1-0.5l-0.2-1.7l0-0.3l0.3-0.2l0.4-0.2l0.4-0.3l0.3,0.4l0.5,0.9
			L21,85.3c0.1-0.4,0.1-0.6-0.2-0.9c-0.3-0.3-0.8-0.6-1.2-1l-0.3-0.4l0.4-0.3l1.3-1c0,0,0,0,0.1-0.1c0,0,0.1-0.1,0.4-0.1l0,0l0.1,0
			c0.1,0,0.1,0,0.1,0c0.1,0,0.2,0,0.2,0c0.2,0,0.4-0.2,0.6-0.3c0.3-0.2,0.5-0.4,1-0.4c0.3,0,0.4-0.1,0.6-0.2
			c0.2-0.2,0.4-0.4,0.6-0.6c0.2-0.2,0.5-0.4,0.8-0.6c0.3-0.2,0.6-0.3,0.9-0.4c0.3-0.1,0.8-0.1,1.2,0.1c0.4,0.2,0.6,0.5,0.8,0.9
			c0.1,0.3,0.2,0.4,0.4,0.6c0.2,0.2,0.3,0.3,0.5,0.3c0.2,0,0.4,0,0.7,0l0.4-0.1l0.2,0l0.1,0l0,0l0.1,0l0.1,0l0.9,0.1l0.4,0l-0.1,0.4
			c-0.1,0.3-0.1,0.6-0.3,0.9c-0.1,0.2-0.1,0.3-0.2,0.4c0,0.1,0,0.2,0,0.2c0,0.1,0.2,0.2,0.5,0.2c0.4,0,0.7,0.2,1,0.4
			c0.3,0.3,0.4,0.6,0.5,0.9c0.1,0.3,0.2,0.7,0.1,1c0,0.4-0.2,0.7-0.4,1c-0.2,0.3-0.5,0.4-0.7,0.6c-0.8,0.9-1.2,2.1-1.6,3.2L30,93.7z
			 M30,93.7l1-3.6c0.3-1.2,0.6-2.4,1.5-3.5c0.2-0.3,0.5-0.5,0.6-0.7c0.2-0.2,0.3-0.5,0.3-0.7c0-0.3,0-0.5-0.1-0.8
			c-0.1-0.3-0.2-0.5-0.4-0.7c-0.2-0.2-0.4-0.2-0.7-0.3c-0.3,0-0.8,0-1.1-0.5c-0.2-0.5,0.1-0.9,0.2-1.1c0.1-0.2,0.1-0.5,0.2-0.9
			l0.3,0.4l-0.9,0l-0.1,0l-0.1,0l0,0l0,0c-0.1,0,0.1,0,0.1,0l0,0l0,0l-0.2,0l-0.4,0.1c-0.2,0.1-0.7,0.1-1,0.1
			c-0.4-0.1-0.7-0.3-1-0.5c-0.2-0.2-0.4-0.6-0.6-0.8c-0.1-0.2-0.2-0.4-0.4-0.4c-0.3-0.2-0.8,0-1.2,0.3c-0.2,0.1-0.4,0.3-0.6,0.5
			c-0.2,0.2-0.4,0.4-0.6,0.6c-0.2,0.3-0.7,0.5-1,0.5c-0.2,0-0.4,0.1-0.6,0.3c-0.2,0.2-0.5,0.4-0.9,0.5c-0.2,0.1-0.4,0.1-0.6,0
			c-0.1,0-0.2,0-0.3-0.1l-0.1,0l0,0c0.3,0.1,0.3-0.1,0.4-0.1c0.1-0.1,0,0,0,0l-1.4,1.1l0.1-0.7c0.3,0.3,0.6,0.6,1.1,0.9
			c0.2,0.2,0.5,0.5,0.6,0.8c0.1,0.4,0.1,0.7,0,1l-0.3,1.1l-0.6-1l-0.6-0.9l0.7,0.2l-0.4,0.2l0.2-0.5l0.2,1.7L20.7,86l3.2-0.4
			l-0.3,0.8c-0.4-0.4-0.8-0.9-0.9-1.7c0-0.4,0.1-0.8,0.3-1.1c0.2-0.3,0.5-0.5,0.8-0.6l0.4-0.2l0.2,0.4l1.4,3.3
			c0.3,0.6,0.3,1.4,0.1,2c-0.1,0.3-0.3,0.7-0.6,0.9c-0.3,0.3-0.5,0.4-0.7,0.5c-0.4,0.3-0.5,0.8-0.6,1.3l0,1.7l0,0.9
			c0,0.2,0,0.1,0,0.2c0.1,0.1,0.1,0.1,0.2,0.2l1.6,0.6l-0.4,0.3l-0.1-1.6c0-0.3,0-0.5,0-0.8l0-0.8l0-0.4l0.3,0.1l1.1,0.4l0.6,0.2
			l-0.6,0.2l-0.3,0.1l0.2-0.2l0.1,3.4l-0.2-0.1c0.3-0.1,0.7-0.2,1-0.4c0.3-0.2,0.5-0.5,0.5-0.8c0-0.2,0.1-0.4,0.2-0.5
			c0.1-0.1,0.3-0.2,0.5-0.3C29.3,93.6,29.7,93.6,30,93.7z"/>
	</g>
	<g>
		<path class="st0" d="M36,82.3c0.8-0.9,1.6-1.8,2.3-2.8c0.5-0.7,1.2-0.7,1.9-0.5c1.5,0.5,2.5,0.1,3.5-1.1c1-1.3,2.2-1.5,3.6-0.7
			c0.3,0.2,0.8,0.2,1.1,0.4c0.2,0.1,0.4,0.3,0.6,0.4c0.1,0.1,0.1,0.4,0.2,0.6c0.4,1.3,0.4,1.3-0.7,2.1c-0.4,0.3-0.6,0.8-0.9,1.2
			c-0.3,0.6-0.6,0.8-1.3,0.4c-2-1.1-4-0.6-5.2,1.2c-0.5,0.7-0.8,1.5-1.3,2.1c-0.1,0.2-0.6,0.3-0.9,0.3c-1.1-0.3-1.7-1.2-1.9-2.2
			C36.9,82.9,36.4,82.5,36,82.3z"/>
		<path class="st1" d="M36,82.3c0,0,0.3-0.5,0.9-1.3c0.3-0.4,0.7-0.9,1.1-1.4c0.2-0.3,0.4-0.7,0.9-0.8c0.4-0.2,0.9-0.1,1.4,0
			c0.8,0.2,1.7,0.3,2.4-0.3c0.4-0.3,0.6-0.6,0.9-1c0.4-0.4,0.8-0.8,1.4-1.1c0.6-0.2,1.3-0.2,1.9,0.1c0.3,0.1,0.6,0.3,0.8,0.3
			c0.2,0.1,0.5,0.1,0.8,0.3c0.3,0.1,0.7,0.3,0.9,0.6l0.1,0.1c0.1,0.1,0.1,0.1,0.1,0.2c0,0.1,0.1,0.2,0.1,0.3c0,0.2,0.1,0.2,0.1,0.4
			c0.1,0.3,0.2,0.5,0.2,1c0,0.2-0.1,0.5-0.2,0.7c-0.1,0.2-0.3,0.3-0.4,0.4l-0.6,0.5c-0.2,0.1-0.3,0.4-0.4,0.6
			c-0.2,0.2-0.2,0.4-0.5,0.8c-0.1,0.1-0.3,0.3-0.5,0.4c-0.3,0.1-0.5,0.1-0.7,0c-0.4-0.1-0.6-0.3-0.8-0.4c-0.2-0.1-0.4-0.2-0.7-0.3
			c-0.5-0.1-0.9-0.2-1.4-0.1c-0.9,0.2-1.7,0.8-2.2,1.5c-0.3,0.4-0.5,0.8-0.7,1.2c-0.1,0.2-0.2,0.4-0.4,0.6l-0.2,0.3
			c0,0.1-0.2,0.3-0.3,0.3c-0.3,0.1-0.5,0.2-0.8,0.1c-0.2,0-0.2-0.1-0.3-0.1c-0.1,0-0.2-0.1-0.3-0.2c-0.4-0.2-0.7-0.5-0.9-0.8
			c-0.5-0.6-0.5-1.3-0.6-1.7c-0.1-0.5-0.4-0.8-0.6-0.9C36.1,82.4,36,82.3,36,82.3z M36,82.3c0,0,0.1,0,0.4,0.2
			c0.2,0.1,0.5,0.4,0.7,0.9c0.2,0.5,0.3,1.1,0.7,1.6c0.2,0.2,0.5,0.5,0.8,0.6c0.1,0,0.2,0.1,0.2,0.1c0.1,0,0.2,0.1,0.2,0.1
			c0.1,0,0.3,0,0.4-0.1c0.1-0.1,0,0,0.1-0.1l0.2-0.3c0.1-0.2,0.2-0.4,0.3-0.6c0.2-0.4,0.4-0.8,0.7-1.3c0.6-0.9,1.5-1.7,2.7-2
			c0.6-0.1,1.2-0.1,1.8,0c0.3,0.1,0.6,0.2,0.9,0.3c0.2,0.1,0.5,0.3,0.7,0.3c0.1,0,0.1,0.1,0.2-0.1c0.1-0.1,0.3-0.4,0.4-0.7
			c0.2-0.3,0.3-0.5,0.6-0.8c0.3-0.2,0.5-0.4,0.7-0.6c0.1-0.1,0.2-0.2,0.2-0.2c0,0,0,0,0-0.1c0-0.1-0.1-0.4-0.2-0.7
			c0-0.1-0.1-0.3-0.1-0.4c0-0.1,0-0.1,0-0.1c0,0,0,0,0,0l0,0c-0.1-0.1-0.3-0.2-0.5-0.3c-0.2-0.1-0.5-0.2-0.8-0.3
			c-0.3-0.2-0.5-0.2-0.7-0.3c-0.5-0.2-0.9-0.2-1.3-0.1c-0.4,0.1-0.8,0.4-1.1,0.7c-0.3,0.4-0.7,0.8-1.2,1.1c-0.5,0.3-1,0.5-1.5,0.5
			c-0.5,0-1-0.1-1.4-0.3c-0.4-0.1-0.7-0.2-1-0.1c-0.3,0.1-0.5,0.3-0.8,0.6c-0.5,0.5-0.9,1-1.2,1.3C36.4,81.9,36,82.3,36,82.3z"/>
	</g>
	<g>
		<path class="st0" d="M70.8,34.2c-0.8,0.4-1.5,0.7-2.2,1c-1.4,0.6-2.9,1.2-4.4,1.8c-0.2,0.1-0.4,0.2-0.5,0.3c-1,0.8-2,1.6-3,2.3
			c-0.2,0.1-0.4,0.2-0.6,0.2c-0.1-0.1-0.1-0.2-0.2-0.2c0.5-0.6,1-1.1,1.5-1.7c0.3-0.3,0.5-0.5,0.8-0.8c0.6-0.4,1.3-0.8,1.9-1.3
			c0.2-0.2,0.4-0.5,0.6-0.6c0.3-0.2,0.9-0.4,1.1-0.3c0.6,0.4,1.1,0.2,1.6-0.1c0.5-0.3,1-0.7,1.5-1C69.5,33.7,70.1,33.7,70.8,34.2z"
			/>
		<path class="st1" d="M70.8,34.2c-0.9,0.5-1.7,1-2.7,1.5c-0.9,0.4-1.8,0.8-2.8,1.3l-0.7,0.3l-0.2,0.1c0,0-0.1,0,0,0l-0.1,0.1
			l-0.3,0.2c-0.1,0.1-0.4,0.3-0.6,0.4l-0.6,0.5l-1.2,0.9l-0.6,0.5L61,40.1c-0.1,0.1-0.2,0.1-0.3,0.1l-0.4,0.1L60,40.4l-0.2-0.3
			L59.6,40l-0.3-0.3l0.3-0.3l1.1-1.2l0.3-0.3c0.1-0.1,0.1-0.1,0.2-0.2l0.2-0.1l0.6-0.6c0.3-0.2,0.5-0.3,0.7-0.5l0.7-0.4l0.3-0.2
			c0.1-0.1,0.3-0.2,0.3-0.2l0.3-0.3c0.1-0.1,0.4-0.3,0.5-0.3c0.3-0.1,0.5-0.2,0.9-0.3c0.1,0,0.3,0,0.4,0.1c0.1,0,0.1,0.1,0.1,0.1
			c0.1,0,0.2,0.1,0.3,0.1c0.4,0.1,0.9-0.2,1.3-0.5l0.7-0.4c0.2-0.1,0.5-0.3,0.8-0.4c0.3-0.1,0.6-0.1,0.9,0
			C70.4,33.9,70.6,34.1,70.8,34.2z M70.8,34.2c-0.5-0.3-1-0.4-1.5-0.2c-0.2,0.1-0.4,0.3-0.7,0.4L68,35c-0.2,0.2-0.4,0.3-0.7,0.5
			c-0.3,0.1-0.6,0.3-1,0.2c-0.2,0-0.3-0.1-0.5-0.1c-0.1,0-0.1-0.1-0.2-0.1c0,0,0.1,0,0,0c-0.1,0-0.4,0.1-0.6,0.3
			c-0.2,0.1-0.1,0.1-0.2,0.2c-0.1,0.1-0.1,0.2-0.3,0.3c-0.2,0.2-0.3,0.2-0.4,0.3l-0.3,0.2l-0.7,0.5c-0.2,0.1-0.5,0.3-0.6,0.4
			l-0.6,0.6l-0.1,0.1c0,0-0.1,0.1-0.1,0.1l-0.3,0.3L60.3,40l0-0.7l0.2,0.2L60,39.4l0.4-0.1c0,0,0.1,0,0.1,0l0.1-0.1l0.6-0.5l1.2-0.9
			l0.6-0.4c0.2-0.2,0.4-0.3,0.7-0.5l0.3-0.2l0.1,0c0.1-0.1,0.1,0,0.1-0.1l0.2-0.1l0.7-0.3c1-0.3,1.9-0.7,2.9-1
			C68.9,35,69.9,34.5,70.8,34.2z"/>
	</g>
	<g>
		<path class="st0" d="M50.9,44c0.1-0.2,0.3-0.4,0.4-0.6c0.6-0.5,1.1-1.1,1.7-1.6c0.4-0.4,0.7-0.9,1.1-1.4c0.2-0.2,0.5-0.4,0.8-0.4
			c0.2,0,0.5,0.3,0.5,0.5c0,0.2-0.2,0.4-0.4,0.6c-1.1,0.9-2.3,1.8-3.4,2.8c-0.2,0.1-0.3,0.2-0.5,0.4C51,44.1,50.9,44,50.9,44z"/>
		<path class="st1" d="M50.9,44c0.1-0.2,0.2-0.5,0.3-0.7l0.5-0.6c0.3-0.4,0.7-0.8,1-1.2c0.3-0.4,0.6-0.8,0.9-1.2
			c0.2-0.2,0.4-0.5,0.7-0.6c0.2-0.1,0.3-0.2,0.6-0.2c0.4,0,0.5,0.2,0.7,0.3c0.1,0.1,0.1,0.1,0.2,0.2c0,0.1,0.1,0.1,0.1,0.2
			c0,0,0,0.1,0,0.2l0,0.1l0,0.1l0,0c-0.1,0.4-0.2,0.5-0.3,0.6c-0.2,0.3-0.5,0.4-0.6,0.6c-0.4,0.3-0.8,0.6-1.2,0.9
			c-0.4,0.3-0.8,0.6-1.3,0.9c-0.4,0.3-0.9,0.6-1.4,0.8l0,0l0,0L50.9,44z M50.9,44l0.2,0.1l-0.1,0c0.7-0.7,1.4-1.5,2.2-2.2
			c0.4-0.4,0.8-0.7,1.1-1c0.2-0.2,0.4-0.3,0.5-0.5c0.1,0,0.1-0.2,0.1,0c0,0.2,0,0.1,0,0.1c0,0-0.1-0.1,0-0.1c0.1,0-0.1,0-0.1,0.1
			c-0.2,0.1-0.3,0.2-0.5,0.4c-0.3,0.3-0.6,0.8-1.1,1.2c-0.4,0.3-0.8,0.6-1.2,1l-0.6,0.5C51.2,43.6,51,43.8,50.9,44z"/>
	</g>
	<g>
		<path class="st0" d="M72.3,54c-0.1,0.6-0.2,1.2-0.3,1.7c0,0.2-0.4,0.3-0.6,0.4c-0.1-0.2-0.3-0.4-0.3-0.5c0.1-0.7,0.3-1.3,0.9-1.7
			C72.2,53.9,72.3,54,72.3,54z"/>
		<path class="st1" d="M72.3,54c0.1,0.4,0.1,0.9,0.1,1.3l0,0.3l0,0.2l0,0l0,0l0,0l0,0.1c0,0-0.1,0.2-0.1,0.2
			c-0.2,0.2-0.3,0.2-0.4,0.3c-0.1,0.1-0.2,0.1-0.2,0.1l-0.4,0.3L71,56.3c0,0-0.1-0.1-0.2-0.2c0-0.1-0.1-0.1-0.1-0.2
			c0-0.1,0-0.1-0.1-0.2c0-0.1,0-0.2,0-0.2c0-0.1,0-0.2,0.1-0.4c0-0.1,0.1-0.2,0.1-0.4c0.2-0.5,0.7-0.9,1.2-1l0.1,0l0,0
			C72.2,53.9,72.3,53.9,72.3,54z M72.3,54c-0.1,0-0.2,0-0.3,0l0.1,0c-0.3,0.3-0.4,0.7-0.5,1c0,0.1,0,0.2,0,0.3l0,0.3
			c0,0.1,0,0,0-0.1l0,0c0,0,0,0,0,0c0.1,0.1,0.1,0.2,0.2,0.3l-0.7-0.2c0.1-0.1,0.2-0.1,0.3-0.2c0.1,0,0.2-0.1,0.1,0
			c0,0-0.1,0.1,0,0.1l0,0l0,0l0,0l0,0c0,0,0-0.1,0,0.1l0,0l0,0l0,0l0-0.1l0.1-0.3C71.9,54.7,72.1,54.4,72.3,54z"/>
	</g>
	<g>
		<path class="st0" d="M50.1,77.1c0.4-0.4,0.7-0.8,1.1-1.3C51.2,77.2,51,77.6,50.1,77.1z"/>
		<path class="st1" d="M50.1,77.1c0-0.3,0.2-0.6,0.3-0.9c0.1-0.3,0.3-0.5,0.4-0.7l0.8-1l0.1,1.3c0,0.4,0,0.8-0.2,1.3
			c-0.1,0.1-0.2,0.3-0.3,0.4c-0.2,0.1-0.4,0.1-0.5,0.1C50.4,77.5,50.2,77.3,50.1,77.1z M50.1,77.1c0.2,0,0.4,0,0.6-0.1
			c0.1,0,0.1-0.1,0-0.1c0,0,0-0.1,0-0.1c0-0.2,0-0.6,0-1l0.9,0.3c-0.2,0.2-0.4,0.4-0.6,0.6C50.7,76.9,50.4,77,50.1,77.1z"/>
	</g>
	<g>
		<path class="st0" d="M76.1,31.6c0.3,1.2-0.3,1.4-1.1,1.2C75.3,32.4,75.6,32.1,76.1,31.6z"/>
		<path class="st1" d="M76.1,31.6c0.2,0.1,0.3,0.3,0.3,0.5c0.1,0.2,0.1,0.5-0.1,0.8c-0.2,0.3-0.5,0.4-0.8,0.4c-0.2,0-0.5,0-0.7,0
			L74,33.1l0.6-0.6c0.2-0.2,0.4-0.4,0.6-0.5C75.5,31.8,75.8,31.6,76.1,31.6z M76.1,31.6c0,0.3-0.2,0.6-0.3,0.9
			c-0.1,0.3-0.3,0.5-0.5,0.7L75,32.3c0.2,0,0.3,0,0.4,0c0.1,0,0.2,0,0.2,0c0.1,0,0.1-0.1,0.2-0.2C76,31.9,76,31.8,76.1,31.6z"/>
	</g>
	<g>
		<path class="st0" d="M18.4,76.4c0-0.4,0-0.8,0.1-1.2c0.2,0,0.4,0.1,0.4,0.1c0,0.4,0,0.7,0,1.1C18.7,76.4,18.6,76.4,18.4,76.4z"/>
		<path class="st1" d="M18.4,76.4C18.1,76,18,75.6,18,75.2l0-0.3l0.6-0.1c0,0,0.1,0,0.2,0c0.1,0,0.1,0,0.3,0c0,0,0.1,0,0.2,0.1
			c0,0,0,0,0.1,0.1c0,0,0.1,0.1,0.1,0.2c0,0.2,0,0.1,0,0.1l0,0l0,0.1l0,0.2c0,0.3-0.1,0.5-0.2,0.8l-0.1,0.4l-0.1-0.1
			C18.7,76.7,18.6,76.6,18.4,76.4z M18.4,76.4c0.2-0.1,0.3-0.2,0.5-0.3l-0.3,0.3c-0.1-0.3-0.2-0.5-0.2-0.8l0-0.2l0-0.1l0,0
			c0,0,0-0.1,0,0.1c0,0.1,0,0.1,0.1,0.2c0,0,0,0,0,0.1c0.1,0.1,0.1,0.1,0.1,0.1c0,0-0.1,0-0.1,0c-0.1,0-0.1,0-0.2-0.1l0.6-0.4
			C18.9,75.6,18.7,76,18.4,76.4z"/>
	</g>
</g>
</svg>
